<svg id="Arrow_Button" data-name="Arrow/Button" xmlns="http://www.w3.org/2000/svg" width="40" height="28" viewBox="0 0 40 28">
  <g id="Arrow_Button-2" data-name="Arrow/Button">
    <g id="Stroke_835" data-name="Stroke 835" fill="none" stroke-miterlimit="10">
      <path d="M0,3A3,3,0,0,1,3.006,0H36.993A3.008,3.008,0,0,1,40,3V25a3,3,0,0,1-3.007,3H3.006A3.007,3.007,0,0,1,0,25Z" stroke="none"/>
      <path d="M 3.006000518798828 1 C 1.899890899658203 1 1 1.895849227905273 1 2.996999740600586 L 1 25.00399971008301 C 1 26.10459899902344 1.899890899658203 27 3.006000518798828 27 L 36.99300003051758 27 C 38.09965896606445 27 39 26.10459899902344 39 25.00399971008301 L 39 2.996999740600586 C 39 1.895849227905273 38.09965896606445 1 36.99300003051758 1 L 3.006000518798828 1 M 3.006000518798828 0 L 36.99300003051758 0 C 38.65399932861328 0 40 1.35099983215332 40 2.996999740600586 L 40 25.00399971008301 C 40 26.65900039672852 38.65800094604492 28 36.99300003051758 28 L 3.006000518798828 28 C 1.346000671386719 28 0 26.64999961853027 0 25.00399971008301 L 0 2.996999740600586 C 0 1.341999053955078 1.341999053955078 0 3.006000518798828 0 Z" stroke="none" fill="#dddee0"/>
    </g>
    <g id="Icon_Arrow" data-name="Icon/Arrow" transform="translate(12 8)">
      <path id="Clip_839" data-name="Clip 839" d="M-17.188.759-22.1,4.544H-9.535A.5.5,0,0,1-9,5a.5.5,0,0,1-.535.454H-22.1l4.912,3.787a.4.4,0,0,1,0,.626.586.586,0,0,1-.741,0L-23.8,5.342c-.009-.005-.018,0-.025-.007s-.021-.005-.028-.011,0-.015-.01-.024A.411.411,0,0,1-24,5.022c0-.005,0-.008,0-.015a.018.018,0,0,1,0-.014c0-.008.006-.016.006-.024a.394.394,0,0,1,.113-.232c.018-.018.012-.045.031-.061s.041-.01.059-.024a.1.1,0,0,0,.023-.018l5.838-4.5A.583.583,0,0,1-17.559,0a.588.588,0,0,1,.372.129A.4.4,0,0,1-17.188.759Z" transform="translate(24 1)" fill="#232e48"/>
    </g>
  </g>
</svg>
