<svg id="Icon_Amenity_Drinks" data-name="Icon/Amenity/Drinks" xmlns="http://www.w3.org/2000/svg" xmlns:xlink="http://www.w3.org/1999/xlink" width="24" height="24" viewBox="0 0 24 24">
  <defs>
    <clipPath id="clip-path">
      <path id="Clip_194" data-name="Clip 194" d="M11.5,24h-6a.5.5,0,0,1,0-1H8v-5.35L.083,5.775a.489.489,0,0,1-.023-.508A.5.5,0,0,1,.5,5H11.032A3.816,3.816,0,0,1,11,4.5,4.5,4.5,0,1,1,15.5,9a3.557,3.557,0,0,1-.685-.069L9,17.651V23h2.5a.5.5,0,1,1,0,1ZM8.38,10a5.433,5.433,0,0,0-2.172.482,7.241,7.241,0,0,1-1.49.443L8.5,16.6l3.768-5.655a7.806,7.806,0,0,1-1.412-.408l-.017-.006A6.81,6.81,0,0,0,8.38,10Zm0-1a7.776,7.776,0,0,1,2.815.593l.017.006a4.943,4.943,0,0,0,1.67.4h.006l.011,0,2.665-4H1.435L4.091,9.986a5.225,5.225,0,0,0,1.753-.436A6.439,6.439,0,0,1,8.38,9ZM15.438,8a.178.178,0,0,1,.03,0A.186.186,0,0,0,15.5,8,3.5,3.5,0,1,0,12,4.5a2.872,2.872,0,0,0,.045.5H16.5a.5.5,0,0,1,.443.266.491.491,0,0,1-.024.508L15.438,8Z" transform="translate(2)" fill="#232e48"/>
    </clipPath>
  </defs>
  <g id="Group_37" data-name="Group 37">
    <path id="Clip_194-2" data-name="Clip 194" d="M11.5,24h-6a.5.5,0,0,1,0-1H8v-5.35L.083,5.775a.489.489,0,0,1-.023-.508A.5.5,0,0,1,.5,5H11.032A3.816,3.816,0,0,1,11,4.5,4.5,4.5,0,1,1,15.5,9a3.557,3.557,0,0,1-.685-.069L9,17.651V23h2.5a.5.5,0,1,1,0,1ZM8.38,10a5.433,5.433,0,0,0-2.172.482,7.241,7.241,0,0,1-1.49.443L8.5,16.6l3.768-5.655a7.806,7.806,0,0,1-1.412-.408l-.017-.006A6.81,6.81,0,0,0,8.38,10Zm0-1a7.776,7.776,0,0,1,2.815.593l.017.006a4.943,4.943,0,0,0,1.67.4h.006l.011,0,2.665-4H1.435L4.091,9.986a5.225,5.225,0,0,0,1.753-.436A6.439,6.439,0,0,1,8.38,9ZM15.438,8a.178.178,0,0,1,.03,0A.186.186,0,0,0,15.5,8,3.5,3.5,0,1,0,12,4.5a2.872,2.872,0,0,0,.045.5H16.5a.5.5,0,0,1,.443.266.491.491,0,0,1-.024.508L15.438,8Z" transform="translate(2)" fill="#232e48"/>
  </g>
</svg>
