<svg id="Icon_Amenity_Restaurants" data-name="Icon/Amenity/Restaurants" xmlns="http://www.w3.org/2000/svg" xmlns:xlink="http://www.w3.org/1999/xlink" width="24" height="24" viewBox="0 0 24 24">
  <defs>
    <clipPath id="clip-path">
      <path id="Clip_37" data-name="Clip 37" d="M12,23A12.147,12.147,0,0,1,0,10.739H24A12.147,12.147,0,0,1,12,23ZM3.47,16.861A10.346,10.346,0,0,0,12,21.463a10.356,10.356,0,0,0,8.532-4.6Zm-1.822-4.6a10.859,10.859,0,0,0,.946,3.077H21.407a10.9,10.9,0,0,0,.941-3.077ZM16.034,9.2H13.78l7.072-6.442a.737.737,0,0,1,.5-.2.754.754,0,0,1,.56.26.8.8,0,0,1-.062,1.093L16.034,9.2Zm-2.771,0H11.527L16.612.374A.746.746,0,0,1,17.258,0a.751.751,0,0,1,.65,1.134L13.263,9.2Z" transform="translate(0 1)" fill="#232e48"/>
    </clipPath>
  </defs>
  <g id="Group_31" data-name="Group 31">
    <path id="Clip_37-2" data-name="Clip 37" d="M12,23A12.147,12.147,0,0,1,0,10.739H24A12.147,12.147,0,0,1,12,23ZM3.47,16.861A10.346,10.346,0,0,0,12,21.463a10.356,10.356,0,0,0,8.532-4.6Zm-1.822-4.6a10.859,10.859,0,0,0,.946,3.077H21.407a10.9,10.9,0,0,0,.941-3.077ZM16.034,9.2H13.78l7.072-6.442a.737.737,0,0,1,.5-.2.754.754,0,0,1,.56.26.8.8,0,0,1-.062,1.093L16.034,9.2Zm-2.771,0H11.527L16.612.374A.746.746,0,0,1,17.258,0a.751.751,0,0,1,.65,1.134L13.263,9.2Z" transform="translate(0 1)" fill="#232e48"/>
  </g>
</svg>
