<svg id="Icon_Credit_Card" data-name="Icon/Credit Card" xmlns="http://www.w3.org/2000/svg" xmlns:xlink="http://www.w3.org/1999/xlink" width="24" height="24" viewBox="0 0 24 24">
  <defs>
    <clipPath id="clip-path">
      <path id="Clip_140" data-name="Clip 140" d="M21,23H3a3.157,3.157,0,0,1-3-3.287V3.285A3.156,3.156,0,0,1,3,0H21a3.156,3.156,0,0,1,3,3.285V19.714A3.157,3.157,0,0,1,21,23ZM1.5,11.5v8.213A1.577,1.577,0,0,0,3,21.356H21a1.577,1.577,0,0,0,1.5-1.642V11.5Zm0-4.93V9.856h21V6.57ZM3,1.643A1.577,1.577,0,0,0,1.5,3.285V4.928h21V3.285A1.577,1.577,0,0,0,21,1.643ZM15,18.074H10.5V16.428H15v1.645Zm-6,0H3V16.428H9v1.645Z" transform="translate(0 1)" fill="#232e48"/>
    </clipPath>
  </defs>
  <g id="Group_24" data-name="Group 24">
    <path id="Clip_140-2" data-name="Clip 140" d="M21,23H3a3.157,3.157,0,0,1-3-3.287V3.285A3.156,3.156,0,0,1,3,0H21a3.156,3.156,0,0,1,3,3.285V19.714A3.157,3.157,0,0,1,21,23ZM1.5,11.5v8.213A1.577,1.577,0,0,0,3,21.356H21a1.577,1.577,0,0,0,1.5-1.642V11.5Zm0-4.93V9.856h21V6.57ZM3,1.643A1.577,1.577,0,0,0,1.5,3.285V4.928h21V3.285A1.577,1.577,0,0,0,21,1.643ZM15,18.074H10.5V16.428H15v1.645Zm-6,0H3V16.428H9v1.645Z" transform="translate(0 1)" fill="#232e48"/>
  </g>
</svg>
