<svg id="Icon_Amenity_Restaurant_Menu" data-name="Icon/Amenity/Restaurant Menu" xmlns="http://www.w3.org/2000/svg" xmlns:xlink="http://www.w3.org/1999/xlink" width="24" height="24" viewBox="0 0 24 24">
  <defs>
    <clipPath id="clip-path">
      <path id="Clip_210" data-name="Clip 210" d="M17.54,24H1.46A1.484,1.484,0,0,1,0,22.5V1.5A1.484,1.484,0,0,1,1.46,0H17.54A1.484,1.484,0,0,1,19,1.5V22.5A1.484,1.484,0,0,1,17.54,24ZM5.844,1.5V22.5H16.808a.741.741,0,0,0,.733-.747V2.25a.741.741,0,0,0-.733-.747Zm-3.651,0a.741.741,0,0,0-.733.747v19.5a.741.741,0,0,0,.733.747H4.384V1.5ZM13.884,12H9.5a.749.749,0,0,1,0-1.5h4.385a.749.749,0,0,1,0,1.5Zm0-4.5H9.5A.749.749,0,0,1,9.5,6h4.385a.749.749,0,0,1,0,1.5Z" transform="translate(2)" fill="#232e48"/>
    </clipPath>
  </defs>
  <g id="Group_32" data-name="Group 32">
    <path id="Clip_210-2" data-name="Clip 210" d="M17.54,24H1.46A1.484,1.484,0,0,1,0,22.5V1.5A1.484,1.484,0,0,1,1.46,0H17.54A1.484,1.484,0,0,1,19,1.5V22.5A1.484,1.484,0,0,1,17.54,24ZM5.844,1.5V22.5H16.808a.741.741,0,0,0,.733-.747V2.25a.741.741,0,0,0-.733-.747Zm-3.651,0a.741.741,0,0,0-.733.747v19.5a.741.741,0,0,0,.733.747H4.384V1.5ZM13.884,12H9.5a.749.749,0,0,1,0-1.5h4.385a.749.749,0,0,1,0,1.5Zm0-4.5H9.5A.749.749,0,0,1,9.5,6h4.385a.749.749,0,0,1,0,1.5Z" transform="translate(2)" fill="#232e48"/>
  </g>
</svg>
