<svg id="Icon_Amenity_Air_Condition" data-name="Icon/Amenity/Air Condition" xmlns="http://www.w3.org/2000/svg" xmlns:xlink="http://www.w3.org/1999/xlink" width="24" height="24" viewBox="0 0 24 24">
  <defs>
    <clipPath id="clip-path">
      <path id="Clip_225" data-name="Clip 225" d="M6.685,21H5.42V15.887H6.685V21Zm5.948-1.36H11.367V15.883h1.266v3.756Zm5.948-.832H17.316V15.887h1.265v2.92ZM22.1,14.3H1.895A1.891,1.891,0,0,1,0,12.42V1.879A1.889,1.889,0,0,1,1.895,0H22.1A1.889,1.889,0,0,1,24,1.879V12.42A1.891,1.891,0,0,1,22.1,14.3ZM4.827,9.789H19.173a1.889,1.889,0,0,1,1.9,1.879v1.38H22.1a.631.631,0,0,0,.633-.628V1.879a.631.631,0,0,0-.633-.628H1.895a.631.631,0,0,0-.633.628V12.42a.631.631,0,0,0,.633.628H2.932v-1.38A1.889,1.889,0,0,1,4.827,9.789Zm0,1.255a.629.629,0,0,0-.633.624V13.04H19.806V11.668a.629.629,0,0,0-.634-.624ZM20.435,7.791H3.561V6.537H20.435V7.79Zm0-3.082H3.561V3.459H20.435V4.708Z" transform="translate(0 1)" fill="#232e48"/>
    </clipPath>
  </defs>
  <g id="Group_42" data-name="Group 42">
    <path id="Clip_225-2" data-name="Clip 225" d="M6.685,21H5.42V15.887H6.685V21Zm5.948-1.36H11.367V15.883h1.266v3.756Zm5.948-.832H17.316V15.887h1.265v2.92ZM22.1,14.3H1.895A1.891,1.891,0,0,1,0,12.42V1.879A1.889,1.889,0,0,1,1.895,0H22.1A1.889,1.889,0,0,1,24,1.879V12.42A1.891,1.891,0,0,1,22.1,14.3ZM4.827,9.789H19.173a1.889,1.889,0,0,1,1.9,1.879v1.38H22.1a.631.631,0,0,0,.633-.628V1.879a.631.631,0,0,0-.633-.628H1.895a.631.631,0,0,0-.633.628V12.42a.631.631,0,0,0,.633.628H2.932v-1.38A1.889,1.889,0,0,1,4.827,9.789Zm0,1.255a.629.629,0,0,0-.633.624V13.04H19.806V11.668a.629.629,0,0,0-.634-.624ZM20.435,7.791H3.561V6.537H20.435V7.79Zm0-3.082H3.561V3.459H20.435V4.708Z" transform="translate(0 1)" fill="#232e48"/>
  </g>
</svg>
