<svg id="Icon_News" data-name="Icon/News" xmlns="http://www.w3.org/2000/svg" xmlns:xlink="http://www.w3.org/1999/xlink" width="24" height="24" viewBox="0 0 24 24">
  <defs>
    <clipPath id="clip-path">
      <path id="Clip_106" data-name="Clip 106" d="M21.751,24H2.25A2.254,2.254,0,0,1,0,21.747V8.234A2.255,2.255,0,0,1,2.25,5.98H4.5V2.319A2.288,2.288,0,0,1,6.749,0h15A2.288,2.288,0,0,1,24,2.319V21.677A2.29,2.29,0,0,1,21.751,24ZM2.25,7.448A.752.752,0,0,0,1.5,8.2V21.747a.751.751,0,0,0,.752.75l19.5-.046a.763.763,0,0,0,.75-.774V2.272a.763.763,0,0,0-.75-.773h-15A.763.763,0,0,0,6,2.272V20.849H4.5V7.448ZM21,19.5H7.5v-1.5H21v1.5Zm0-4.508H7.5v-1.5H21v1.5Zm-1.5-4.505H9a1.5,1.5,0,0,1-1.5-1.5v-3A1.5,1.5,0,0,1,9,4.477H19.5A1.5,1.5,0,0,1,21,5.98v3A1.5,1.5,0,0,1,19.5,10.483ZM9.75,5.98A.751.751,0,0,0,9,6.731v1.5a.75.75,0,0,0,.75.748h9a.751.751,0,0,0,.752-.748v-1.5a.752.752,0,0,0-.752-.751Z" fill="#232e48"/>
    </clipPath>
  </defs>
  <g id="Group_14" data-name="Group 14">
    <path id="Clip_106-2" data-name="Clip 106" d="M21.751,24H2.25A2.254,2.254,0,0,1,0,21.747V8.234A2.255,2.255,0,0,1,2.25,5.98H4.5V2.319A2.288,2.288,0,0,1,6.749,0h15A2.288,2.288,0,0,1,24,2.319V21.677A2.29,2.29,0,0,1,21.751,24ZM2.25,7.448A.752.752,0,0,0,1.5,8.2V21.747a.751.751,0,0,0,.752.75l19.5-.046a.763.763,0,0,0,.75-.774V2.272a.763.763,0,0,0-.75-.773h-15A.763.763,0,0,0,6,2.272V20.849H4.5V7.448ZM21,19.5H7.5v-1.5H21v1.5Zm0-4.508H7.5v-1.5H21v1.5Zm-1.5-4.505H9a1.5,1.5,0,0,1-1.5-1.5v-3A1.5,1.5,0,0,1,9,4.477H19.5A1.5,1.5,0,0,1,21,5.98v3A1.5,1.5,0,0,1,19.5,10.483ZM9.75,5.98A.751.751,0,0,0,9,6.731v1.5a.75.75,0,0,0,.75.748h9a.751.751,0,0,0,.752-.748v-1.5a.752.752,0,0,0-.752-.751Z" fill="#232e48"/>
  </g>
</svg>
