<svg id="Icon_Expand" data-name="Icon/Expand" xmlns="http://www.w3.org/2000/svg" width="24.047" height="24" viewBox="0 0 24.047 24">
  <path id="_" data-name="î—" d="M23.531,23.954h0l-.282-.023h-.023l-5.367.023a.561.561,0,0,1-.562-.562v-.375a.573.573,0,0,1,.211-.41.655.655,0,0,1,.422-.152h3.539l-6.421-6.4A.746.746,0,1,1,16.1,15l6.445,6.4-.023-3.632a.579.579,0,0,1,.152-.387.492.492,0,0,1,.387-.175h.4a.718.718,0,0,1,.374.152.485.485,0,0,1,.188.339v5.414c0,.015,0,.023-.012.023H24l.047.282a.6.6,0,0,1-.035.211.45.45,0,0,1-.106.164.566.566,0,0,1-.175.117A.49.49,0,0,1,23.531,23.954Zm-17.321,0L.82,23.93H.8l-.281.023a.483.483,0,0,1-.2-.048.561.561,0,0,1-.176-.117.459.459,0,0,1-.105-.164A.6.6,0,0,1,0,23.414l.047-.282H.035c-.008,0-.012-.008-.012-.023V17.695a.483.483,0,0,1,.187-.339A.724.724,0,0,1,.586,17.2h.422a.489.489,0,0,1,.386.175.58.58,0,0,1,.153.387L1.524,21.4,7.969,15a.71.71,0,0,1,1.055,0,.711.711,0,0,1,0,1.055L2.6,22.453H6.141a.655.655,0,0,1,.422.152.573.573,0,0,1,.211.41v.375a.561.561,0,0,1-.562.563ZM15.575,9.187a.8.8,0,0,1-.762-.761.682.682,0,0,1,.235-.527l6.421-6.4H17.93a.655.655,0,0,1-.422-.153A.569.569,0,0,1,17.3.938V.563a.548.548,0,0,1,.164-.4A.548.548,0,0,1,17.86,0l5.367.023h.023L23.531,0a.488.488,0,0,1,.2.047.584.584,0,0,1,.175.117.446.446,0,0,1,.106.165.6.6,0,0,1,.035.211L24,.82h.012c.007,0,.012.009.012.023V6.258a.489.489,0,0,1-.188.34.724.724,0,0,1-.374.152h-.4a.492.492,0,0,1-.387-.175.582.582,0,0,1-.152-.387l.023-3.632L16.1,8.953A.684.684,0,0,1,15.575,9.187Zm-7.078,0a.681.681,0,0,1-.527-.234l-6.445-6.4.023,3.632a.583.583,0,0,1-.153.387.489.489,0,0,1-.386.175H.586A.731.731,0,0,1,.211,6.6a.487.487,0,0,1-.187-.34V.843C.023.828.027.82.035.82H.047L0,.539A.6.6,0,0,1,.035.329.455.455,0,0,1,.14.164.571.571,0,0,1,.317.047.482.482,0,0,1,.516,0L.8.023H.82L6.211,0a.548.548,0,0,1,.4.164.548.548,0,0,1,.164.4V.938a.569.569,0,0,1-.211.41.655.655,0,0,1-.422.153H2.6L9.023,7.9a.711.711,0,0,1,0,1.055A.681.681,0,0,1,8.5,9.187Z" fill="#232e48"/>
</svg>
