<svg id="Icon_Amenity_Toilet" data-name="Icon/Amenity/Toilet" xmlns="http://www.w3.org/2000/svg" xmlns:xlink="http://www.w3.org/1999/xlink" width="24" height="24" viewBox="0 0 24 24">
  <defs>
    <clipPath id="clip-path">
      <path id="Clip_233" data-name="Clip 233" d="M14.045,24H2.48V22.416a1.6,1.6,0,0,1,.128-.634A9.948,9.948,0,0,0,2.93,15.6a2.183,2.183,0,0,0-1.688-1.775A1.724,1.724,0,0,1,0,12.191V1.832H6.009v9.683H19v1.724a.441.441,0,0,1-.451.429h-.165a.447.447,0,0,0-.45.4,4.61,4.61,0,0,1-3.064,4.117,2.357,2.357,0,0,0-1.6,1.346,2.657,2.657,0,0,0,.5,2.156,1.645,1.645,0,0,1,.278.916V24ZM2.406,12.848h0a3.451,3.451,0,0,1,1.9,2.522,11.172,11.172,0,0,1-.4,6.9.306.306,0,0,0-.03.143v.248H12.65v-.059a.382.382,0,0,0-.06-.2,3.746,3.746,0,0,1-.638-3.317,3.64,3.64,0,0,1,2.434-2.15,3.255,3.255,0,0,0,2.156-2.971,1.761,1.761,0,0,1,.545-1.119ZM1.4,3.164v7.447H4.614V3.164ZM19,11.085H6.685V9.794H17.649A1.324,1.324,0,0,1,19,11.084ZM6.009,1.29H0V.859A.883.883,0,0,1,.9,0h4.2a.882.882,0,0,1,.9.859v.43Z" transform="translate(2)" fill="#232e48"/>
    </clipPath>
  </defs>
  <g id="Group_29" data-name="Group 29">
    <path id="Clip_233-2" data-name="Clip 233" d="M14.045,24H2.48V22.416a1.6,1.6,0,0,1,.128-.634A9.948,9.948,0,0,0,2.93,15.6a2.183,2.183,0,0,0-1.688-1.775A1.724,1.724,0,0,1,0,12.191V1.832H6.009v9.683H19v1.724a.441.441,0,0,1-.451.429h-.165a.447.447,0,0,0-.45.4,4.61,4.61,0,0,1-3.064,4.117,2.357,2.357,0,0,0-1.6,1.346,2.657,2.657,0,0,0,.5,2.156,1.645,1.645,0,0,1,.278.916V24ZM2.406,12.848h0a3.451,3.451,0,0,1,1.9,2.522,11.172,11.172,0,0,1-.4,6.9.306.306,0,0,0-.03.143v.248H12.65v-.059a.382.382,0,0,0-.06-.2,3.746,3.746,0,0,1-.638-3.317,3.64,3.64,0,0,1,2.434-2.15,3.255,3.255,0,0,0,2.156-2.971,1.761,1.761,0,0,1,.545-1.119ZM1.4,3.164v7.447H4.614V3.164ZM19,11.085H6.685V9.794H17.649A1.324,1.324,0,0,1,19,11.084ZM6.009,1.29H0V.859A.883.883,0,0,1,.9,0h4.2a.882.882,0,0,1,.9.859v.43Z" transform="translate(2)" fill="#232e48"/>
  </g>
</svg>
