<svg id="Icon_People_2" data-name="Icon/People 2" xmlns="http://www.w3.org/2000/svg" xmlns:xlink="http://www.w3.org/1999/xlink" width="24" height="24" viewBox="0 0 24 24">
  <defs>
    <clipPath id="clip-path">
      <path id="Clip_124" data-name="Clip 124" d="M13.5,17a.5.5,0,0,1-.5-.5,6,6,0,1,0-12,0,.5.5,0,0,1-1,0,7.013,7.013,0,0,1,4.679-6.6,5,5,0,1,1,4.642,0A7.013,7.013,0,0,1,14,16.5.5.5,0,0,1,13.5,17ZM7,1.5a4,4,0,1,0,4,4A4.005,4.005,0,0,0,7,1.5ZM23.5,14a.5.5,0,0,1-.5-.5,5.5,5.5,0,0,0-10.142-2.935,8.037,8.037,0,0,0-.737-.708,6.549,6.549,0,0,1,3.244-2.483,4,4,0,1,1,4.275,0A6.51,6.51,0,0,1,24,13.5.5.5,0,0,1,23.5,14Zm-6-13a3,3,0,1,0,3,3A3,3,0,0,0,17.5,1Z" transform="translate(0 4)" fill="#232e48"/>
    </clipPath>
  </defs>
  <g id="Group_13" data-name="Group 13">
    <path id="Clip_124-2" data-name="Clip 124" d="M13.5,17a.5.5,0,0,1-.5-.5,6,6,0,1,0-12,0,.5.5,0,0,1-1,0,7.013,7.013,0,0,1,4.679-6.6,5,5,0,1,1,4.642,0A7.013,7.013,0,0,1,14,16.5.5.5,0,0,1,13.5,17ZM7,1.5a4,4,0,1,0,4,4A4.005,4.005,0,0,0,7,1.5ZM23.5,14a.5.5,0,0,1-.5-.5,5.5,5.5,0,0,0-10.142-2.935,8.037,8.037,0,0,0-.737-.708,6.549,6.549,0,0,1,3.244-2.483,4,4,0,1,1,4.275,0A6.51,6.51,0,0,1,24,13.5.5.5,0,0,1,23.5,14Zm-6-13a3,3,0,1,0,3,3A3,3,0,0,0,17.5,1Z" transform="translate(0 4)" fill="#232e48"/>
  </g>
</svg>
