<svg id="Icon_Amenity_Hair_Dryer" data-name="Icon/Amenity/Hair Dryer" xmlns="http://www.w3.org/2000/svg" xmlns:xlink="http://www.w3.org/1999/xlink" width="24" height="26" viewBox="0 0 24 26">
  <defs>
    <clipPath id="clip-path">
      <path id="Clip_249" data-name="Clip 249" d="M8.978,18H5.287a1.11,1.11,0,0,1-1.094-1.124V13.217A6.839,6.839,0,0,1,0,6.858,6.794,6.794,0,0,1,6.712,0H18.544a1.11,1.11,0,0,1,1.092,1.124V5.986a1.119,1.119,0,0,1-.819,1.088l-5.6,1.486A6.873,6.873,0,0,1,10.067,12.8v4.079A1.108,1.108,0,0,1,8.978,18ZM6.545,4.5a2.25,2.25,0,0,0,0,4.5,2.25,2.25,0,0,0,0-4.5ZM23.453,5.626H21.272a.562.562,0,0,1,0-1.124h2.182a.562.562,0,0,1,0,1.124Zm0-2.252H21.272a.562.562,0,0,1,0-1.124h2.182a.562.562,0,0,1,0,1.124Zm0-2.25H21.272a.554.554,0,0,1-.546-.561A.556.556,0,0,1,21.272,0h2.182A.556.556,0,0,1,24,.563.555.555,0,0,1,23.453,1.124Z" fill="none"/>
    </clipPath>
  </defs>
  <g id="Group_250" data-name="Group 250" transform="translate(0 8)">
    <path id="Clip_249-2" data-name="Clip 249" d="M8.978,18H5.287a1.11,1.11,0,0,1-1.094-1.124V13.217A6.839,6.839,0,0,1,0,6.858,6.794,6.794,0,0,1,6.712,0H18.544a1.11,1.11,0,0,1,1.092,1.124V5.986a1.119,1.119,0,0,1-.819,1.088l-5.6,1.486A6.873,6.873,0,0,1,10.067,12.8v4.079A1.108,1.108,0,0,1,8.978,18ZM6.545,4.5a2.25,2.25,0,0,0,0,4.5,2.25,2.25,0,0,0,0-4.5ZM23.453,5.626H21.272a.562.562,0,0,1,0-1.124h2.182a.562.562,0,0,1,0,1.124Zm0-2.252H21.272a.562.562,0,0,1,0-1.124h2.182a.562.562,0,0,1,0,1.124Zm0-2.25H21.272a.554.554,0,0,1-.546-.561A.556.556,0,0,1,21.272,0h2.182A.556.556,0,0,1,24,.563.555.555,0,0,1,23.453,1.124Z" fill="none"/>
    <g id="Group_250-2" data-name="Group 250" clip-path="url(#clip-path)">
      <path id="Stroke_248" data-name="Stroke 248" d="M8.979,18H5.287A1.11,1.11,0,0,1,4.2,16.875V13.217A6.832,6.832,0,0,1,0,6.858,6.794,6.794,0,0,1,6.713,0H18.545a1.11,1.11,0,0,1,1.091,1.125v4.86a1.119,1.119,0,0,1-.819,1.09l-5.6,1.485A6.892,6.892,0,0,1,10.07,12.8v4.077A1.11,1.11,0,0,1,8.979,18ZM6.546,4.5a2.251,2.251,0,0,0,0,4.5,2.251,2.251,0,0,0,0-4.5ZM23.455,5.625H21.272a.563.563,0,0,1,0-1.125h2.183a.563.563,0,0,1,0,1.125Zm0-2.25H21.272a.563.563,0,0,1,0-1.125h2.183a.563.563,0,0,1,0,1.125Zm0-2.25H21.272a.555.555,0,0,1-.545-.562A.555.555,0,0,1,21.272,0h2.183A.555.555,0,0,1,24,.563.555.555,0,0,1,23.455,1.125Z" fill="none" stroke="#232e48" stroke-miterlimit="10" stroke-width="2"/>
    </g>
  </g>
</svg>
