<svg id="Icon_Promo_Codes" data-name="Icon/Promo Codes" xmlns="http://www.w3.org/2000/svg" xmlns:xlink="http://www.w3.org/1999/xlink" width="24" height="24" viewBox="0 0 24 24">
  <defs>
    <clipPath id="clip-path">
      <path id="Clip_311" data-name="Clip 311" d="M23.037,16H.96A.983.983,0,0,1,0,15V12A3.929,3.929,0,0,0,3.839,8,3.926,3.926,0,0,0,0,4V1A.98.98,0,0,1,.96,0H23.037A.982.982,0,0,1,24,1V15A.984.984,0,0,1,23.037,16ZM6.72,14h.958v1H23.037V1H7.679V2H6.72V1H.96V3.1A4.965,4.965,0,0,1,4.8,8,4.968,4.968,0,0,1,.96,12.9V15H6.72V14Zm5.529-1h0l-.729-.647L19.2,3l.729.653L12.25,13Zm5.99,0a2,2,0,1,1,1.921-2A1.963,1.963,0,0,1,18.239,13Zm0-3a1,1,0,1,0,.958,1A.983.983,0,0,0,18.239,10ZM7.679,12H6.72V9h.958v3Zm4.8-5a1.964,1.964,0,0,1-1.921-2A1.921,1.921,0,1,1,14.4,5,1.963,1.963,0,0,1,12.481,7Zm0-3a1,1,0,1,0,.96,1A.984.984,0,0,0,12.481,4Zm-4.8,3H6.72V4h.958V7Z" transform="translate(0 4)" fill="#232e48"/>
    </clipPath>
  </defs>
  <g id="Group_8" data-name="Group 8">
    <path id="Clip_311-2" data-name="Clip 311" d="M23.037,16H.96A.983.983,0,0,1,0,15V12A3.929,3.929,0,0,0,3.839,8,3.926,3.926,0,0,0,0,4V1A.98.98,0,0,1,.96,0H23.037A.982.982,0,0,1,24,1V15A.984.984,0,0,1,23.037,16ZM6.72,14h.958v1H23.037V1H7.679V2H6.72V1H.96V3.1A4.965,4.965,0,0,1,4.8,8,4.968,4.968,0,0,1,.96,12.9V15H6.72V14Zm5.529-1h0l-.729-.647L19.2,3l.729.653L12.25,13Zm5.99,0a2,2,0,1,1,1.921-2A1.963,1.963,0,0,1,18.239,13Zm0-3a1,1,0,1,0,.958,1A.983.983,0,0,0,18.239,10ZM7.679,12H6.72V9h.958v3Zm4.8-5a1.964,1.964,0,0,1-1.921-2A1.921,1.921,0,1,1,14.4,5,1.963,1.963,0,0,1,12.481,7Zm0-3a1,1,0,1,0,.96,1A.984.984,0,0,0,12.481,4Zm-4.8,3H6.72V4h.958V7Z" transform="translate(0 4)" fill="#232e48"/>
  </g>
</svg>
