<?xml version="1.0" encoding="UTF-8"?>
<svg width="35px" height="34px" viewBox="0 0 35 34" version="1.1" xmlns="http://www.w3.org/2000/svg" xmlns:xlink="http://www.w3.org/1999/xlink">
    <!-- Generator: sketchtool 54 (76480) - https://sketchapp.com -->
    <title>6D40A0D5-29A1-44C0-A0C2-2C716C68A0A4</title>
    <desc>Created with sketchtool.</desc>
    <g id="Asset-Artboard-Page" stroke="none" stroke-width="1" fill="none" fill-rule="evenodd">
        <g id="Icon/Social/Wechat" transform="translate(0.980805, 0.000000)" fill="#2DC100">
            <path d="M9.62890625,9.45735677 C9.62890625,8.54427083 9.03125,7.94661458 8.11816406,7.94661458 C7.22167969,7.94661458 6.30859375,8.54427083 6.30859375,9.45735677 C6.30859375,10.3538411 7.22167969,10.9514974 8.11816406,10.9514974 C9.03125,10.9514974 9.62890625,10.3538411 9.62890625,9.45735677 Z M21.9638672,17.874349 C21.9638672,17.2766927 21.3662109,16.6790365 20.453125,16.6790365 C19.8554688,16.6790365 19.2578125,17.2766927 19.2578125,17.874349 C19.2578125,18.4886068 19.8554688,19.086263 20.453125,19.086263 C21.3662109,19.086263 21.9638672,18.4886068 21.9638672,17.874349 Z M18.0458984,9.45735677 C18.0458984,8.54427083 17.4482422,7.94661458 16.5517578,7.94661458 C15.6386719,7.94661458 14.7421875,8.54427083 14.7421875,9.45735677 C14.7421875,10.3538411 15.6386719,10.9514974 16.5517578,10.9514974 C17.4482422,10.9514974 18.0458984,10.3538411 18.0458984,9.45735677 Z M28.5878906,17.874349 C28.5878906,17.2766927 27.9736328,16.6790365 27.0771484,16.6790365 C26.4794922,16.6790365 25.8818359,17.2766927 25.8818359,17.874349 C25.8818359,18.4886068 26.4794922,19.086263 27.0771484,19.086263 C27.9736328,19.086263 28.5878906,18.4886068 28.5878906,17.874349 Z M24.171875,11.2835286 C23.7900391,11.233724 23.4082031,11.2171224 23.0097656,11.2171224 C17.2988281,11.2171224 12.7832031,15.483724 12.7832031,20.7298177 C12.7832031,21.6097005 12.9160156,22.4563802 13.1650391,23.2532552 C12.7832031,23.2864583 12.4179687,23.3030599 12.0361328,23.3030599 C10.5253906,23.3030599 9.33007812,23.0042318 7.81933594,22.7054036 L3.61914062,24.8138021 L4.81445313,21.1946615 C1.80957031,19.086263 0,16.3636068 0,13.0598958 C0,7.33235677 5.41210938,2.83333333 12.0361328,2.83333333 C17.9462891,2.83333333 23.1425781,6.4358724 24.171875,11.2835286 Z M34,20.5970052 C34,23.3030599 32.2070312,25.7102865 29.7832031,27.5198568 L30.6962891,30.5247396 L27.3925781,28.7151693 C26.1806641,29.0139974 24.96875,29.3294271 23.7734375,29.3294271 C18.0458984,29.3294271 13.546875,25.4114583 13.546875,20.5970052 C13.546875,15.7825521 18.0458984,11.8645833 23.7734375,11.8645833 C29.1855469,11.8645833 34,15.7825521 34,20.5970052 Z" id=""></path>
        </g>
    </g>
</svg>