<svg id="Icon_Gallery" data-name="Icon/Gallery" xmlns="http://www.w3.org/2000/svg" width="24" height="24" viewBox="0 0 24 24">
  <path id="_" data-name="ïµ" d="M22.125,18h-20a2.055,2.055,0,0,1-1.5-.625A1.985,1.985,0,0,1,0,15.937v-11A1.789,1.789,0,0,1,.625,3.562,2.177,2.177,0,0,1,2.125,3h.813V2H5.063V3h.813A27.771,27.771,0,0,1,8.156.563,1.915,1.915,0,0,1,9.312,0h5.5a1.911,1.911,0,0,1,1.156.563A27.881,27.881,0,0,1,18.25,3h3.875a1.826,1.826,0,0,1,1.344.532A1.906,1.906,0,0,1,24,4.937v11a2.131,2.131,0,0,1-.532,1.469A1.731,1.731,0,0,1,22.125,18Zm-20-14a1.208,1.208,0,0,0-.781.282A.832.832,0,0,0,1,4.937v11a.984.984,0,0,0,.344.751A1.137,1.137,0,0,0,2.125,17h20c.581,0,.876-.358.876-1.063v-11C23,4.315,22.706,4,22.125,4H17.813L17.5,3.812a7.072,7.072,0,0,0-.625-.688q-.375-.437-.906-1.062c-.349-.411-.591-.684-.719-.813L14.812,1h-5.5a.972.972,0,0,0-.437.25A18.83,18.83,0,0,0,7.313,2.938c-.389.517-.607.8-.688.875L6.313,4ZM12,15.5a5.24,5.24,0,0,1-3.781-1.562,5.085,5.085,0,0,1-1.594-3.75A5.136,5.136,0,0,1,8.187,6.438,5.345,5.345,0,0,1,12,4.875a5.241,5.241,0,0,1,3.782,1.562,5.086,5.086,0,0,1,1.594,3.749,5.087,5.087,0,0,1-1.594,3.75A5.241,5.241,0,0,1,12,15.5Zm0-9.625A4.233,4.233,0,0,0,8.906,7.156a4.162,4.162,0,0,0-1.282,3.031,4.319,4.319,0,0,0,1.25,3.063A4.393,4.393,0,0,0,12,14.5a4.231,4.231,0,0,0,3.094-1.282,4.228,4.228,0,0,0,0-6.062A4.234,4.234,0,0,0,12,5.875Zm0,6.313a1.773,1.773,0,0,1-2-2,1.773,1.773,0,0,1,2-2,1.773,1.773,0,0,1,2,2A1.773,1.773,0,0,1,12,12.188Zm7.063-6.125H18V5h1.063V6.061Z" transform="translate(0 3)" fill="#232e48"/>
</svg>
