<svg id="Icon_Amenity_Buffet" data-name="Icon/Amenity/Buffet" xmlns="http://www.w3.org/2000/svg" xmlns:xlink="http://www.w3.org/1999/xlink" width="24" height="24" viewBox="0 0 24 24">
  <defs>
    <clipPath id="clip-path">
      <path id="Clip_167" data-name="Clip 167" d="M11.629,24H10.173V.4l0,0,0-.4h1.456V.093A20.2,20.2,0,0,1,14.972,5.8a23.029,23.029,0,0,1,1.021,7.3l0,.4H11.629V24Zm0-21.52V12h3a17.491,17.491,0,0,0-.842-5.2A20.689,20.689,0,0,0,11.629,2.48ZM4.363,24H2.907V12A2.956,2.956,0,0,1,0,9V0H1.456V6H2.907V0H4.363V6H5.815V0H7.267V9a2.954,2.954,0,0,1-2.9,3V24ZM1.456,7.5V9a1.477,1.477,0,0,0,1.451,1.5H4.363A1.477,1.477,0,0,0,5.815,9V7.5Z" transform="translate(4)" fill="#232e48"/>
    </clipPath>
  </defs>
  <g id="Group_39" data-name="Group 39">
    <path id="Clip_167-2" data-name="Clip 167" d="M11.629,24H10.173V.4l0,0,0-.4h1.456V.093A20.2,20.2,0,0,1,14.972,5.8a23.029,23.029,0,0,1,1.021,7.3l0,.4H11.629V24Zm0-21.52V12h3a17.491,17.491,0,0,0-.842-5.2A20.689,20.689,0,0,0,11.629,2.48ZM4.363,24H2.907V12A2.956,2.956,0,0,1,0,9V0H1.456V6H2.907V0H4.363V6H5.815V0H7.267V9a2.954,2.954,0,0,1-2.9,3V24ZM1.456,7.5V9a1.477,1.477,0,0,0,1.451,1.5H4.363A1.477,1.477,0,0,0,5.815,9V7.5Z" transform="translate(4)" fill="#232e48"/>
  </g>
</svg>
