<svg xmlns="http://www.w3.org/2000/svg" xmlns:xlink="http://www.w3.org/1999/xlink" width="24.004" height="24" viewBox="0 0 24.004 24">
  <defs>
    <clipPath id="clip-path">
      <path id="Clip_55" data-name="Clip 55" d="M10.905,24a1.467,1.467,0,0,1-1.044-.43L.434,14.143a1.483,1.483,0,0,1,0-2.1L2.527,9.947l.52-.521L12.477,0H24l0,11.519L11.953,23.57A1.479,1.479,0,0,1,10.905,24ZM3.575,11h0L2,12.571a.735.735,0,0,0,0,1.041L10.381,22a.747.747,0,0,0,.524.209A.76.76,0,0,0,11.429,22L13,20.425,3.575,11ZM22.5,1.507,13,1.573,4.619,9.947l9.431,9.427L22.424,11ZM17.712,9.241a2.968,2.968,0,1,1,2.095-.871A2.939,2.939,0,0,1,17.712,9.241Zm0-4.443a1.483,1.483,0,1,0,0,2.966,1.482,1.482,0,0,0,1.048-.43A1.488,1.488,0,0,0,17.713,4.8Z" fill="#232e48"/>
    </clipPath>
  </defs>
  <g id="Icon_Amenity_Offer" data-name="Icon/Amenity/Offer" transform="translate(0.003)">
    <g id="Group_33" data-name="Group 33">
      <path id="Clip_55-2" data-name="Clip 55" d="M10.905,24a1.467,1.467,0,0,1-1.044-.43L.434,14.143a1.483,1.483,0,0,1,0-2.1L2.527,9.947l.52-.521L12.477,0H24l0,11.519L11.953,23.57A1.479,1.479,0,0,1,10.905,24ZM3.575,11h0L2,12.571a.735.735,0,0,0,0,1.041L10.381,22a.747.747,0,0,0,.524.209A.76.76,0,0,0,11.429,22L13,20.425,3.575,11ZM22.5,1.507,13,1.573,4.619,9.947l9.431,9.427L22.424,11ZM17.712,9.241a2.968,2.968,0,1,1,2.095-.871A2.939,2.939,0,0,1,17.712,9.241Zm0-4.443a1.483,1.483,0,1,0,0,2.966,1.482,1.482,0,0,0,1.048-.43A1.488,1.488,0,0,0,17.713,4.8Z" fill="#232e48"/>
    </g>
  </g>
</svg>
