<svg id="Icon_Group" data-name="Icon/Group" xmlns="http://www.w3.org/2000/svg" xmlns:xlink="http://www.w3.org/1999/xlink" width="24" height="24" viewBox="0 0 24 24">
  <defs>
    <clipPath id="clip-path">
      <path id="Clip_84" data-name="Clip 84" d="M12.032,17c-6.294,0-6.821-.357-6.826-.361A3.047,3.047,0,0,1,5.611,13a20.237,20.237,0,0,1,4.1-1.283A7.486,7.486,0,0,1,7.779,6.566c0-2.492.479-5.353,4.218-5.353S16.22,4.074,16.22,6.566a7.531,7.531,0,0,1-1.922,5.14A21.712,21.712,0,0,1,18.4,13a3.073,3.073,0,0,1,.4,3.643S18.319,17,12.032,17Zm-.1-1.228,5.468.014a1,1,0,0,0,.625-.973,1.385,1.385,0,0,0-.625-1.3c-.558-.25-3.06-.909-3.883-1.126l-.165-.548V11a6.027,6.027,0,0,0,1.66-4.389c0-2.065-.358-4.176-3.012-4.176s-3.01,2.111-3.01,4.176A6.038,6.038,0,0,0,10.646,11v.838l-.143.489c-.726.212-3.138.922-3.729,1.185a1.636,1.636,0,0,0-.792,1.434.879.879,0,0,0,.606.843Zm8.4-.644h0a3.111,3.111,0,0,0,0-1.169l1.841.007a1,1,0,0,0,.625-.975,1.383,1.383,0,0,0-.625-1.3c-.513-.234-2.652-.805-3.881-1.125l-.166-.552V9.205a5.426,5.426,0,0,0,1.66-4.1c0-1.927-.358-3.9-3.011-3.9a2.873,2.873,0,0,0-.369.03l-.13.015a4.184,4.184,0,0,0-2.014-.6A4.463,4.463,0,0,1,16.768,0c3.743,0,4.223,2.71,4.223,5.072a6.956,6.956,0,0,1-1.875,4.823,19.494,19.494,0,0,1,4.054,1.281,3.074,3.074,0,0,1,.4,3.642s-.287.214-3.239.31Zm-16.655,0h0c-2.953-.1-3.236-.308-3.239-.31a3.074,3.074,0,0,1,.4-3.642A19.484,19.484,0,0,1,4.883,9.895,6.954,6.954,0,0,1,3.009,5.072C3.009,2.71,3.489,0,7.232,0A4.454,4.454,0,0,1,9.744.651a4.175,4.175,0,0,0-2.011.6L7.6,1.239a2.84,2.84,0,0,0-.365-.029c-2.654,0-3.012,1.97-3.012,3.9a5.427,5.427,0,0,0,1.661,4.1v.806l-.166.552c-1.5.392-3.4.9-3.883,1.125a1.378,1.378,0,0,0-.624,1.3,1,1,0,0,0,.624.98l1.843-.007a3.286,3.286,0,0,0,0,1.169Z" transform="translate(0 4)" fill="#232e48"/>
    </clipPath>
  </defs>
  <g id="Group_20" data-name="Group 20">
    <path id="Clip_84-2" data-name="Clip 84" d="M12.032,17c-6.294,0-6.821-.357-6.826-.361A3.047,3.047,0,0,1,5.611,13a20.237,20.237,0,0,1,4.1-1.283A7.486,7.486,0,0,1,7.779,6.566c0-2.492.479-5.353,4.218-5.353S16.22,4.074,16.22,6.566a7.531,7.531,0,0,1-1.922,5.14A21.712,21.712,0,0,1,18.4,13a3.073,3.073,0,0,1,.4,3.643S18.319,17,12.032,17Zm-.1-1.228,5.468.014a1,1,0,0,0,.625-.973,1.385,1.385,0,0,0-.625-1.3c-.558-.25-3.06-.909-3.883-1.126l-.165-.548V11a6.027,6.027,0,0,0,1.66-4.389c0-2.065-.358-4.176-3.012-4.176s-3.01,2.111-3.01,4.176A6.038,6.038,0,0,0,10.646,11v.838l-.143.489c-.726.212-3.138.922-3.729,1.185a1.636,1.636,0,0,0-.792,1.434.879.879,0,0,0,.606.843Zm8.4-.644h0a3.111,3.111,0,0,0,0-1.169l1.841.007a1,1,0,0,0,.625-.975,1.383,1.383,0,0,0-.625-1.3c-.513-.234-2.652-.805-3.881-1.125l-.166-.552V9.205a5.426,5.426,0,0,0,1.66-4.1c0-1.927-.358-3.9-3.011-3.9a2.873,2.873,0,0,0-.369.03l-.13.015a4.184,4.184,0,0,0-2.014-.6A4.463,4.463,0,0,1,16.768,0c3.743,0,4.223,2.71,4.223,5.072a6.956,6.956,0,0,1-1.875,4.823,19.494,19.494,0,0,1,4.054,1.281,3.074,3.074,0,0,1,.4,3.642s-.287.214-3.239.31Zm-16.655,0h0c-2.953-.1-3.236-.308-3.239-.31a3.074,3.074,0,0,1,.4-3.642A19.484,19.484,0,0,1,4.883,9.895,6.954,6.954,0,0,1,3.009,5.072C3.009,2.71,3.489,0,7.232,0A4.454,4.454,0,0,1,9.744.651a4.175,4.175,0,0,0-2.011.6L7.6,1.239a2.84,2.84,0,0,0-.365-.029c-2.654,0-3.012,1.97-3.012,3.9a5.427,5.427,0,0,0,1.661,4.1v.806l-.166.552c-1.5.392-3.4.9-3.883,1.125a1.378,1.378,0,0,0-.624,1.3,1,1,0,0,0,.624.98l1.843-.007a3.286,3.286,0,0,0,0,1.169Z" transform="translate(0 4)" fill="#232e48"/>
  </g>
</svg>
