<svg id="Icon_Social_LoginYahoo" data-name="Icon/Social/LoginYahoo" xmlns="http://www.w3.org/2000/svg" xmlns:xlink="http://www.w3.org/1999/xlink" width="20" height="20" viewBox="0 0 20 20">
  <defs>
    <clipPath id="clip-path">
      <path id="Clip_1700" data-name="Clip 1700" d="M0,0H8.97V.092L9,.095,8.97.321V1.1H6.606C7.878,3,9.7,5.526,10.478,6.626l3.809-3.419H12.025l-.32-1.1H20l-.062.094.028,0-.591.64-.02,0-.239.36h-1.53l-.491.106c-.52.146-5.585,3.972-5.9,4.9a33.86,33.86,0,0,0,.077,3.7l3.3.048-.051,1.022c-.4-.032-3.276.01-4.916.01-.832,0-3.3.024-4.122,0L5.5,11.911c.13-.008.44,0,.818.009.922.022,2.258.045,2.432-.2a15.993,15.993,0,0,0,.035-3.656A59.068,59.068,0,0,0,2.805,1.1H0Z" fill="none"/>
    </clipPath>
  </defs>
  <g id="Group_1701" data-name="Group 1701" transform="translate(0 3)">
    <path id="Clip_1700-2" data-name="Clip 1700" d="M0,0H8.97V.092L9,.095,8.97.321V1.1H6.606C7.878,3,9.7,5.526,10.478,6.626l3.809-3.419H12.025l-.32-1.1H20l-.062.094.028,0-.591.64-.02,0-.239.36h-1.53l-.491.106c-.52.146-5.585,3.972-5.9,4.9a33.86,33.86,0,0,0,.077,3.7l3.3.048-.051,1.022c-.4-.032-3.276.01-4.916.01-.832,0-3.3.024-4.122,0L5.5,11.911c.13-.008.44,0,.818.009.922.022,2.258.045,2.432-.2a15.993,15.993,0,0,0,.035-3.656A59.068,59.068,0,0,0,2.805,1.1H0Z" fill="none"/>
    <g id="Group_1701-2" data-name="Group 1701" clip-path="url(#clip-path)">
      <path id="Fill_1699" data-name="Fill 1699" d="M0,23H30V0H0Z" transform="translate(-5 -5)" fill="#720e9e"/>
    </g>
  </g>
</svg>
