<svg id="Icon_Onsen" data-name="Icon/Onsen" xmlns="http://www.w3.org/2000/svg" width="24" height="24.143" viewBox="0 0 24 24.143">
  <g id="hot_tub" data-name="hot tub" transform="translate(0 1)">
    <path id="Fill_1" data-name="Fill 1" d="M12,16.285c-5.944,0-12-1.752-12-3.471V4.88A.511.511,0,0,1,.037,4.7c0-.024-.007-.048-.011-.072A1.524,1.524,0,0,1,0,4.384C0,2.551,2.238.939,5.986.072A.508.508,0,0,1,6.1.058a.5.5,0,0,1,.111.98C3.046,1.769,1,3.082,1,4.384,1,6.3,5.42,8.351,12,8.351S23,6.3,23,4.384c0-1.342-2.142-2.678-5.458-3.4a.5.5,0,0,1-.381-.591.5.5,0,0,1,.6-.377C21.667.868,24,2.5,24,4.384v8.43C24,14.534,17.944,16.285,12,16.285ZM1,6.394v6.421c.107.307,1.238.924,3.123,1.463A28.817,28.817,0,0,0,12,15.294c6.55,0,10.791-1.883,11-2.507l0-6.393a10.241,10.241,0,0,1-4.319,2.131A25.834,25.834,0,0,1,12,9.343a25.825,25.825,0,0,1-6.682-.818A10.239,10.239,0,0,1,1,6.394Z" transform="translate(0 6.857)" fill="#232e48"/>
    <path id="Fill_3" data-name="Fill 3" d="M.569,12.857A.551.551,0,0,1,0,12.343c0-.368.312-.719.784-1.251A4.68,4.68,0,0,0,2.286,8.4c0-.473-.525-1.087-1.031-1.68A3.965,3.965,0,0,1,0,4.456C0,3.12,1.046,1.944,1.736,1.165A4.305,4.305,0,0,0,2.291.472.518.518,0,0,1,2.859,0a.551.551,0,0,1,.569.515c0,.368-.312.72-.785,1.251a4.688,4.688,0,0,0-1.5,2.691c0,.474.525,1.087,1.031,1.681A3.959,3.959,0,0,1,3.429,8.4c0,1.337-1.046,2.513-1.738,3.291a4.439,4.439,0,0,0-.553.693.518.518,0,0,1-.568.472" transform="translate(9.429)" fill="#232e48"/>
    <path id="Fill_5" data-name="Fill 5" d="M.569,12.857A.551.551,0,0,1,0,12.343c0-.368.312-.719.784-1.251A4.68,4.68,0,0,0,2.286,8.4c0-.473-.525-1.087-1.031-1.68A3.965,3.965,0,0,1,0,4.456C0,3.12,1.046,1.944,1.736,1.165A4.305,4.305,0,0,0,2.291.472.518.518,0,0,1,2.859,0a.551.551,0,0,1,.569.515c0,.368-.312.72-.785,1.251a4.688,4.688,0,0,0-1.5,2.691c0,.474.525,1.087,1.031,1.681A3.959,3.959,0,0,1,3.429,8.4c0,1.337-1.046,2.513-1.738,3.291a4.439,4.439,0,0,0-.553.693.518.518,0,0,1-.568.472" transform="translate(13.714)" fill="#232e48"/>
    <path id="Fill_7" data-name="Fill 7" d="M-.569,12A.538.538,0,0,0,0,11.52c0-.343-.312-.671-.784-1.167a4.3,4.3,0,0,1-1.5-2.511c0-.442.525-1.015,1.031-1.568A3.638,3.638,0,0,0,0,4.159C0,2.912-1.046,1.814-1.736,1.087A4.076,4.076,0,0,1-2.291.441C-2.291.186-2.545,0-2.859,0a.538.538,0,0,0-.569.48c0,.343.312.672.785,1.167a4.308,4.308,0,0,1,1.5,2.511c0,.443-.525,1.015-1.031,1.569A3.633,3.633,0,0,0-3.429,7.841c0,1.247,1.046,2.346,1.738,3.072a4.2,4.2,0,0,1,.553.647c0,.255.254.441.568.441" transform="translate(8.571)" fill="#232e48"/>
  </g>
</svg>
