<svg id="Icon_List" data-name="Icon/List" xmlns="http://www.w3.org/2000/svg" xmlns:xlink="http://www.w3.org/1999/xlink" width="24" height="24" viewBox="0 0 24 24">
  <defs>
    <clipPath id="clip-path">
      <path id="Clip_25" data-name="Clip 25" d="M2.57,20H.854A.936.936,0,0,1,0,19V17a.936.936,0,0,1,.854-1H2.57a.937.937,0,0,1,.859,1v2A.937.937,0,0,1,2.57,20Zm20.57-1H7.712a1.014,1.014,0,0,1,0-2H23.14A.954.954,0,0,1,24,18,.938.938,0,0,1,23.14,19ZM2.57,12H.854A.939.939,0,0,1,0,11V9A.925.925,0,0,1,.854,8H2.57a.938.938,0,0,1,.859,1v2A.941.941,0,0,1,2.57,12Zm20.57-1H7.712a.935.935,0,0,1-.855-1,.939.939,0,0,1,.855-1H23.14A.941.941,0,0,1,24,10,.937.937,0,0,1,23.14,11ZM2.57,4H.854A.936.936,0,0,1,0,3V1A.936.936,0,0,1,.854,0H2.57a.938.938,0,0,1,.859,1V3A.937.937,0,0,1,2.57,4ZM23.14,3H7.712a.937.937,0,0,1-.855-1,.939.939,0,0,1,.855-1H23.14A.952.952,0,0,1,24,2,.939.939,0,0,1,23.14,3Z" transform="translate(0 2)" fill="#232e48"/>
    </clipPath>
  </defs>
  <g id="Group_19" data-name="Group 19">
    <path id="Clip_25-2" data-name="Clip 25" d="M2.57,20H.854A.936.936,0,0,1,0,19V17a.936.936,0,0,1,.854-1H2.57a.937.937,0,0,1,.859,1v2A.937.937,0,0,1,2.57,20Zm20.57-1H7.712a1.014,1.014,0,0,1,0-2H23.14A.954.954,0,0,1,24,18,.938.938,0,0,1,23.14,19ZM2.57,12H.854A.939.939,0,0,1,0,11V9A.925.925,0,0,1,.854,8H2.57a.938.938,0,0,1,.859,1v2A.941.941,0,0,1,2.57,12Zm20.57-1H7.712a.935.935,0,0,1-.855-1,.939.939,0,0,1,.855-1H23.14A.941.941,0,0,1,24,10,.937.937,0,0,1,23.14,11ZM2.57,4H.854A.936.936,0,0,1,0,3V1A.936.936,0,0,1,.854,0H2.57a.938.938,0,0,1,.859,1V3A.937.937,0,0,1,2.57,4ZM23.14,3H7.712a.937.937,0,0,1-.855-1,.939.939,0,0,1,.855-1H23.14A.952.952,0,0,1,24,2,.939.939,0,0,1,23.14,3Z" transform="translate(0 2)" fill="#232e48"/>
  </g>
</svg>
