<svg id="Icon_Chat" data-name="Icon/Chat" xmlns="http://www.w3.org/2000/svg" xmlns:xlink="http://www.w3.org/1999/xlink" width="24" height="24" viewBox="0 0 24 24">
  <defs>
    <clipPath id="clip-path">
      <path id="Clip_45" data-name="Clip 45" d="M4.5,24V18.693A10.025,10.025,0,0,1,0,10.5,9.823,9.823,0,0,1,3.515,3.075,12.835,12.835,0,0,1,12,0a12.837,12.837,0,0,1,8.485,3.075A9.823,9.823,0,0,1,24,10.5c0,5.783-5.383,10.488-12,10.488a10.524,10.524,0,0,1-1.356-.071L4.5,24ZM12,1.5C6.21,1.5,1.5,5.538,1.5,10.5A8.679,8.679,0,0,0,6,17.831v3.908l4.5-2.244H12c5.789,0,10.5-4.033,10.5-8.991S17.789,1.5,12,1.5Zm3.75,12h-7.5a.749.749,0,0,1,0-1.5h7.5a.751.751,0,0,1,.752.749A.761.761,0,0,1,15.75,13.5Zm1.5-4.491H6.751A.757.757,0,0,1,6,8.243.749.749,0,0,1,6.751,7.5h10.5A.749.749,0,0,1,18,8.243.757.757,0,0,1,17.25,9.007Z" fill="#232e48"/>
    </clipPath>
  </defs>
  <g id="Group_25" data-name="Group 25">
    <path id="Clip_45-2" data-name="Clip 45" d="M4.5,24V18.693A10.025,10.025,0,0,1,0,10.5,9.823,9.823,0,0,1,3.515,3.075,12.835,12.835,0,0,1,12,0a12.837,12.837,0,0,1,8.485,3.075A9.823,9.823,0,0,1,24,10.5c0,5.783-5.383,10.488-12,10.488a10.524,10.524,0,0,1-1.356-.071L4.5,24ZM12,1.5C6.21,1.5,1.5,5.538,1.5,10.5A8.679,8.679,0,0,0,6,17.831v3.908l4.5-2.244H12c5.789,0,10.5-4.033,10.5-8.991S17.789,1.5,12,1.5Zm3.75,12h-7.5a.749.749,0,0,1,0-1.5h7.5a.751.751,0,0,1,.752.749A.761.761,0,0,1,15.75,13.5Zm1.5-4.491H6.751A.757.757,0,0,1,6,8.243.749.749,0,0,1,6.751,7.5h10.5A.749.749,0,0,1,18,8.243.757.757,0,0,1,17.25,9.007Z" fill="#232e48"/>
  </g>
</svg>
