<svg xmlns="http://www.w3.org/2000/svg" xmlns:xlink="http://www.w3.org/1999/xlink" width="24" height="24" viewBox="0 0 24 24">
  <defs>
    <clipPath id="clip-path">
      <path id="Clip_287" data-name="Clip 287" d="M22.47,17h-.014L1.418,16.773A1.441,1.441,0,0,1,.4,16.337a1.381,1.381,0,0,1-.4-.988l.094-8.3a.483.483,0,0,1,.482-.485H.583a.476.476,0,0,1,.464.485L.954,15.359a.475.475,0,0,0,.475.474l21.038.226h.005a.475.475,0,0,0,.477-.463l.1-8.549a.484.484,0,0,1,.482-.485A.479.479,0,0,1,24,7.047l-.094,8.559A1.432,1.432,0,0,1,22.47,17ZM12,12.194H11.99a.484.484,0,0,1-.339-.137L6.925,7.314a.453.453,0,0,1-.138-.326.465.465,0,0,1,.142-.335.489.489,0,0,1,.336-.133.483.483,0,0,1,.342.14l3.92,3.929L11.7.463A.474.474,0,0,1,12.171,0h.007a.48.48,0,0,1,.337.142.459.459,0,0,1,.135.332L12.486,10.6l4.008-3.847a.485.485,0,0,1,.335-.132.475.475,0,0,1,.34.14.459.459,0,0,1,.137.33.468.468,0,0,1-.144.335l-4.833,4.636A.476.476,0,0,1,12,12.194Z" transform="translate(0 4)" fill="#232e48"/>
    </clipPath>
  </defs>
  <g id="Icon_Download" data-name="Icon/Download" transform="translate(0)">
    <g id="Group_23" data-name="Group 23">
      <path id="Clip_287-2" data-name="Clip 287" d="M22.47,17h-.014L1.418,16.773A1.441,1.441,0,0,1,.4,16.337a1.381,1.381,0,0,1-.4-.988l.094-8.3a.483.483,0,0,1,.482-.485H.583a.476.476,0,0,1,.464.485L.954,15.359a.475.475,0,0,0,.475.474l21.038.226h.005a.475.475,0,0,0,.477-.463l.1-8.549a.484.484,0,0,1,.482-.485A.479.479,0,0,1,24,7.047l-.094,8.559A1.432,1.432,0,0,1,22.47,17ZM12,12.194H11.99a.484.484,0,0,1-.339-.137L6.925,7.314a.453.453,0,0,1-.138-.326.465.465,0,0,1,.142-.335.489.489,0,0,1,.336-.133.483.483,0,0,1,.342.14l3.92,3.929L11.7.463A.474.474,0,0,1,12.171,0h.007a.48.48,0,0,1,.337.142.459.459,0,0,1,.135.332L12.486,10.6l4.008-3.847a.485.485,0,0,1,.335-.132.475.475,0,0,1,.34.14.459.459,0,0,1,.137.33.468.468,0,0,1-.144.335l-4.833,4.636A.476.476,0,0,1,12,12.194Z" transform="translate(0 4)" fill="#232e48"/>
    </g>
  </g>
</svg>
