<svg xmlns="http://www.w3.org/2000/svg" width="24" height="24" viewBox="0 0 24 24">
  <g id="Icon_Reward" data-name="Icon/Reward" transform="translate(0)">
    <path id="_" data-name="" d="M17.4,24h-.07a.721.721,0,0,1-.385-.106.7.7,0,0,1-.269-.292l-3.905-7.149c-.127.016-.258.028-.386.035s-.257.012-.386.012c-.146,0-.284,0-.42-.012s-.281-.019-.421-.035L7.323,23.6a.7.7,0,0,1-.269.292A.732.732,0,0,1,6.668,24H6.621a.82.82,0,0,1-.409-.153.676.676,0,0,1-.246-.339L4.681,19.922l-3.765.844A.6.6,0,0,1,.5,20.754a.662.662,0,0,1-.328-.27A.7.7,0,0,1,0,20.1a.639.639,0,0,1,.094-.41l4.4-8.039a8.211,8.211,0,0,1-.538-1.629A8.334,8.334,0,0,1,3.769,8.25a8.1,8.1,0,0,1,.643-3.211A8.275,8.275,0,0,1,8.8.644a8.285,8.285,0,0,1,6.407,0,8.21,8.21,0,0,1,2.607,1.769,8.635,8.635,0,0,1,1.766,2.625,7.974,7.974,0,0,1,.654,3.211,7.851,7.851,0,0,1-.187,1.723,9.444,9.444,0,0,1-.514,1.606L23.9,19.688A.628.628,0,0,1,24,20.1a.811.811,0,0,1-.164.41.7.7,0,0,1-.327.247.6.6,0,0,1-.421.012l-3.765-.844-1.286,3.587a.676.676,0,0,1-.246.339A.8.8,0,0,1,17.4,24Zm1.239-10.9a8.571,8.571,0,0,1-1.905,1.876,8.281,8.281,0,0,1-2.42,1.2l2.876,5.25.936-2.649a.856.856,0,0,1,.362-.4.678.678,0,0,1,.342-.094.749.749,0,0,1,.184.024l2.783.633L18.641,13.1ZM5.169,18.281a.677.677,0,0,1,.342.094.86.86,0,0,1,.363.4L6.808,21.4l2.806-5.25a8.336,8.336,0,0,1-2.373-1.172,8.14,8.14,0,0,1-1.859-1.829L2.2,18.938l2.783-.633A.743.743,0,0,1,5.169,18.281ZM12,1.5a6.41,6.41,0,0,0-2.619.539A7.139,7.139,0,0,0,7.241,3.492a6.718,6.718,0,0,0-1.45,2.145,6.748,6.748,0,0,0,0,5.226,6.71,6.71,0,0,0,1.45,2.145,7.159,7.159,0,0,0,2.139,1.453,6.6,6.6,0,0,0,5.226,0,6.969,6.969,0,0,0,2.14-1.453,6.812,6.812,0,0,0,1.438-2.145,6.759,6.759,0,0,0,0-5.226,6.819,6.819,0,0,0-1.438-2.145,6.95,6.95,0,0,0-2.14-1.453A6.431,6.431,0,0,0,12,1.5Z" fill="#232e48"/>
  </g>
</svg>
