<svg id="Icon_Social_TripAdvisor" data-name="Icon/Social/TripAdvisor" xmlns="http://www.w3.org/2000/svg" width="24" height="24" viewBox="0 0 24 24">
  <path id="Combined_Shape" data-name="Combined Shape" d="M13.248,11.8l-1.186,1.98-1.376-1.906A6.07,6.07,0,0,1,0,8.006a5.9,5.9,0,0,1,1.224-3.6A5.507,5.507,0,0,0,.1,2.276H4.252A3.273,3.273,0,0,1,5.64,1.138,13.693,13.693,0,0,1,11.9,0c5.871,0,7.373,1.854,7.614,2.226l.078.019c.04.01.082.02.123.032h3.98a5.258,5.258,0,0,0-1.06,1.943A5.967,5.967,0,0,1,24,8.006,6.073,6.073,0,0,1,13.248,11.8Zm-.18-3.792a4.871,4.871,0,1,0,4.87-4.817A4.849,4.849,0,0,0,13.068,8.006Zm-11.878,0A4.871,4.871,0,1,0,6.062,3.19,4.85,4.85,0,0,0,1.19,8.006Zm10.872-.934c1.163-4.248,4.153-4.707,5.385-4.707a3.72,3.72,0,0,1,.533.033c-.014-.015-1.6-1.705-5.713-1.705h-.41C7.765.693,6.167,2.372,6.142,2.4a.041.041,0,0,1,.018,0,4.15,4.15,0,0,1,.515-.03C7.907,2.365,10.9,2.824,12.062,7.072Zm3.815,2.971a2.859,2.859,0,0,1,0-4.073,2.879,2.879,0,1,1,0,4.073ZM16.508,6.6a1.984,1.984,0,0,0,0,2.824,2,2,0,1,0,0-2.824ZM4,10.043A2.854,2.854,0,0,1,4,5.971a2.879,2.879,0,1,1,0,4.073ZM4.633,6.6a1.978,1.978,0,0,0,0,2.824,2,2,0,1,0,0-2.824ZM16.951,8.006a.986.986,0,1,1,.986.977A.98.98,0,0,1,16.951,8.006Zm-11.877,0a.987.987,0,1,1,.987.977A.979.979,0,0,1,5.074,8.006Z" transform="translate(0 5)" fill="#232e48"/>
</svg>
