<svg id="Icon_Amenity_Transit" data-name="Icon/Amenity/Transit" xmlns="http://www.w3.org/2000/svg" width="24" height="24" viewBox="0 0 24 24">
  <path id="Stroke_61" data-name="Stroke 61" d="M14.82,24a.67.67,0,0,1-.6-.381l-.833-1.7H5.617l-.835,1.7a.666.666,0,0,1-.6.381.659.659,0,0,1-.3-.074.7.7,0,0,1-.3-.923L5.54,19H1.357A1.373,1.373,0,0,1,0,17.615V1.385A1.373,1.373,0,0,1,1.357,0H17.643A1.373,1.373,0,0,1,19,1.385v16.23A1.373,1.373,0,0,1,17.643,19H13.46l1.963,4a.694.694,0,0,1-.3.923A.659.659,0,0,1,14.82,24Zm-7.8-5c0,.012-.006.024-.008.037A.248.248,0,0,1,7,19.1l-.706,1.439h6.418L12,19.1a.277.277,0,0,1-.019-.065c0-.013-.005-.025-.009-.037Zm9.261-4.16a1.385,1.385,0,1,0,1.357,1.385A1.373,1.373,0,0,0,16.285,14.84Zm-11.233,0a2.744,2.744,0,0,1,0,2.77h8.895a2.738,2.738,0,0,1,0-2.77H5.053Zm-2.338,0a1.385,1.385,0,0,0,0,2.77,1.385,1.385,0,0,0,0-2.77ZM1.357,6.924v6.533H17.643V6.924Zm.679-5.539a.686.686,0,0,0-.679.692V5.54H17.643V2.077a.686.686,0,0,0-.678-.692ZM12.213,4.154H6.785V2.769h5.428V4.153Z" transform="translate(2)" fill="#232e48"/>
</svg>
