<svg id="Icon_Policies" data-name="Icon/Policies" xmlns="http://www.w3.org/2000/svg" xmlns:xlink="http://www.w3.org/1999/xlink" width="24" height="24" viewBox="0 0 24 24">
  <defs>
    <clipPath id="clip-path">
      <path id="Clip_110" data-name="Clip 110" d="M21.75,24H2.25A2.252,2.252,0,0,1,0,21.751V8.248A2.253,2.253,0,0,1,2.25,6H4.5V2.246A2.25,2.25,0,0,1,6.749,0h15A2.25,2.25,0,0,1,24,2.246V21.751A2.252,2.252,0,0,1,21.75,24ZM2.25,7.5a.752.752,0,0,0-.752.751v13.5a.749.749,0,0,0,.752.745h19.5a.749.749,0,0,0,.751-.745V2.246A.75.75,0,0,0,21.75,1.5h-15A.75.75,0,0,0,6,2.246V21H4.5V7.5ZM21,16.5H7.5V15H21v1.5ZM21,12H7.5V10.5H21V12Zm0-4.5H7.5V6H21V7.5Z" fill="#232e48"/>
    </clipPath>
  </defs>
  <g id="Group_10" data-name="Group 10">
    <path id="Clip_110-2" data-name="Clip 110" d="M21.75,24H2.25A2.252,2.252,0,0,1,0,21.751V8.248A2.253,2.253,0,0,1,2.25,6H4.5V2.246A2.25,2.25,0,0,1,6.749,0h15A2.25,2.25,0,0,1,24,2.246V21.751A2.252,2.252,0,0,1,21.75,24ZM2.25,7.5a.752.752,0,0,0-.752.751v13.5a.749.749,0,0,0,.752.745h19.5a.749.749,0,0,0,.751-.745V2.246A.75.75,0,0,0,21.75,1.5h-15A.75.75,0,0,0,6,2.246V21H4.5V7.5ZM21,16.5H7.5V15H21v1.5ZM21,12H7.5V10.5H21V12Zm0-4.5H7.5V6H21V7.5Z" fill="#232e48"/>
  </g>
</svg>
