<svg id="Icon_Amenity_Electric_Kettle" data-name="Icon/Amenity/Electric Kettle" xmlns="http://www.w3.org/2000/svg" xmlns:xlink="http://www.w3.org/1999/xlink" width="24" height="24" viewBox="0 0 24 24">
  <defs>
    <clipPath id="clip-path">
      <path id="Clip_279" data-name="Clip 279" d="M13.439,20H8.64a5.745,5.745,0,0,1-5.761-5.715V12.379H2.4a2.38,2.38,0,1,1,0-4.76h.733A7.649,7.649,0,0,1,9.6,1.97V.951A.958.958,0,0,1,10.56,0h.959a.957.957,0,0,1,.961.951V1.97A7.667,7.667,0,0,1,19,7.817l.739-.734a1.464,1.464,0,0,1,1.018-.418h2.762a.478.478,0,0,1,.339.816l-1.78,1.091c-.769.763-2.858,5.664-2.879,5.713A5.744,5.744,0,0,1,13.439,20ZM4.124,7.619h0a6.554,6.554,0,0,0-.283,1.9v4.763a4.787,4.787,0,0,0,4.8,4.764h4.8a4.789,4.789,0,0,0,4.8-4.764V9.522a6.527,6.527,0,0,0-.287-1.9H8.64V8.85l1.781,1.767a.472.472,0,0,1,.139.336V13.81a.478.478,0,0,1-.479.475H6.24a.478.478,0,0,1-.479-.475V10.952a.472.472,0,0,1,.139-.336L7.681,8.85V7.619H4.124Zm4.037,2.1L6.72,11.149v2.185H9.6V11.149L8.161,9.719Zm12.6-2.1a.5.5,0,0,0-.339.139L19.173,8.992c.015.2.026.36.026.53v2.389A19.607,19.607,0,0,1,21.4,7.9a.764.764,0,0,1,.174-.137l.233-.142ZM2.4,8.572a1.428,1.428,0,1,0,0,2.857h.479V9.522a8.265,8.265,0,0,1,.066-.95ZM10.56,2.857A6.756,6.756,0,0,0,4.5,6.664H17.581a6.761,6.761,0,0,0-6.062-3.808Zm0-1.905V1.9h.959V.951Z" transform="translate(0 2)" fill="#232e48"/>
    </clipPath>
  </defs>
  <g id="Group_36" data-name="Group 36">
    <path id="Clip_279-2" data-name="Clip 279" d="M13.439,20H8.64a5.745,5.745,0,0,1-5.761-5.715V12.379H2.4a2.38,2.38,0,1,1,0-4.76h.733A7.649,7.649,0,0,1,9.6,1.97V.951A.958.958,0,0,1,10.56,0h.959a.957.957,0,0,1,.961.951V1.97A7.667,7.667,0,0,1,19,7.817l.739-.734a1.464,1.464,0,0,1,1.018-.418h2.762a.478.478,0,0,1,.339.816l-1.78,1.091c-.769.763-2.858,5.664-2.879,5.713A5.744,5.744,0,0,1,13.439,20ZM4.124,7.619h0a6.554,6.554,0,0,0-.283,1.9v4.763a4.787,4.787,0,0,0,4.8,4.764h4.8a4.789,4.789,0,0,0,4.8-4.764V9.522a6.527,6.527,0,0,0-.287-1.9H8.64V8.85l1.781,1.767a.472.472,0,0,1,.139.336V13.81a.478.478,0,0,1-.479.475H6.24a.478.478,0,0,1-.479-.475V10.952a.472.472,0,0,1,.139-.336L7.681,8.85V7.619H4.124Zm4.037,2.1L6.72,11.149v2.185H9.6V11.149L8.161,9.719Zm12.6-2.1a.5.5,0,0,0-.339.139L19.173,8.992c.015.2.026.36.026.53v2.389A19.607,19.607,0,0,1,21.4,7.9a.764.764,0,0,1,.174-.137l.233-.142ZM2.4,8.572a1.428,1.428,0,1,0,0,2.857h.479V9.522a8.265,8.265,0,0,1,.066-.95ZM10.56,2.857A6.756,6.756,0,0,0,4.5,6.664H17.581a6.761,6.761,0,0,0-6.062-3.808Zm0-1.905V1.9h.959V.951Z" transform="translate(0 2)" fill="#232e48"/>
  </g>
</svg>
