<svg id="Icon_Map" data-name="Icon/Map" xmlns="http://www.w3.org/2000/svg" xmlns:xlink="http://www.w3.org/1999/xlink" width="24" height="24" viewBox="0 0 24 24">
  <defs>
    <clipPath id="clip-path">
      <path id="Clip_202" data-name="Clip 202" d="M7.826,24a1.6,1.6,0,0,1-.4-.051l-6.26-1.595A1.513,1.513,0,0,1,0,20.906V1.9A1.536,1.536,0,0,1,1.564.4a1.7,1.7,0,0,1,.41.05L7.422,1.841a1.881,1.881,0,0,0,.4.045,1.689,1.689,0,0,0,.433-.053L14.743.059A1.631,1.631,0,0,1,15.578.05l6.26,1.6A1.521,1.521,0,0,1,23,3.1V22.1a1.536,1.536,0,0,1-1.564,1.5,1.5,1.5,0,0,1-.409-.055l-5.449-1.389a1.753,1.753,0,0,0-.406-.047,1.615,1.615,0,0,0-.429.054L8.258,23.945A1.651,1.651,0,0,1,7.826,24Zm6.81-23L8.545,2.688a.606.606,0,0,1-.1.013.717.717,0,0,0-.084.01V23l6.091-1.685a.563.563,0,0,1,.1-.013.648.648,0,0,0,.081-.009ZM1.564,1.545a.529.529,0,0,0-.363.14.461.461,0,0,0-.157.349V20.606a.492.492,0,0,0,.389.471l5.883,1.467V2.939A.62.62,0,0,0,7.24,2.93a.6.6,0,0,1-.089-.01L1.7,1.562A.556.556,0,0,0,1.564,1.545Zm14.117-.175v19.6a.621.621,0,0,0,.083.01.593.593,0,0,1,.082.01l5.452,1.36a.426.426,0,0,0,.139.019.505.505,0,0,0,.517-.49V3.312a.5.5,0,0,0-.387-.473Z" fill="#232e48"/>
    </clipPath>
  </defs>
  <g id="Group_17" data-name="Group 17">
    <path id="Clip_202-2" data-name="Clip 202" d="M7.826,24a1.6,1.6,0,0,1-.4-.051l-6.26-1.595A1.513,1.513,0,0,1,0,20.906V1.9A1.536,1.536,0,0,1,1.564.4a1.7,1.7,0,0,1,.41.05L7.422,1.841a1.881,1.881,0,0,0,.4.045,1.689,1.689,0,0,0,.433-.053L14.743.059A1.631,1.631,0,0,1,15.578.05l6.26,1.6A1.521,1.521,0,0,1,23,3.1V22.1a1.536,1.536,0,0,1-1.564,1.5,1.5,1.5,0,0,1-.409-.055l-5.449-1.389a1.753,1.753,0,0,0-.406-.047,1.615,1.615,0,0,0-.429.054L8.258,23.945A1.651,1.651,0,0,1,7.826,24Zm6.81-23L8.545,2.688a.606.606,0,0,1-.1.013.717.717,0,0,0-.084.01V23l6.091-1.685a.563.563,0,0,1,.1-.013.648.648,0,0,0,.081-.009ZM1.564,1.545a.529.529,0,0,0-.363.14.461.461,0,0,0-.157.349V20.606a.492.492,0,0,0,.389.471l5.883,1.467V2.939A.62.62,0,0,0,7.24,2.93a.6.6,0,0,1-.089-.01L1.7,1.562A.556.556,0,0,0,1.564,1.545Zm14.117-.175v19.6a.621.621,0,0,0,.083.01.593.593,0,0,1,.082.01l5.452,1.36a.426.426,0,0,0,.139.019.505.505,0,0,0,.517-.49V3.312a.5.5,0,0,0-.387-.473Z" fill="#232e48"/>
  </g>
</svg>
