<svg id="Icon_Amenity_Charger" data-name="Icon/Amenity/Charger" xmlns="http://www.w3.org/2000/svg" xmlns:xlink="http://www.w3.org/1999/xlink" width="24" height="24" viewBox="0 0 24 24">
  <defs>
    <clipPath id="clip-path">
      <path id="Clip_263" data-name="Clip 263" d="M7.15,24a.528.528,0,0,1-.551-.5V17H4.4v6.5a.528.528,0,0,1-.551.5.529.529,0,0,1-.552-.5V17a1.054,1.054,0,0,1-1.1-1V15a.238.238,0,0,1,.013-.067.3.3,0,0,0,.013-.058,1.724,1.724,0,0,1-.509-.314L.484,13.438A1.43,1.43,0,0,1,0,12.379V6.5A1.518,1.518,0,0,1,1.1,5.09V1.5A1.582,1.582,0,0,1,2.749,0h5.5A1.582,1.582,0,0,1,9.9,1.5V5.09A1.519,1.519,0,0,1,11,6.5v5.88a1.43,1.43,0,0,1-.484,1.059L9.283,14.56a1.733,1.733,0,0,1-.509.314.283.283,0,0,0,.013.058A.23.23,0,0,1,8.8,15v1a1.055,1.055,0,0,1-1.1,1v6.5A.528.528,0,0,1,7.15,24ZM3.3,15v1H7.7V15ZM1.65,6a.528.528,0,0,0-.551.5v5.88a.5.5,0,0,0,.16.355L2.5,13.853A.573.573,0,0,0,2.883,14H8.117a.573.573,0,0,0,.387-.149l1.234-1.119a.5.5,0,0,0,.163-.355V6.5A.528.528,0,0,0,9.35,6H1.65ZM6.6,3H7.7V5H8.8V1.5A.527.527,0,0,0,8.251,1h-5.5a.526.526,0,0,0-.547.5V5H3.3V3H4.4V5H6.6V3Z" transform="translate(6)" fill="#232e48"/>
    </clipPath>
  </defs>
  <g id="Group_38" data-name="Group 38">
    <path id="Clip_263-2" data-name="Clip 263" d="M7.15,24a.528.528,0,0,1-.551-.5V17H4.4v6.5a.528.528,0,0,1-.551.5.529.529,0,0,1-.552-.5V17a1.054,1.054,0,0,1-1.1-1V15a.238.238,0,0,1,.013-.067.3.3,0,0,0,.013-.058,1.724,1.724,0,0,1-.509-.314L.484,13.438A1.43,1.43,0,0,1,0,12.379V6.5A1.518,1.518,0,0,1,1.1,5.09V1.5A1.582,1.582,0,0,1,2.749,0h5.5A1.582,1.582,0,0,1,9.9,1.5V5.09A1.519,1.519,0,0,1,11,6.5v5.88a1.43,1.43,0,0,1-.484,1.059L9.283,14.56a1.733,1.733,0,0,1-.509.314.283.283,0,0,0,.013.058A.23.23,0,0,1,8.8,15v1a1.055,1.055,0,0,1-1.1,1v6.5A.528.528,0,0,1,7.15,24ZM3.3,15v1H7.7V15ZM1.65,6a.528.528,0,0,0-.551.5v5.88a.5.5,0,0,0,.16.355L2.5,13.853A.573.573,0,0,0,2.883,14H8.117a.573.573,0,0,0,.387-.149l1.234-1.119a.5.5,0,0,0,.163-.355V6.5A.528.528,0,0,0,9.35,6H1.65ZM6.6,3H7.7V5H8.8V1.5A.527.527,0,0,0,8.251,1h-5.5a.526.526,0,0,0-.547.5V5H3.3V3H4.4V5H6.6V3Z" transform="translate(6)" fill="#232e48"/>
  </g>
</svg>
