<svg id="Icon_Personal_Details" data-name="Icon/Personal Details" xmlns="http://www.w3.org/2000/svg" xmlns:xlink="http://www.w3.org/1999/xlink" width="24" height="24" viewBox="0 0 24 24">
  <defs>
    <clipPath id="clip-path">
      <path id="Clip_303" data-name="Clip 303" d="M22.956,21H1.044A1.023,1.023,0,0,1,0,20V3A1.025,1.025,0,0,1,1.044,2H22.956A1.025,1.025,0,0,1,24,3V20A1.023,1.023,0,0,1,22.956,21ZM1.044,3V20H22.956V3Zm15.6,14H7.357c-.005-.042-.011-.084-.017-.127a2.741,2.741,0,0,1-.034-.374A4.6,4.6,0,0,1,12,12a4.606,4.606,0,0,1,4.7,4.5,2.462,2.462,0,0,1-.036.363c-.007.046-.014.091-.019.137ZM12,13a3.623,3.623,0,0,0-3.615,3h7.23A3.623,3.623,0,0,0,12,13Zm0-2A2.559,2.559,0,0,1,9.392,8.5a2.611,2.611,0,0,1,5.217,0A2.558,2.558,0,0,1,12,11Zm0-4a1.5,1.5,0,1,0,1.564,1.5A1.537,1.537,0,0,0,12,7ZM15.13,1H8.87A.509.509,0,0,1,8.35.5.511.511,0,0,1,8.87,0h6.26a.513.513,0,0,1,.524.5A.511.511,0,0,1,15.13,1Z" transform="translate(0 1)" fill="#232e48"/>
    </clipPath>
  </defs>
  <g id="Group_12" data-name="Group 12">
    <path id="Clip_303-2" data-name="Clip 303" d="M22.956,21H1.044A1.023,1.023,0,0,1,0,20V3A1.025,1.025,0,0,1,1.044,2H22.956A1.025,1.025,0,0,1,24,3V20A1.023,1.023,0,0,1,22.956,21ZM1.044,3V20H22.956V3Zm15.6,14H7.357c-.005-.042-.011-.084-.017-.127a2.741,2.741,0,0,1-.034-.374A4.6,4.6,0,0,1,12,12a4.606,4.606,0,0,1,4.7,4.5,2.462,2.462,0,0,1-.036.363c-.007.046-.014.091-.019.137ZM12,13a3.623,3.623,0,0,0-3.615,3h7.23A3.623,3.623,0,0,0,12,13Zm0-2A2.559,2.559,0,0,1,9.392,8.5a2.611,2.611,0,0,1,5.217,0A2.558,2.558,0,0,1,12,11Zm0-4a1.5,1.5,0,1,0,1.564,1.5A1.537,1.537,0,0,0,12,7ZM15.13,1H8.87A.509.509,0,0,1,8.35.5.511.511,0,0,1,8.87,0h6.26a.513.513,0,0,1,.524.5A.511.511,0,0,1,15.13,1Z" transform="translate(0 1)" fill="#232e48"/>
  </g>
</svg>
