<?xml version="1.0" encoding="UTF-8"?>
<svg width="35px" height="34px" viewBox="0 0 35 34" version="1.1" xmlns="http://www.w3.org/2000/svg" xmlns:xlink="http://www.w3.org/1999/xlink">
    <!-- Generator: sketchtool 54 (76480) - https://sketchapp.com -->
    <title>8559D455-617A-4C6A-8C6A-830C2345B260</title>
    <desc>Created with sketchtool.</desc>
    <g id="Asset-Artboard-Page" stroke="none" stroke-width="1" fill="none" fill-rule="evenodd">
        <g id="Icon/Social/Wechat" transform="translate(0.980805, 0.000000)">
            <g id="line-messenger">
                <path d="M16.9418342,1.83803872 C26.1215944,1.83803872 33.563217,7.79697328 33.563217,15.1476891 C33.563217,17.7152587 32.6546315,20.1125285 31.0817567,22.1456924 C31.0039225,22.2614243 30.9022223,22.3892691 30.7740177,22.530546 L30.7643034,22.5410998 C30.2270195,23.1839217 29.6219754,23.7874066 28.9567267,24.3444789 C24.3603105,28.5929797 16.7946808,33.6511242 15.7961482,32.8707432 C14.9280988,32.1924223 17.2258272,28.874574 14.5749066,28.3224189 C14.3899753,28.3011913 14.2055238,28.2784047 14.0226314,28.2525 L14.0191535,28.2522601 L14.0191535,28.2520203 C6.23321341,27.145911 0.320571424,21.6997947 0.320571424,15.1476891 C0.320331565,7.79697328 7.76207409,1.83803872 16.9418342,1.83803872 L16.9418342,1.83803872 Z" id="Path" fill="#3ACE01"></path>
                <path d="M7.29806682,19.3930724 L10.6503349,19.3930724 C11.1271744,19.3930724 11.517185,19.0029419 11.517185,18.5261024 L11.517185,18.4537849 C11.517185,17.9769454 11.1271744,17.5869348 10.6503349,17.5869348 L8.23723438,17.5869348 L8.23723438,12.0966844 C8.23723438,11.6198449 7.84722379,11.2298343 7.37038428,11.2298343 L7.29806682,11.2298343 C6.8212273,11.2298343 6.43121672,11.6198449 6.43121672,12.0966844 L6.43121672,18.5259825 C6.43121672,19.0029419 6.8212273,19.3930724 7.29806682,19.3930724 L7.29806682,19.3930724 Z M28.0704476,15.3630828 L28.0704476,15.2907654 C28.0704476,14.8139259 27.680317,14.4239153 27.2034775,14.4239153 L24.7904969,14.4239153 L24.7904969,13.0513228 L27.2034775,13.0513228 C27.680317,13.0513228 28.0704476,12.6613122 28.0704476,12.1844727 L28.0704476,12.1121553 C28.0704476,11.6353158 27.680317,11.2453052 27.2034775,11.2453052 L23.8512094,11.2453052 C23.3743699,11.2453052 22.9843593,11.6353158 22.9843593,12.1121553 L22.9843593,18.5414531 C22.9843593,19.0182926 23.3743699,19.4084231 23.8512094,19.4084231 L27.2034775,19.4084231 C27.680317,19.4084231 28.0704476,19.0182926 28.0704476,18.5414531 L28.0704476,18.4691356 C28.0704476,17.9922961 27.680317,17.6022856 27.2034775,17.6022856 L24.7904969,17.6022856 L24.7904969,16.229693 L27.2034775,16.229693 C27.680317,16.2299329 28.0704476,15.8398024 28.0704476,15.3630828 L28.0704476,15.3630828 Z M21.62364,19.1346241 L21.6238799,19.1342643 C21.7842902,18.9725315 21.8743696,18.7540135 21.8745325,18.526222 L21.8745325,12.0969242 C21.8745325,11.6200847 21.4845219,11.2300742 21.0075624,11.2300742 L20.935245,11.2300742 C20.4584055,11.2300742 20.0683949,11.6200847 20.0683949,12.0969242 L20.0683949,15.870984 L16.935118,11.6684163 C16.7854461,11.40709 16.5036118,11.2300742 16.1824408,11.2300742 L16.1101233,11.2300742 C15.6332838,11.2300742 15.2431533,11.6200847 15.2431533,12.0969242 L15.2431533,18.526222 C15.2431533,19.0030615 15.6331639,19.393192 16.1101233,19.393192 L16.1824408,19.393192 C16.6592803,19.393192 17.0492909,19.0030615 17.0492909,18.526222 L17.0492909,14.6815238 L20.2051145,18.9919081 C20.224543,19.0221303 20.2457706,19.0511532 20.2686771,19.078737 L20.268797,19.0789769 C20.355506,19.1972273 20.4741162,19.2782996 20.6062785,19.3278305 C20.7078587,19.3698058 20.8189134,19.3930721 20.9351251,19.3930721 L21.0074425,19.3930721 C21.1487129,19.393151 21.2878218,19.358384 21.4124443,19.2918516 C21.4991533,19.2505959 21.5721903,19.1973472 21.62364,19.1346241 L21.62364,19.1346241 Z M13.0837036,19.3930721 L13.156021,19.3930721 C13.6328605,19.3930721 14.0228711,19.0029416 14.0228711,18.5261021 L14.0228711,12.0968043 C14.0228711,11.6199648 13.6328605,11.2299542 13.156021,11.2299542 L13.0837036,11.2299542 C12.6068641,11.2299542 12.2167336,11.6199648 12.2167336,12.0968043 L12.2167336,18.5261021 C12.2167336,19.0029416 12.6068641,19.3930721 13.0837036,19.3930721 Z" id="Shape" fill="#FFFFFF"></path>
            </g>
        </g>
    </g>
</svg>