<?xml version="1.0" encoding="utf-8"?>
<!-- Generator: Adobe Illustrator 24.0.0, SVG Export Plug-In . SVG Version: 6.00 Build 0)  -->
<svg version="1.1" id="レイヤー_1" xmlns="http://www.w3.org/2000/svg" xmlns:xlink="http://www.w3.org/1999/xlink" x="0px"
	 y="0px" width="115.7px" height="38px" viewBox="0 0 115.7 38" style="enable-background:new 0 0 115.7 38;" xml:space="preserve">
<style type="text/css">
	.st0{fill:#231f20;}
</style>
<g>
	<g>
		<path class="st0" d="M5.3,8.1L5.3,8.1l-2.5,14H0L4.4,0l7.3,16.7L18.9,0l4.3,22.1h-2.7L18,8.1l0,0l-6.4,14.4L5.3,8.1z"/>
		<path class="st0" d="M23.7,0.9h3l5.2,9.1l5.2-9.1h3l-6.9,12v9.2h-2.6v-9.2L23.7,0.9z"/>
		<path class="st0" d="M51.4,4.9c-0.8-1.3-1.8-2-3.4-2c-1.7,0-3.5,1.1-3.5,3c0,1.7,1.6,2.5,2.9,3l1.5,0.6c3,1.2,5.2,2.8,5.2,6.4
			c0,3.9-3,6.6-6.8,6.6c-3.4,0-6.1-2.5-6.5-5.9l2.7-0.6c0,2.3,1.8,4,4.1,4s3.9-1.9,3.9-4.1c0-2.3-1.8-3.3-3.7-4l-1.5-0.6
			c-2.4-1-4.6-2.4-4.6-5.4c0-3.4,3-5.5,6.2-5.5c2.4,0,4.3,1.1,5.4,3.2L51.4,4.9z"/>
		<path class="st0" d="M62.8,22.1h-2.6V3.3h-5V0.9h12.7v2.4h-5v18.8H62.8z"/>
		<path class="st0" d="M72.3,16.8l-2.4,5.3h-2.8L77.2,0l10.1,22.1h-2.8L82,16.8H72.3z M77.2,5.8l-3.8,8.6h7.5L77.2,5.8z"/>
		<path class="st0" d="M85.2,0.9h3l5.2,9.1l5.2-9.1h3l-6.9,12v9.2h-2.6v-9.2L85.2,0.9z"/>
		<path class="st0" d="M112.9,4.9c-0.8-1.3-1.8-2-3.4-2c-1.7,0-3.5,1.1-3.5,3c0,1.7,1.6,2.5,2.9,3l1.5,0.6c3,1.2,5.3,2.8,5.3,6.4
			c0,3.9-3,6.6-6.8,6.6c-3.4,0-6.1-2.5-6.5-5.9l2.7-0.6c0,2.3,1.8,4,4.1,4c2.3,0,3.9-1.9,3.9-4.1c0-2.3-1.8-3.3-3.7-4l-1.5-0.6
			c-2.4-1-4.6-2.4-4.6-5.4c0-3.4,3-5.5,6.2-5.5c2.4,0,4.3,1.1,5.5,3.2L112.9,4.9z"/>
	</g>
	<g>
		<polyline class="st0" points="51.7,33.2 51.7,30 52.7,30 52.7,37.8 51.7,37.8 51.7,34.1 48,34.1 48,37.8 47,37.8 47,30 48,30
			48,33.2 51.7,33.2 		"/>
		<path class="st0" d="M61.7,33.9c0,2.3-1.8,4-4.1,4s-4.1-1.7-4.1-4c0-2.2,1.8-4,4.1-4S61.7,31.7,61.7,33.9 M60.7,33.9
			c0-1.7-1.3-3.1-3.1-3.1s-3.1,1.4-3.1,3.1c0,1.8,1.4,3.2,3.1,3.2C59.3,37.1,60.7,35.7,60.7,33.9z"/>
		<polyline class="st0" points="64.5,37.8 63.5,37.8 63.5,30.9 61.7,30.9 61.7,30 66.3,30 66.3,30.9 64.5,30.9 64.5,37.8 		"/>
		<polyline class="st0" points="67.1,30 71.3,30 71.3,30.9 68.1,30.9 68.1,33.1 71.2,33.1 71.2,34 68.1,34 68.1,36.9 71.3,36.9
			71.3,37.8 67.1,37.8 67.1,30 		"/>
		<polyline class="st0" points="73.4,36.9 75.8,36.9 75.8,37.8 72.5,37.8 72.5,30 73.4,30 73.4,36.9 		"/>
		<polyline class="st0" points="2,32.7 1.9,32.7 1,37.8 0,37.8 1.6,29.7 4.3,35.8 7,29.7 8.5,37.8 7.5,37.8 6.6,32.7 6.6,32.7
			4.3,38 2,32.7 		"/>
		<polyline class="st0" points="8.7,30 9.8,30 11.7,33.4 13.6,30 14.8,30 12.2,34.5 12.2,37.8 11.2,37.8 11.2,34.5 8.7,30 		"/>
		<path class="st0" d="M18.9,31.5c-0.3-0.5-0.7-0.7-1.2-0.7c-0.6,0-1.3,0.4-1.3,1.1c0,0.6,0.6,0.9,1.1,1.1l0.6,0.2
			c1.1,0.4,1.9,1,1.9,2.3c0,1.4-1.1,2.4-2.5,2.4c-1.3,0-2.2-0.9-2.4-2.2l1-0.2c0,0.9,0.7,1.5,1.5,1.5s1.4-0.7,1.4-1.5
			s-0.7-1.2-1.3-1.5L17,33.9c-0.9-0.4-1.7-0.9-1.7-2c0-1.3,1.1-2,2.3-2c0.9,0,1.6,0.4,2,1.2L18.9,31.5"/>
		<polyline class="st0" points="23.1,37.8 22.1,37.8 22.1,30.9 20.2,30.9 20.2,30 24.9,30 24.9,30.9 23.1,30.9 23.1,37.8 		"/>
		<path class="st0" d="M26.6,35.9l-0.9,2h-1l3.7-8.1l3.7,8.1h-1l-0.9-2H26.6 M28.3,31.9L27,35h2.8L28.3,31.9z"/>
		<polyline class="st0" points="31.3,30 32.4,30 34.3,33.4 36.2,30 37.3,30 34.8,34.5 34.8,37.8 33.8,37.8 33.8,34.5 31.3,30 		"/>
		<path class="st0" d="M41.4,31.5c-0.3-0.5-0.7-0.7-1.2-0.7c-0.6,0-1.3,0.4-1.3,1.1c0,0.6,0.6,0.9,1.1,1.1l0.6,0.2
			c1.1,0.4,1.9,1,1.9,2.3c0,1.4-1.1,2.4-2.5,2.4c-1.3,0-2.2-0.9-2.4-2.2l1-0.2c0,0.9,0.7,1.5,1.5,1.5s1.4-0.7,1.4-1.5
			s-0.7-1.2-1.3-1.5l-0.5-0.2c-0.9-0.4-1.7-0.9-1.7-2c0-1.3,1.1-2,2.3-2c0.9,0,1.6,0.4,2,1.2L41.4,31.5"/>
		<g>
			<path class="st0" d="M87.6,33.7V34c0,2.2-1.6,3.9-3.8,3.9s-4.1-2-4.1-4.2c0-2.3,1.9-4.2,4.2-4.2c1.3,0,2.5,0.6,3.3,1.6l-0.7,0.7
				c-0.6-0.8-1.6-1.3-2.6-1.3c-1.8,0-3.2,1.5-3.2,3.3c0,1.7,1.4,3.3,3.2,3.3c1.3,0,2.6-1.1,2.7-2.4h-2.1v-0.9
				C84.4,33.7,87.6,33.7,87.6,33.7z"/>
			<path class="st0" d="M93.8,37.8h-1.2l-2.4-3.4h-0.4v3.4h-1v-8.1H90c0.7,0,1.5,0,2.1,0.4c0.7,0.4,1.1,1.2,1.1,1.9
				c0,1.2-0.8,2.1-1.9,2.3L93.8,37.8z M89.7,33.6H90c1,0,2.2-0.2,2.2-1.5S91,30.6,90,30.6h-0.3V33.6L89.7,33.6z"/>
			<path class="st0" d="M102.7,33.8c0,2.4-1.9,4.2-4.2,4.2s-4.2-1.8-4.2-4.2c0-2.3,1.9-4.2,4.2-4.2
				C100.7,29.5,102.7,31.5,102.7,33.8z M101.6,33.8c0-1.8-1.3-3.3-3.2-3.3c-1.9,0-3.2,1.5-3.2,3.3s1.5,3.3,3.2,3.3
				S101.6,35.6,101.6,33.8z"/>
			<path class="st0" d="M104.7,29.7v4.8c0,1.3,0.4,2.5,2,2.5s2-1.2,2-2.5v-4.8h1v5.1c0,1.8-1.1,3.2-3,3.2s-3-1.4-3-3.2v-5.1
				C103.6,29.7,104.7,29.7,104.7,29.7z"/>
			<path class="st0" d="M112.2,37.8h-1v-8.1h1.2c2.5,0,3.3,0.9,3.3,2.3c0,1.7-1.3,2.4-2.8,2.4h-0.6L112.2,37.8L112.2,37.8z
				 M112.2,33.5h0.3c1,0,2.1-0.2,2.1-1.5s-1.2-1.4-2.2-1.4h-0.3L112.2,33.5L112.2,33.5z"/>
		</g>
	</g>
</g>
</svg>
