<?xml version="1.0" encoding="UTF-8"?>
<svg width="35px" height="34px" viewBox="0 0 35 34" version="1.1" xmlns="http://www.w3.org/2000/svg" xmlns:xlink="http://www.w3.org/1999/xlink">
    <!-- Generator: sketchtool 54 (76480) - https://sketchapp.com -->
    <title>A7B1EA70-EAD6-4DFA-906F-8F8AC11DDEA0</title>
    <desc>Created with sketchtool.</desc>
    <g id="Asset-Artboard-Page" stroke="none" stroke-width="1" fill="none" fill-rule="evenodd">
        <g id="Icon/Social/Wechat" transform="translate(0.980805, 0.000000)" fill="#36C637" fill-rule="nonzero">
            <g id="whatsapp-icon">
                <path d="M28.9873521,5.08104488 C25.9240826,2.0152125 21.8502685,0.325949328 17.5098449,0.324226131 C8.56680684,0.324226131 1.28824432,7.60000526 1.28466538,16.543132 C1.28351658,19.4018273 2.03063287,22.1923017 3.45045869,24.6519664 L1.1486212,33.0571465 L9.74980356,30.8016585 C12.1196852,32.093791 14.7878125,32.7747631 17.503394,32.7759119 L17.5100659,32.7759119 C26.4522203,32.7759119 33.7314456,25.4992491 33.7350687,16.5560339 C33.7367919,12.2221054 32.0507101,8.14687726 28.9873521,5.08104488 Z M17.5100661,30.0365156 L17.504543,30.0365156 C15.0846886,30.0355877 12.7112721,29.3857216 10.6407407,28.1573914 L10.1482599,27.8652433 L5.04419499,29.2037255 L6.40658092,24.2289001 L6.08584539,23.7188338 C4.73591949,21.5723931 4.02295784,19.0914314 4.02401827,16.5441928 C4.02693445,9.11107237 10.0766367,3.06366735 17.5152798,3.06366735 C21.1172473,3.06503707 24.5032407,4.46922165 27.0493745,7.01738808 C29.5955083,9.56555452 30.9969092,12.9527853 30.9955836,16.5550181 C30.9926674,23.9887571 24.9430094,30.0365156 17.5100661,30.0365156 L17.5100661,30.0365156 Z M24.9072207,19.9396855 C24.5017392,19.7368343 22.5086189,18.7563353 22.1369828,18.6210865 C21.7653908,18.4857934 21.4951582,18.4181911 21.224793,18.8239818 C20.9546046,19.2296842 20.1776637,20.1425809 19.9410997,20.4130345 C19.704624,20.6835322 19.4681484,20.7173775 19.0627552,20.5144822 C18.6573179,20.311631 17.3510463,19.8836595 15.802555,18.502937 C14.5974217,17.4284133 13.7837193,16.1011099 13.5472436,15.6953191 C13.310768,15.2895725 13.5221026,15.0702847 13.7250422,14.8681846 C13.9073918,14.6866303 14.1304354,14.3948357 14.333154,14.1581833 C14.5358285,13.9215751 14.6034308,13.7524367 14.7385471,13.4819832 C14.8737076,13.2114854 14.8061053,12.9747889 14.704746,12.7719377 C14.6034308,12.5690865 13.7926004,10.5742431 13.4547654,9.76279411 C13.1257232,8.97250952 12.791423,9.07943609 12.5425756,9.06702024 C12.3063651,9.05526715 12.0358232,9.05279282 11.7655906,9.05279282 C11.4953579,9.05279282 11.0561194,9.15419633 10.6845275,9.55994291 C10.3129355,9.9656895 9.26562945,10.9461885 9.26562945,12.9409877 C9.26562945,14.9357869 10.7182845,16.8629838 10.9210031,17.1334373 C11.1237218,17.4039351 13.7796985,21.4975881 17.8465317,23.2530838 C18.8138196,23.6706277 19.5689333,23.9200052 20.1577364,24.1068174 C21.1289126,24.4151813 22.0126917,24.3717037 22.7112934,24.267384 C23.4901784,24.1510461 25.1098068,23.2869734 25.4477301,22.3402755 C25.7855651,21.3935335 25.7855651,20.5821287 25.6842058,20.4130786 C25.5828465,20.2440286 25.3126138,20.1425809 24.9072207,19.9396855 L24.9072207,19.9396855 Z" id="Shape"></path>
            </g>
        </g>
    </g>
</svg>