<?xml version="1.0" encoding="UTF-8"?>
<svg width="21px" height="20px" viewBox="0 0 21 20" version="1.1" xmlns="http://www.w3.org/2000/svg" xmlns:xlink="http://www.w3.org/1999/xlink">
    <!-- Generator: sketchtool 54 (76480) - https://sketchapp.com -->
    <title>C491C01B-DD33-4F98-AB9C-E16DF22C6144</title>
    <desc>Created with sketchtool.</desc>
    <g id="Asset-Artboard-Page" stroke="none" stroke-width="1" fill="none" fill-rule="evenodd">
        <g id="Icon/Arrow" transform="translate(0.379365, 0.000000)" fill="#232E48">
            <path d="M10.9169013,2.93215292 L17.4664694,9.23983471 L0.713092454,9.23983471 C0.316452675,9.23983471 0,9.58013354 0,10.0009495 C0,10.4156887 0.316452675,10.7575067 0.713092454,10.7575067 L17.4664694,10.7575067 L10.9169013,17.0697461 C10.644838,17.3568732 10.644838,17.8263033 10.9169013,18.1134304 C11.1918286,18.4066343 11.6328576,18.4066343 11.904921,18.1134304 L19.7274593,10.5706462 C19.7389146,10.561531 19.7518018,10.5660886 19.7603933,10.5584927 C19.7732805,10.5448199 19.7890315,10.5493775 19.797623,10.5402624 C19.8062145,10.5311472 19.8019188,10.5144361 19.8105102,10.5007634 C19.9179037,10.3761897 19.9852036,10.2166746 19.993795,10.0358909 C19.993795,10.0267757 19.9980908,10.0222182 19.9980908,10.0100646 C20.0023865,9.99639192 19.9980908,9.99183435 19.9980908,9.98727677 C19.9980908,9.97360405 19.9894993,9.95993133 19.9894993,9.9477778 C19.9766121,9.79737788 19.9221994,9.6728042 19.8391485,9.56190324 C19.814806,9.53151942 19.8233975,9.48746287 19.797623,9.46011743 C19.7732805,9.43429118 19.7432103,9.44340633 19.7188678,9.42061846 C19.7059806,9.41302251 19.6973891,9.39934979 19.6887977,9.39023464 L11.904921,1.88239181 C11.7674574,1.74110703 11.5913322,1.66666667 11.4123431,1.66666667 C11.233354,1.66666667 11.0543649,1.74110703 10.9169013,1.88239181 C10.644838,2.17407652 10.644838,2.63894902 10.9169013,2.93215292 Z" id="Clip-839" transform="translate(10.000000, 10.000000) scale(-1, 1) translate(-10.000000, -10.000000) "></path>
        </g>
    </g>
</svg>