<svg xmlns="http://www.w3.org/2000/svg" xmlns:xlink="http://www.w3.org/1999/xlink" width="32" height="32" viewBox="0 0 32 32"><defs><circle id="a" cx="10" cy="10" r="10"/></defs><g fill="none" fill-rule="evenodd"><g transform="translate(6 6)"><use fill="#232E48" xlink:href="#a"/><circle cx="10" cy="10" r="11" stroke="#4F82FF" stroke-opacity=".75" stroke-width="2"/><circle cx="10" cy="10" r="13" stroke="#4F82FF" stroke-opacity=".2" stroke-width="6"/></g><path fill="#FFF" d="M15.999 22l-.96-.96.96-.96.96.96-.96.96zm.96-4.798l1.92 1.92-.96.959-.96-.96-.96.96-.96-.96-.96.96-.96-.96 1.92-1.92.96.96.96-.96zm-.957.476l-3.839-3.84L16.002 10l3.84 3.839-3.84 3.839zm3.119 1.2l-1.92-1.92 2.88-2.88L22 15.999l-2.88 2.88zm-4.322-1.917l-1.92 1.92L10 16.001l1.92-1.919 2.88 2.879z"/></g></svg>