<svg id="Icon_Amenity_Airport" data-name="Icon/Amenity/Airport" xmlns="http://www.w3.org/2000/svg" xmlns:xlink="http://www.w3.org/1999/xlink" width="24" height="24" viewBox="0 0 24 24">
  <defs>
    <clipPath id="clip-path">
      <path id="Clip_65" data-name="Clip 65" d="M11.955,23a1.785,1.785,0,0,1-1.382-.81l-3.6.608a.685.685,0,0,1-.082.005.55.55,0,0,1-.371-.133.533.533,0,0,1-.172-.431l.142-1.849a.533.533,0,0,1,.3-.431l3.27-1.521L9.768,13.02.615,14.351a.522.522,0,0,1-.085.007.533.533,0,0,1-.386-.168.519.519,0,0,1-.131-.471l.468-2.031a.516.516,0,0,1,.3-.356L9.729,7.388c0-1.294.006-3.245,0-4.138A3.756,3.756,0,0,1,10.85.608,1.9,1.9,0,0,1,11.955,0c.64,0,2.22,1.3,2.22,3.25,0,.954,0,3.185.006,4.1l9.032,3.982a.526.526,0,0,1,.3.356c0,.021.483,2.081.483,2.141a.539.539,0,0,1-.538.53.293.293,0,0,1-.041,0,.293.293,0,0,0-.041,0l-9.237-1.343-.292,5.4L17.2,19.96a.533.533,0,0,1,.3.431l.142,1.849a.512.512,0,0,1-.174.431.539.539,0,0,1-.368.133.666.666,0,0,1-.081-.005l-3.683-.62A1.783,1.783,0,0,1,11.955,23Zm-1.06-1.911a.535.535,0,0,1,.521.4.54.54,0,0,0,.531.428.563.563,0,0,0,.552-.448.537.537,0,0,1,.527-.4.571.571,0,0,1,.082.006l3.424.58-.07-.89L13.066,19.2a.517.517,0,0,1-.3-.5L13.1,12.38A.517.517,0,0,1,13.3,12a.559.559,0,0,1,.419-.11L22.766,13.2l-.239-1.031-9.1-4.01a.512.512,0,0,1-.317-.469c0-1.291,0-3.5,0-4.441,0-1.193-.763-2.181-1.153-2.181a.677.677,0,0,0-.413.242,2.857,2.857,0,0,0-.735,1.927c0,.955,0,3.192-.009,4.49a.51.51,0,0,1-.311.472L1.465,12.17l-.236,1.04,8.963-1.31a.538.538,0,0,1,.074-.005.526.526,0,0,1,.341.125.5.5,0,0,1,.2.37l.344,6.342a.525.525,0,0,1-.3.5L7.533,20.77l-.067.89,3.34-.558A.213.213,0,0,1,10.894,21.09Z" transform="translate(0 1)" fill="#232e48"/>
    </clipPath>
  </defs>
  <g id="Group_41" data-name="Group 41">
    <path id="Clip_65-2" data-name="Clip 65" d="M11.955,23a1.785,1.785,0,0,1-1.382-.81l-3.6.608a.685.685,0,0,1-.082.005.55.55,0,0,1-.371-.133.533.533,0,0,1-.172-.431l.142-1.849a.533.533,0,0,1,.3-.431l3.27-1.521L9.768,13.02.615,14.351a.522.522,0,0,1-.085.007.533.533,0,0,1-.386-.168.519.519,0,0,1-.131-.471l.468-2.031a.516.516,0,0,1,.3-.356L9.729,7.388c0-1.294.006-3.245,0-4.138A3.756,3.756,0,0,1,10.85.608,1.9,1.9,0,0,1,11.955,0c.64,0,2.22,1.3,2.22,3.25,0,.954,0,3.185.006,4.1l9.032,3.982a.526.526,0,0,1,.3.356c0,.021.483,2.081.483,2.141a.539.539,0,0,1-.538.53.293.293,0,0,1-.041,0,.293.293,0,0,0-.041,0l-9.237-1.343-.292,5.4L17.2,19.96a.533.533,0,0,1,.3.431l.142,1.849a.512.512,0,0,1-.174.431.539.539,0,0,1-.368.133.666.666,0,0,1-.081-.005l-3.683-.62A1.783,1.783,0,0,1,11.955,23Zm-1.06-1.911a.535.535,0,0,1,.521.4.54.54,0,0,0,.531.428.563.563,0,0,0,.552-.448.537.537,0,0,1,.527-.4.571.571,0,0,1,.082.006l3.424.58-.07-.89L13.066,19.2a.517.517,0,0,1-.3-.5L13.1,12.38A.517.517,0,0,1,13.3,12a.559.559,0,0,1,.419-.11L22.766,13.2l-.239-1.031-9.1-4.01a.512.512,0,0,1-.317-.469c0-1.291,0-3.5,0-4.441,0-1.193-.763-2.181-1.153-2.181a.677.677,0,0,0-.413.242,2.857,2.857,0,0,0-.735,1.927c0,.955,0,3.192-.009,4.49a.51.51,0,0,1-.311.472L1.465,12.17l-.236,1.04,8.963-1.31a.538.538,0,0,1,.074-.005.526.526,0,0,1,.341.125.5.5,0,0,1,.2.37l.344,6.342a.525.525,0,0,1-.3.5L7.533,20.77l-.067.89,3.34-.558A.213.213,0,0,1,10.894,21.09Z" transform="translate(0 1)" fill="#232e48"/>
  </g>
</svg>
