<svg id="Icon_Alert" data-name="Icon/Alert" xmlns="http://www.w3.org/2000/svg" xmlns:xlink="http://www.w3.org/1999/xlink" width="24" height="24" viewBox="0 0 24 24">
  <defs>
    <clipPath id="clip-path">
      <path id="Clip_214" data-name="Clip 214" d="M16.711,24a1.078,1.078,0,0,1-.837-.356l-1.243-1.6a9.945,9.945,0,0,1-2.814.443,10,10,0,0,1-2.822-.443l-1.242,1.6A1.065,1.065,0,0,1,6.919,24a1.192,1.192,0,0,1-.474-.1.766.766,0,0,1-.465-.485.561.561,0,0,1,.111-.49l1.2-1.537A10.488,10.488,0,0,1,11.817,1.518a10.485,10.485,0,0,1,4.524,19.874l1.2,1.537a.561.561,0,0,1,.111.49.766.766,0,0,1-.465.485A1.2,1.2,0,0,1,16.711,24ZM11.817,3.017a8.991,8.991,0,0,0,0,17.979,8.991,8.991,0,0,0,0-17.979Zm-.741,10.49a.725.725,0,0,1-.593-.329.707.707,0,0,1-.149-.419.022.022,0,0,1,0-.007.035.035,0,0,0,0-.012V6.764a.739.739,0,1,1,1.478,0v5.249h5.168a.743.743,0,0,1,0,1.487H11.107a.038.038,0,0,0-.015,0A.04.04,0,0,1,11.076,13.507ZM23.348,6h0l-1.04-1.143a2.347,2.347,0,0,0,.262-1.042,2.225,2.225,0,0,0-2.148-2.29,1.952,1.952,0,0,0-.92.244L18.461.626A3.413,3.413,0,0,1,20.42,0,3.708,3.708,0,0,1,24,3.816,3.947,3.947,0,0,1,23.349,6ZM.672,5.91h0A3.745,3.745,0,0,1,3.693.024,3.633,3.633,0,0,1,5.711.637L4.643,1.759a2.124,2.124,0,0,0-.95-.24A2.235,2.235,0,0,0,1.48,3.77a2.2,2.2,0,0,0,.268,1.018L.673,5.909Z" fill="#232e48"/>
    </clipPath>
  </defs>
  <g id="Group_43" data-name="Group 43">
    <path id="Clip_214-2" data-name="Clip 214" d="M16.711,24a1.078,1.078,0,0,1-.837-.356l-1.243-1.6a9.945,9.945,0,0,1-2.814.443,10,10,0,0,1-2.822-.443l-1.242,1.6A1.065,1.065,0,0,1,6.919,24a1.192,1.192,0,0,1-.474-.1.766.766,0,0,1-.465-.485.561.561,0,0,1,.111-.49l1.2-1.537A10.488,10.488,0,0,1,11.817,1.518a10.485,10.485,0,0,1,4.524,19.874l1.2,1.537a.561.561,0,0,1,.111.49.766.766,0,0,1-.465.485A1.2,1.2,0,0,1,16.711,24ZM11.817,3.017a8.991,8.991,0,0,0,0,17.979,8.991,8.991,0,0,0,0-17.979Zm-.741,10.49a.725.725,0,0,1-.593-.329.707.707,0,0,1-.149-.419.022.022,0,0,1,0-.007.035.035,0,0,0,0-.012V6.764a.739.739,0,1,1,1.478,0v5.249h5.168a.743.743,0,0,1,0,1.487H11.107a.038.038,0,0,0-.015,0A.04.04,0,0,1,11.076,13.507ZM23.348,6h0l-1.04-1.143a2.347,2.347,0,0,0,.262-1.042,2.225,2.225,0,0,0-2.148-2.29,1.952,1.952,0,0,0-.92.244L18.461.626A3.413,3.413,0,0,1,20.42,0,3.708,3.708,0,0,1,24,3.816,3.947,3.947,0,0,1,23.349,6ZM.672,5.91h0A3.745,3.745,0,0,1,3.693.024,3.633,3.633,0,0,1,5.711.637L4.643,1.759a2.124,2.124,0,0,0-.95-.24A2.235,2.235,0,0,0,1.48,3.77a2.2,2.2,0,0,0,.268,1.018L.673,5.909Z" fill="#232e48"/>
  </g>
</svg>
