<svg id="Icon_Social_YouTube" data-name="Icon/Social/YouTube" xmlns="http://www.w3.org/2000/svg" width="24" height="24" viewBox="0 0 24 24">
  <path id="icon-social-yt" d="M12,17h0c-.062,0-6.256-.06-8.159-.244-.09-.017-.2-.03-.324-.045a3.527,3.527,0,0,1-2.322-.987,5.283,5.283,0,0,1-.954-2.4A37.025,37.025,0,0,1,0,9.413V7.579a37.123,37.123,0,0,1,.24-3.91,5.286,5.286,0,0,1,.954-2.4A3.3,3.3,0,0,1,3.445.261L3.6.245C6.919,0,11.944,0,11.994,0h.011c.05,0,5.077,0,8.4.245l.154.016a3.305,3.305,0,0,1,2.252,1.007,5.283,5.283,0,0,1,.954,2.4A37.233,37.233,0,0,1,24,7.579V9.413a37.232,37.232,0,0,1-.239,3.911,5.286,5.286,0,0,1-.954,2.4,3.3,3.3,0,0,1-2.25,1.007l-.155.016C17.08,16.989,12.05,17,12,17ZM9.5,5.043V11.85l6.37-3.475Z" transform="translate(0 3)" fill="#232e48"/>
</svg>
