<svg id="Icon_Amenity_Flat-TV" data-name="Icon/Amenity/Flat-TV" xmlns="http://www.w3.org/2000/svg" xmlns:xlink="http://www.w3.org/1999/xlink" width="24" height="24" viewBox="0 0 24 24">
  <defs>
    <clipPath id="clip-path">
      <path id="Clip_128" data-name="Clip 128" d="M15.2,24H8.8a.8.8,0,1,1,0-1.6h2.4V19.2H1.6A1.6,1.6,0,0,1,0,17.6V1.6A1.6,1.6,0,0,1,1.6,0H22.4A1.6,1.6,0,0,1,24,1.6v16a1.6,1.6,0,0,1-1.6,1.6H12.8v3.2h2.4a.8.8,0,1,1,0,1.6ZM2.4,1.6a.8.8,0,0,0-.8.805V16.8a.8.8,0,0,0,.8.8H21.6a.8.8,0,0,0,.8-.8V2.4a.8.8,0,0,0-.8-.805Z" fill="#232e48"/>
    </clipPath>
  </defs>
  <g id="Group_35" data-name="Group 35">
    <path id="Clip_128-2" data-name="Clip 128" d="M15.2,24H8.8a.8.8,0,1,1,0-1.6h2.4V19.2H1.6A1.6,1.6,0,0,1,0,17.6V1.6A1.6,1.6,0,0,1,1.6,0H22.4A1.6,1.6,0,0,1,24,1.6v16a1.6,1.6,0,0,1-1.6,1.6H12.8v3.2h2.4a.8.8,0,1,1,0,1.6ZM2.4,1.6a.8.8,0,0,0-.8.805V16.8a.8.8,0,0,0,.8.8H21.6a.8.8,0,0,0,.8-.8V2.4a.8.8,0,0,0-.8-.805Z" fill="#232e48"/>
  </g>
</svg>
