<svg id="Icon_404" data-name="Icon/404" xmlns="http://www.w3.org/2000/svg" xmlns:xlink="http://www.w3.org/1999/xlink" width="24" height="24" viewBox="0 0 24 24">
  <defs>
    <clipPath id="clip-path">
      <path id="Clip_217" data-name="Clip 217" d="M23.519,24H.479a.48.48,0,0,1,0-.959H7.743L8.578,10.55a.948.948,0,0,1-.9-.948V8.643a.962.962,0,0,1,.96-.962V4.322a3.334,3.334,0,0,1,.83-2.2,3.369,3.369,0,0,1,2.05-1.109V.482a.479.479,0,1,1,.958,0V1.01a3.372,3.372,0,0,1,2.051,1.109,3.332,3.332,0,0,1,.83,2.2V7.681a.962.962,0,0,1,.958.962V9.6a.959.959,0,0,1-.9.948l.835,12.491h7.26a.48.48,0,1,1,0,.959ZM12,20.164A1.441,1.441,0,0,1,13.44,21.6v1.441H15.3l-.428-6.368L8.9,20.083l-.2,2.958h1.852V21.6A1.44,1.44,0,0,1,12,20.164Zm0,.96a.477.477,0,0,0-.477.476v1.441h.958V21.6A.479.479,0,0,0,12,21.124Zm2.606-8.43L9.2,15.605l-.226,3.328,5.82-3.325L14.6,12.694ZM9.536,10.561l-.26,3.911,5.258-2.829-.073-1.083H9.536Zm-.9-1.919V9.6h6.721V8.643Zm3.839-2.881V7.679H14.4V5.762Zm-2.88,0V7.679h1.922V5.762ZM12,1.922a2.4,2.4,0,0,0-2.4,2.4V4.8h4.8V4.322A2.4,2.4,0,0,0,12,1.922ZM22.56,9.6a.426.426,0,0,1-.152-.027L16.646,7.656a.479.479,0,0,1,.155-.934.5.5,0,0,1,.152.023l5.758,1.922a.476.476,0,0,1,.3.606A.478.478,0,0,1,22.56,9.6ZM1.437,9.6a.48.48,0,0,1-.152-.935L7.049,6.746a.48.48,0,0,1,.3.911L1.589,9.575A.413.413,0,0,1,1.437,9.6ZM16.8,4.8a.482.482,0,0,1-.458-.329.489.489,0,0,1,.3-.609l5.762-1.917a.49.49,0,0,1,.152-.024.48.48,0,0,1,.455.328.476.476,0,0,1-.3.606L16.953,4.776A.477.477,0,0,1,16.8,4.8Zm-9.6,0c-.072,0-1.969-.624-5.638-1.854l-.035-.012-.24-.08a.479.479,0,0,1,.3-.909L7.351,3.863A.482.482,0,0,1,7.2,4.8Z" fill="#232e48"/>
    </clipPath>
  </defs>
  <g id="Group_44" data-name="Group 44">
    <path id="Clip_217-2" data-name="Clip 217" d="M23.519,24H.479a.48.48,0,0,1,0-.959H7.743L8.578,10.55a.948.948,0,0,1-.9-.948V8.643a.962.962,0,0,1,.96-.962V4.322a3.334,3.334,0,0,1,.83-2.2,3.369,3.369,0,0,1,2.05-1.109V.482a.479.479,0,1,1,.958,0V1.01a3.372,3.372,0,0,1,2.051,1.109,3.332,3.332,0,0,1,.83,2.2V7.681a.962.962,0,0,1,.958.962V9.6a.959.959,0,0,1-.9.948l.835,12.491h7.26a.48.48,0,1,1,0,.959ZM12,20.164A1.441,1.441,0,0,1,13.44,21.6v1.441H15.3l-.428-6.368L8.9,20.083l-.2,2.958h1.852V21.6A1.44,1.44,0,0,1,12,20.164Zm0,.96a.477.477,0,0,0-.477.476v1.441h.958V21.6A.479.479,0,0,0,12,21.124Zm2.606-8.43L9.2,15.605l-.226,3.328,5.82-3.325L14.6,12.694ZM9.536,10.561l-.26,3.911,5.258-2.829-.073-1.083H9.536Zm-.9-1.919V9.6h6.721V8.643Zm3.839-2.881V7.679H14.4V5.762Zm-2.88,0V7.679h1.922V5.762ZM12,1.922a2.4,2.4,0,0,0-2.4,2.4V4.8h4.8V4.322A2.4,2.4,0,0,0,12,1.922ZM22.56,9.6a.426.426,0,0,1-.152-.027L16.646,7.656a.479.479,0,0,1,.155-.934.5.5,0,0,1,.152.023l5.758,1.922a.476.476,0,0,1,.3.606A.478.478,0,0,1,22.56,9.6ZM1.437,9.6a.48.48,0,0,1-.152-.935L7.049,6.746a.48.48,0,0,1,.3.911L1.589,9.575A.413.413,0,0,1,1.437,9.6ZM16.8,4.8a.482.482,0,0,1-.458-.329.489.489,0,0,1,.3-.609l5.762-1.917a.49.49,0,0,1,.152-.024.48.48,0,0,1,.455.328.476.476,0,0,1-.3.606L16.953,4.776A.477.477,0,0,1,16.8,4.8Zm-9.6,0c-.072,0-1.969-.624-5.638-1.854l-.035-.012-.24-.08a.479.479,0,0,1,.3-.909L7.351,3.863A.482.482,0,0,1,7.2,4.8Z" fill="#232e48"/>
  </g>
</svg>
