<svg id="Icon_Sort" data-name="Icon/Sort" xmlns="http://www.w3.org/2000/svg" width="24" height="24" viewBox="0 0 24 24">
  <path id="_" data-name="" d="M17.715,23.669a1.124,1.124,0,0,1-.308-.794V3.772l-2.391,2.25a1.18,1.18,0,0,1-1.64,0,.958.958,0,0,1,0-1.522l4.3-4.169c0-.044.045-.067.136-.067l.137-.132L18.09.067h.137L18.364,0h.273l.137.067h.137l.137.066L19.115.2l.137.066L23.624,4.5a.958.958,0,0,1,0,1.522,1.18,1.18,0,0,1-1.64,0l-2.391-2.25v19.1a1.127,1.127,0,0,1-.307.794,1.1,1.1,0,0,1-1.571,0ZM5.363,24l-.137-.067H5.09l-.137-.066-.137-.132c-.091,0-.137-.022-.137-.067L.376,19.5a.959.959,0,0,1,0-1.523,1.135,1.135,0,0,1,.82-.33,1.135,1.135,0,0,1,.819.33l2.391,2.25V1.125A1.124,1.124,0,0,1,4.714.331,1.026,1.026,0,0,1,5.5,0a1.026,1.026,0,0,1,.786.331,1.124,1.124,0,0,1,.308.794v19.1l2.391-2.25a1.183,1.183,0,0,1,1.64,0,.96.96,0,0,1,0,1.523L6.251,23.736l-.137.066-.068.067-.136.066H5.773L5.637,24Z" fill="#232e48"/>
</svg>
