<svg id="Icon_Settings" data-name="Icon/Settings" xmlns="http://www.w3.org/2000/svg" width="24" height="24" viewBox="0 0 24 24">
  <path id="Stroke_196" data-name="Stroke 196" d="M12.947,24H11.053a.953.953,0,0,1-.922-.7l-.566-1.972a.469.469,0,0,0-.318-.319,9.432,9.432,0,0,1-1.675-.69.491.491,0,0,0-.227-.058.466.466,0,0,0-.222.058l-1.786.99a.943.943,0,0,1-.465.121.96.96,0,0,1-.68-.28L2.847,19.806a.964.964,0,0,1-.16-1.144l.991-1.785a.475.475,0,0,0,0-.448,9.379,9.379,0,0,1-.69-1.676.464.464,0,0,0-.319-.318L.7,13.869a.962.962,0,0,1-.7-.922V11.053a.964.964,0,0,1,.7-.922l1.972-.565a.471.471,0,0,0,.319-.319,9.391,9.391,0,0,1,.69-1.676.465.465,0,0,0,0-.446L2.687,5.337a.966.966,0,0,1,.16-1.145L4.192,2.847a.957.957,0,0,1,1.145-.16l1.786.991a.457.457,0,0,0,.222.058.484.484,0,0,0,.227-.057,9.307,9.307,0,0,1,1.675-.691.471.471,0,0,0,.318-.319L10.13.7a.963.963,0,0,1,.922-.7h1.894a.962.962,0,0,1,.922.7l.567,1.972a.465.465,0,0,0,.318.319,9.242,9.242,0,0,1,1.674.691.484.484,0,0,0,.227.057.459.459,0,0,0,.223-.058l1.785-.991a.958.958,0,0,1,1.146.16l1.344,1.345a.963.963,0,0,1,.161,1.145l-.99,1.785a.468.468,0,0,0,0,.447,9.5,9.5,0,0,1,.69,1.678.47.47,0,0,0,.319.319l1.972.565a.964.964,0,0,1,.7.922v1.894a.962.962,0,0,1-.7.922l-1.972.566a.468.468,0,0,0-.319.317,9.512,9.512,0,0,1-.69,1.678.468.468,0,0,0,0,.448l.99,1.785a.96.96,0,0,1-.161,1.144l-1.344,1.347a.967.967,0,0,1-.68.28.956.956,0,0,1-.465-.121l-1.785-.99a.459.459,0,0,0-.223-.058.491.491,0,0,0-.227.058,9.366,9.366,0,0,1-1.674.69.466.466,0,0,0-.319.319L13.869,23.3A.951.951,0,0,1,12.947,24Zm-5.6-4.7a1.44,1.44,0,0,1,.677.17,8.434,8.434,0,0,0,1.5.619,1.43,1.43,0,0,1,.962.974l.565,1.972h1.894l.565-1.972a1.432,1.432,0,0,1,.961-.974,8.421,8.421,0,0,0,1.506-.619,1.439,1.439,0,0,1,.676-.17,1.423,1.423,0,0,1,.689.179l1.786.991,1.344-1.347-.989-1.784a1.425,1.425,0,0,1-.009-1.366,8.412,8.412,0,0,0,.621-1.5,1.425,1.425,0,0,1,.97-.961l1.974-.565V11.053l-1.974-.565a1.429,1.429,0,0,1-.972-.962,8.216,8.216,0,0,0-.621-1.506,1.429,1.429,0,0,1,.011-1.363l.989-1.786L19.13,3.527l-1.787.99a1.425,1.425,0,0,1-.688.177,1.445,1.445,0,0,1-.677-.169,8.378,8.378,0,0,0-1.5-.62,1.428,1.428,0,0,1-.961-.973L12.947.96H11.053l-.565,1.972a1.423,1.423,0,0,1-.962.973,8.5,8.5,0,0,0-1.5.62,1.44,1.44,0,0,1-.677.169,1.421,1.421,0,0,1-.688-.178L4.871,3.527,3.527,4.871l.99,1.786a1.424,1.424,0,0,1,.007,1.365,8.457,8.457,0,0,0-.62,1.5,1.424,1.424,0,0,1-.971.961L.96,11.053v1.894l1.973.565a1.429,1.429,0,0,1,.972.963,8.371,8.371,0,0,0,.622,1.506,1.43,1.43,0,0,1-.011,1.363l-.989,1.784,1.344,1.347,1.786-.991A1.421,1.421,0,0,1,7.345,19.305ZM12,17.28A5.28,5.28,0,1,1,17.28,12,5.286,5.286,0,0,1,12,17.28Zm0-9.6A4.32,4.32,0,1,0,16.32,12,4.325,4.325,0,0,0,12,7.68Z" fill="#232e48"/>
</svg>
