<svg id="Icon_Social_Pinterest" data-name="Icon/Social/Pinterest" xmlns="http://www.w3.org/2000/svg" width="24" height="24" viewBox="0 0 24 24">
  <path id="icon-social-p" d="M16.653,16.586c-1.66,1.392-5.506,2.331-7.605.772-.29-.213-.425-.9-.787-.645A27.72,27.72,0,0,1,5.735,24H4.092l.039-.031a13.213,13.213,0,0,1,.065-3.9c.4-2.445,1.976-5.795,1.967-8.254,0-1.033-.579-2.171-.393-3.354.342-2.175,3.493-4.184,4.59-1.675,1.264,2.891-2.686,6.389-.523,8.382a3.284,3.284,0,0,0,2.49.514c4.55-.9,5.184-10.207,1.443-12.377C8.4.186,2.345,5,2.884,10.01c.2,1.886,2.238,2.969.525,4.642C.9,13.68-.021,11.915,0,9.107.042,3.146,5.706-.6,11.931.08,15.98.525,19.4,3.7,19.8,7.3c.353,3.215-.751,7.278-3.145,9.284" transform="translate(2)" fill="#232e48"/>
</svg>
