<svg id="Icon_Login" data-name="Icon/Login" xmlns="http://www.w3.org/2000/svg" xmlns:xlink="http://www.w3.org/1999/xlink" width="24" height="24" viewBox="0 0 24 24">
  <defs>
    <clipPath id="clip-path">
      <path id="Clip_163" data-name="Clip 163" d="M8.308,22H.922A.966.966,0,0,1,0,21V1A.963.963,0,0,1,.922,0H8.308A.963.963,0,0,1,9.23,1a.965.965,0,0,1-.922,1H1.845V20H8.308a1.005,1.005,0,0,1,0,2ZM15.7,18.333a1.042,1.042,0,0,1-.743-.308,1.064,1.064,0,0,1,0-1.5l5.195-4.485H8.424a1.046,1.046,0,0,1,0-2.092H20.151L14.956,5.467a1.052,1.052,0,0,1,.741-1.8,1.04,1.04,0,0,1,.741.306l.023.02c.742.643,7.248,6.28,7.261,6.292a1.074,1.074,0,0,1-.014,1.46l-7.269,6.278A1.029,1.029,0,0,1,15.7,18.333Z" transform="translate(0 1)" fill="#232e48"/>
    </clipPath>
  </defs>
  <g id="Group_18" data-name="Group 18">
    <path id="Clip_163-2" data-name="Clip 163" d="M8.308,22H.922A.966.966,0,0,1,0,21V1A.963.963,0,0,1,.922,0H8.308A.963.963,0,0,1,9.23,1a.965.965,0,0,1-.922,1H1.845V20H8.308a1.005,1.005,0,0,1,0,2ZM15.7,18.333a1.042,1.042,0,0,1-.743-.308,1.064,1.064,0,0,1,0-1.5l5.195-4.485H8.424a1.046,1.046,0,0,1,0-2.092H20.151L14.956,5.467a1.052,1.052,0,0,1,.741-1.8,1.04,1.04,0,0,1,.741.306l.023.02c.742.643,7.248,6.28,7.261,6.292a1.074,1.074,0,0,1-.014,1.46l-7.269,6.278A1.029,1.029,0,0,1,15.7,18.333Z" transform="translate(0 1)" fill="#232e48"/>
  </g>
</svg>
