<svg id="Icon_Time" data-name="Icon/Time" xmlns="http://www.w3.org/2000/svg" xmlns:xlink="http://www.w3.org/1999/xlink" width="24" height="24" viewBox="0 0 24 24">
  <defs>
    <clipPath id="clip-path">
      <path id="Clip_41" data-name="Clip 41" d="M12,24A12,12,0,1,1,24,12,12.014,12.014,0,0,1,12,24ZM12,1.5A10.5,10.5,0,1,0,22.5,12,10.513,10.513,0,0,0,12,1.5Zm-.748,12.11a.735.735,0,0,1-.608-.337.686.686,0,0,1-.149-.412.025.025,0,0,1,0-.009.046.046,0,0,0,0-.018V6.862a.75.75,0,0,1,1.5,0v5.25h5.249a.751.751,0,0,1,.753.747.737.737,0,0,1-.753.737H11.28a.03.03,0,0,0-.016.007A.024.024,0,0,1,11.252,13.608Z" fill="#232e48"/>
    </clipPath>
  </defs>
  <g id="Group_5" data-name="Group 5">
    <path id="Clip_41-2" data-name="Clip 41" d="M12,24A12,12,0,1,1,24,12,12.014,12.014,0,0,1,12,24ZM12,1.5A10.5,10.5,0,1,0,22.5,12,10.513,10.513,0,0,0,12,1.5Zm-.748,12.11a.735.735,0,0,1-.608-.337.686.686,0,0,1-.149-.412.025.025,0,0,1,0-.009.046.046,0,0,0,0-.018V6.862a.75.75,0,0,1,1.5,0v5.25h5.249a.751.751,0,0,1,.753.747.737.737,0,0,1-.753.737H11.28a.03.03,0,0,0-.016.007A.024.024,0,0,1,11.252,13.608Z" fill="#232e48"/>
  </g>
</svg>
