<svg id="Icon_Heart_It" data-name="Icon/Heart It" xmlns="http://www.w3.org/2000/svg" width="24" height="24" viewBox="0 0 24 24">
  <path id="Stroke_143" data-name="Stroke 143" d="M5.969,0a4.5,4.5,0,0,0-1.8.391A6.772,6.772,0,0,0,.322,4.617C-.431,7.048.146,9.908,1.95,12.669,5.081,17.47,10.385,21,12,22c1.614-1.006,6.925-4.54,10.053-9.331,1.8-2.761,2.379-5.621,1.626-8.052A6.77,6.77,0,0,0,19.826.391,4.5,4.5,0,0,0,18.031,0c-3,0-5.222,3.187-5.245,3.22L12,4.364,11.214,3.22C11.191,3.19,8.946,0,5.969,0Z" transform="translate(0 1)" fill="#232e48"/>
</svg>
