<svg id="Icon_Link" data-name="Icon/Link" xmlns="http://www.w3.org/2000/svg" width="24" height="24" viewBox="0 0 24 24">
  <path id="_" data-name="ïƒ" d="M17.6,24a4.173,4.173,0,0,1-3-1.25l-3.029-3.045a4.187,4.187,0,0,1-1.22-2.985,4.279,4.279,0,0,1,1.294-3.074l-1.294-1.294a4.262,4.262,0,0,1-6.059.059L1.236,9.353A4.224,4.224,0,0,1,1.25,3.368L3.412,1.22A4.243,4.243,0,0,1,9.4,1.25l3.029,3.044a4.187,4.187,0,0,1,1.22,2.985,4.273,4.273,0,0,1-1.294,3.073l1.294,1.294a4.261,4.261,0,0,1,6.059-.059l3.059,3.059a4.224,4.224,0,0,1-.014,5.985l-2.162,2.146A4.187,4.187,0,0,1,17.6,24Zm-3.956-8.353a1.407,1.407,0,0,0-.485,1.073,1.427,1.427,0,0,0,.412,1L16.6,20.765a1.417,1.417,0,0,0,1,.4,1.463,1.463,0,0,0,1-.382l2.162-2.147a1.389,1.389,0,0,0,.411-.985,1.4,1.4,0,0,0-.411-1l-3.059-3.059a1.422,1.422,0,0,0-1-.411,1.4,1.4,0,0,0-1.058.47c.074.074.151.147.225.218a1.972,1.972,0,0,1,.833,1.429,1.414,1.414,0,0,1-1.412,1.412,1.972,1.972,0,0,1-1.429-.833C13.794,15.8,13.721,15.721,13.647,15.647ZM6.4,2.823a1.473,1.473,0,0,0-1,.4L3.236,5.368a1.387,1.387,0,0,0-.412.985,1.4,1.4,0,0,0,.412,1l3.058,3.059a1.421,1.421,0,0,0,1,.4,1.378,1.378,0,0,0,1.058-.456c-.073-.073-.15-.146-.224-.217a1.972,1.972,0,0,1-.834-1.43A1.413,1.413,0,0,1,8.706,7.295a1.972,1.972,0,0,1,1.43.834c.07.074.143.15.217.224a1.426,1.426,0,0,0,.074-2.074L7.4,3.236A1.423,1.423,0,0,0,6.4,2.823Z" fill="#232e48"/>
</svg>
