<svg id="Icon_Social_Wechat" data-name="Icon/Social/Wechat" xmlns="http://www.w3.org/2000/svg" width="24" height="24" viewBox="0 0 24 24">
  <path id="_" data-name="" d="M21.668,19.547h0l-2.331-1.277-.118.029a10.377,10.377,0,0,1-2.436.4A7.836,7.836,0,0,1,11.656,16.9a5.715,5.715,0,0,1-2.093-4.356,5.715,5.715,0,0,1,2.093-4.356,7.836,7.836,0,0,1,5.125-1.808,7.939,7.939,0,0,1,5.042,1.808A5.7,5.7,0,0,1,24,12.539c0,1.718-1.057,3.454-2.977,4.887l.645,2.119ZM19.113,9.773a.85.85,0,0,0,0,1.7.975.975,0,0,0,1.066-.855A.971.971,0,0,0,19.113,9.773Zm-4.675,0a.85.85,0,0,0,0,1.7.963.963,0,0,0,1.067-.855A.971.971,0,0,0,14.438,9.773ZM2.555,15.516v0L3.4,12.961C1.144,11.379,0,9.446,0,7.219A6.671,6.671,0,0,1,2.495,2.093,9.28,9.28,0,0,1,8.5,0a9.835,9.835,0,0,1,5.575,1.7,7.075,7.075,0,0,1,2.991,4.266,6.254,6.254,0,0,0-.82-.047,6.988,6.988,0,0,0-7.219,6.714,5.948,5.948,0,0,0,.27,1.782c-.278.024-.538.035-.8.035A11.845,11.845,0,0,1,6,14.123l-.476-.1L2.557,15.515ZM11.684,3.609a1.2,1.2,0,0,0-1.278,1.067A1.191,1.191,0,0,0,11.684,5.73a1,1,0,0,0,1.055-1.055A1,1,0,0,0,11.684,3.609Zm-5.953,0A1.194,1.194,0,0,0,4.453,4.675,1.191,1.191,0,0,0,5.73,5.73,1,1,0,0,0,6.8,4.675,1,1,0,0,0,5.73,3.609Z" transform="translate(0 2)" fill="#2dc100"/>
</svg>
