<svg id="Icon_Business" data-name="Icon/Business" xmlns="http://www.w3.org/2000/svg" width="24" height="24" viewBox="0 0 24 24">
  <path id="Fill_52" data-name="Fill 52" d="M23,24H0V22.505H3.066V3H19.93V22.505H23V24ZM7.667,16.507h7.664v6H18.4V4.491H4.6V22.505H7.667v-6ZM9.2,18v4.505H13.8V18Zm7.667-4.506H15.332V12h1.534v1.494Zm-4.6,0H10.731V12h1.535v1.494Zm-4.6,0H6.134V12H7.669v1.494Zm9.2-3H15.332V9h1.534v1.489Zm-4.6,0H10.731V9h1.535v1.489Zm-4.6,0H6.134V9H7.669v1.489Zm9.2-3H15.332V6h1.534V7.492Zm-4.6,0H10.731V6h1.535V7.492Zm-4.6,0H6.134V6H7.669V7.492Zm13.8-6H1.534V0H21.466V1.491Z" fill="#232e48"/>
</svg>
