<svg id="Icon_Social_Instagram" data-name="Icon/Social/Instagram" xmlns="http://www.w3.org/2000/svg" xmlns:xlink="http://www.w3.org/1999/xlink" width="24" height="24" viewBox="0 0 24 24">
  <defs>
    <clipPath id="clip-path">
      <path id="Clip_153" data-name="Clip 153" d="M17.375,24H6.621A6.629,6.629,0,0,1,0,17.379V6.626A6.631,6.631,0,0,1,6.621,0H17.375A6.633,6.633,0,0,1,24,6.626V17.379A6.631,6.631,0,0,1,17.375,24ZM6.621,2.129a4.5,4.5,0,0,0-4.492,4.5V17.379A4.5,4.5,0,0,0,6.621,21.87H17.375a4.5,4.5,0,0,0,4.5-4.491V6.626a4.5,4.5,0,0,0-4.5-4.5ZM12,18.185A6.183,6.183,0,1,1,18.185,12,6.192,6.192,0,0,1,12,18.185ZM12,7.944A4.055,4.055,0,1,0,16.055,12,4.063,4.063,0,0,0,12,7.944Zm6.444-.811a1.578,1.578,0,0,1-1.1-.456,1.561,1.561,0,0,1,1.1-2.666,1.561,1.561,0,1,1,0,3.122Z" fill="none"/>
    </clipPath>
  </defs>
  <g id="Group_6" data-name="Group 6">
    <path id="Clip_153-2" data-name="Clip 153" d="M17.375,24H6.621A6.629,6.629,0,0,1,0,17.379V6.626A6.631,6.631,0,0,1,6.621,0H17.375A6.633,6.633,0,0,1,24,6.626V17.379A6.631,6.631,0,0,1,17.375,24ZM6.621,2.129a4.5,4.5,0,0,0-4.492,4.5V17.379A4.5,4.5,0,0,0,6.621,21.87H17.375a4.5,4.5,0,0,0,4.5-4.491V6.626a4.5,4.5,0,0,0-4.5-4.5ZM12,18.185A6.183,6.183,0,1,1,18.185,12,6.192,6.192,0,0,1,12,18.185ZM12,7.944A4.055,4.055,0,1,0,16.055,12,4.063,4.063,0,0,0,12,7.944Zm6.444-.811a1.578,1.578,0,0,1-1.1-.456,1.561,1.561,0,0,1,1.1-2.666,1.561,1.561,0,1,1,0,3.122Z" fill="none"/>
    <g id="Mask_Group_6" data-name="Mask Group 6" clip-path="url(#clip-path)">
      <path id="Fill_152" data-name="Fill 152" d="M0,24H24V0H0Z" fill="#232e48"/>
      <path id="Stroke_155" data-name="Stroke 155" d="M17.376,24H6.622A6.631,6.631,0,0,1,0,17.376V6.622A6.63,6.63,0,0,1,6.622,0H17.376A6.631,6.631,0,0,1,24,6.622V17.376A6.631,6.631,0,0,1,17.376,24ZM6.622,2.128A4.5,4.5,0,0,0,2.128,6.622V17.376A4.5,4.5,0,0,0,6.622,21.87H17.376a4.5,4.5,0,0,0,4.494-4.494V6.622a4.5,4.5,0,0,0-4.494-4.495ZM12,18.184A6.185,6.185,0,1,1,18.184,12,6.191,6.191,0,0,1,12,18.184ZM12,7.943A4.056,4.056,0,1,0,16.056,12,4.061,4.061,0,0,0,12,7.943Zm6.443-.81a1.565,1.565,0,0,1-1.1-.455,1.582,1.582,0,0,1-.46-1.106,1.562,1.562,0,0,1,3.124,0,1.559,1.559,0,0,1-1.562,1.562Z" fill="none" stroke="#fff" stroke-miterlimit="10" stroke-width="0.2"/>
    </g>
  </g>
</svg>
