<svg xmlns="http://www.w3.org/2000/svg" width="24" height="26" viewBox="0 0 24 26">
  <g id="Icon_Hotel" data-name="Icon/Hotel" transform="translate(0 1)">
    <path id="Fill_95" data-name="Fill 95" d="M24,26H0V24.375H3.2V0H20.8V24.375H24V26ZM9.6,17.872v6.5h4.8v-6.5ZM8,16.247h8v8.128h3.2V1.623H4.8V24.375H8V16.248ZM17.6,14.622H12.8V9.751h4.8v4.871Zm-3.2-3.249V13H16V11.373Zm-3.2,3.249H6.4V9.751h4.8v4.871ZM8,11.373V13H9.6V11.373ZM17.6,8.125H12.8V3.25h4.8V8.124Zm-3.2-3.25V6.5H16V4.875Zm-3.2,3.25H6.4V3.25h4.8V8.124ZM8,4.875V6.5H9.6V4.875Z" transform="translate(0 -1)" fill="#232e48"/>
  </g>
</svg>
