<svg id="Icon_Amenity_Mini_Fridge" data-name="Icon/Amenity/Mini Fridge" xmlns="http://www.w3.org/2000/svg" xmlns:xlink="http://www.w3.org/1999/xlink" width="24" height="24" viewBox="0 0 24 24">
  <defs>
    <clipPath id="clip-path">
      <path id="Clip_241" data-name="Clip 241" d="M22.2,24H1.8A1.8,1.8,0,0,1,0,22.2V1.8A1.8,1.8,0,0,1,1.8,0H22.2A1.8,1.8,0,0,1,24,1.8V22.2A1.8,1.8,0,0,1,22.2,24ZM1.2,1.2v21a.6.6,0,0,0,.6.6H22.2a.6.6,0,0,0,.6-.6V1.2Zm3,7.2a.6.6,0,0,1-.6-.6V5.4a.6.6,0,0,1,1.2,0V7.8A.6.6,0,0,1,4.2,8.4Z" fill="#232e48"/>
    </clipPath>
  </defs>
  <g id="Group_34" data-name="Group 34">
    <path id="Clip_241-2" data-name="Clip 241" d="M22.2,24H1.8A1.8,1.8,0,0,1,0,22.2V1.8A1.8,1.8,0,0,1,1.8,0H22.2A1.8,1.8,0,0,1,24,1.8V22.2A1.8,1.8,0,0,1,22.2,24ZM1.2,1.2v21a.6.6,0,0,0,.6.6H22.2a.6.6,0,0,0,.6-.6V1.2Zm3,7.2a.6.6,0,0,1-.6-.6V5.4a.6.6,0,0,1,1.2,0V7.8A.6.6,0,0,1,4.2,8.4Z" fill="#232e48"/>
  </g>
</svg>
