<svg xmlns="http://www.w3.org/2000/svg" width="24" height="24" viewBox="0 0 24 24">
  <g id="Icon_Unlock" data-name="Icon/Unlock" transform="translate(0 0)">
    <path id="_" data-name="î‚" d="M16.466,24H2.993a2.893,2.893,0,0,1-2.116-.877A2.9,2.9,0,0,1,0,21.006V12.025A2.9,2.9,0,0,1,.878,9.908a2.893,2.893,0,0,1,2.116-.877H4.257l-.3-1.356a6.54,6.54,0,0,1-.2-2.409,5.988,5.988,0,0,1,.667-2.2A5.668,5.668,0,0,1,5.894,1.312,6.1,6.1,0,0,1,8.116.213,6.616,6.616,0,0,1,9.746,0a5.719,5.719,0,0,1,.838.061,5.992,5.992,0,0,1,2.174.761,5.709,5.709,0,0,1,1.708,1.555,6.533,6.533,0,0,1,1.04,2.21l.328,1.263a.776.776,0,0,1-.082.573.682.682,0,0,1-.456.339.836.836,0,0,1-.188.022.783.783,0,0,1-.386-.1.681.681,0,0,1-.338-.456l-.328-1.264A4.605,4.605,0,0,0,12.01,2.12a4.094,4.094,0,0,0-2.2-.634,5.088,5.088,0,0,0-1.3.178A4.2,4.2,0,0,0,5.707,3.827,4.778,4.778,0,0,0,5.379,7.3l.4,1.731H16.466a3,3,0,0,1,2.993,2.994v8.981A3,3,0,0,1,16.466,24ZM2.993,10.528a1.444,1.444,0,0,0-1.052.444A1.448,1.448,0,0,0,1.5,12.025v8.981a1.436,1.436,0,0,0,.445,1.065,1.464,1.464,0,0,0,1.052.432H16.466a1.464,1.464,0,0,0,1.052-.432,1.436,1.436,0,0,0,.445-1.065V12.025a1.517,1.517,0,0,0-1.5-1.5ZM9.73,19.509a.759.759,0,0,1-.749-.749V16.305a1.527,1.527,0,0,1-.537-.526,1.418,1.418,0,0,1-.211-.76,1.462,1.462,0,0,1,.433-1.052,1.495,1.495,0,0,1,2.128,0,1.462,1.462,0,0,1,.433,1.052,1.418,1.418,0,0,1-.211.76,1.525,1.525,0,0,1-.537.526v2.455a.759.759,0,0,1-.749.749Z" transform="translate(2)" fill="#232e48"/>
  </g>
</svg>
