<svg id="Icon_Social_Facebook" data-name="Icon/Social/Facebook" xmlns="http://www.w3.org/2000/svg" width="24" height="24" viewBox="0 0 24 24">
  <path id="Stroke_149" data-name="Stroke 149" d="M9.106,24H3.068V12.706H0V7.4l3.066,0,0-1.587a6.161,6.161,0,0,1,1.3-4.389C5.279.466,6.724,0,8.786,0h4.1V5.306H9.9c-.384,0-.589,0-.688.108s-.1.3-.1.69v.057l0,1.24H13l-.614,5.3H9.107V24ZM8.786,1.412c-3.206,0-4.288,1.11-4.288,4.4l.006,3-3.07,0v2.48H4.5V22.588H7.672V11.294h3.433l.287-2.481H7.669l0-.707.005-1.947c0-1.672.622-2.264,2.378-2.264h1.4V1.412Z" transform="translate(6)" fill="#232e48"/>
</svg>
