<svg id="Icon_Search" data-name="Icon/Search" xmlns="http://www.w3.org/2000/svg" xmlns:xlink="http://www.w3.org/1999/xlink" width="24" height="24" viewBox="0 0 24 24">
  <defs>
    <clipPath id="clip-path">
      <path id="Clip_98" data-name="Clip 98" d="M23.233,24a.759.759,0,0,1-.544-.229l-4.262-4.262a11.551,11.551,0,0,0,1.084-1.084l4.266,4.267A.769.769,0,0,1,23.233,24ZM10.507,21.013a10.507,10.507,0,1,1,10.5-10.507A10.519,10.519,0,0,1,10.507,21.013Zm0-19.514a9,9,0,1,0,9,9.006A9.017,9.017,0,0,0,10.507,1.5Z" fill="#232e48"/>
    </clipPath>
  </defs>
  <g id="Group_7" data-name="Group 7">
    <path id="Clip_98-2" data-name="Clip 98" d="M23.233,24a.759.759,0,0,1-.544-.229l-4.262-4.262a11.551,11.551,0,0,0,1.084-1.084l4.266,4.267A.769.769,0,0,1,23.233,24ZM10.507,21.013a10.507,10.507,0,1,1,10.5-10.507A10.519,10.519,0,0,1,10.507,21.013Zm0-19.514a9,9,0,1,0,9,9.006A9.017,9.017,0,0,0,10.507,1.5Z" fill="#232e48"/>
  </g>
</svg>
