<svg xmlns="http://www.w3.org/2000/svg" width="24.001" height="24" viewBox="0 0 24.001 24">
  <g id="Icon_Social_Weibo" data-name="Icon/Social/Weibo" transform="translate(0)">
    <path id="icon-weebo" d="M9.853,20h0a12.821,12.821,0,0,1-6.47-1.6A7.979,7.979,0,0,1,.928,16.338a5.006,5.006,0,0,1-.9-3.563c.24-2.568,1.882-4.588,3.622-6.388A11.557,11.557,0,0,1,9.22,2.845a3.366,3.366,0,0,1,.842-.117,1.77,1.77,0,0,1,1.5.705,3.461,3.461,0,0,1,.21,3.023,8.553,8.553,0,0,0,1.53-.349,9.909,9.909,0,0,1,2.566-.5,2.113,2.113,0,0,1,1.739.708c.691.83.23,2.364,0,2.985.259.147.53.284.792.417,1.463.741,2.844,1.44,2.561,3.82a5.538,5.538,0,0,1-.871,2.153C18.307,18.269,14.2,20,9.853,20Zm.4-11.221c-.3,0-.605.013-.9.038a9.153,9.153,0,0,0-4.293,1.319,4.956,4.956,0,0,0-2.55,3.2,3.582,3.582,0,0,0,.656,2.988,7.177,7.177,0,0,0,4.979,2.289c.249.017.5.026.755.026,2.809,0,5.514-1.046,6.892-2.665a4.293,4.293,0,0,0,1.073-2.709,3.861,3.861,0,0,0-2.139-3.42A9.244,9.244,0,0,0,10.253,8.779ZM8.646,17.635h0a3.163,3.163,0,0,1-3.182-2.013,3.249,3.249,0,0,1,.294-2.907,4.462,4.462,0,0,1,3.261-1.954,4.68,4.68,0,0,1,.5-.028,3.758,3.758,0,0,1,2.148.633,3.021,3.021,0,0,1,1.172,1.548,3.173,3.173,0,0,1-.426,2.945A4.757,4.757,0,0,1,8.646,17.635Zm-.463-3.946h0a1.88,1.88,0,0,0-.439.057,1.274,1.274,0,0,0-1.025,1.4,1.039,1.039,0,0,0,1.085.95,1.721,1.721,0,0,0,.41-.053,1.4,1.4,0,0,0,.936-1.507.9.9,0,0,0-.967-.842Zm1.782-.613h0a.533.533,0,0,0-.383.164.6.6,0,0,0-.154.455.462.462,0,0,0,.4.25.561.561,0,0,0,.416-.2.439.439,0,0,0,.108-.361.375.375,0,0,0-.391-.3ZM22.814,9.1a.693.693,0,0,1-.565-.21c-.257-.305-.153-.9-.053-1.478a5.751,5.751,0,0,0,.1-.819,4.741,4.741,0,0,0-1.358-3.439,4.637,4.637,0,0,0-3.269-1.422c-.117,0-.264.015-.42.031-.184.019-.393.04-.592.04a.991.991,0,0,1-.8-.262.942.942,0,0,1-.132-.78c.094-.567.525-.619.981-.675l.159-.02A7.023,7.023,0,0,1,17.824,0a6.182,6.182,0,0,1,6.153,5.97c.112,1.5-.156,3.047-1.006,3.125C22.916,9.1,22.863,9.1,22.814,9.1ZM19.837,7.987a.585.585,0,0,1-.444-.142c-.156-.164-.14-.453-.12-.819a5.316,5.316,0,0,0,.007-.64A1.89,1.89,0,0,0,18.409,5a2.121,2.121,0,0,0-.932-.137h-.056a1.533,1.533,0,0,1-.673-.1.6.6,0,0,1-.285-.6c0-.72.533-.741.923-.756.054,0,.105,0,.152-.008.085-.007.171-.01.256-.01a2.916,2.916,0,0,1,2.9,2.58,2.458,2.458,0,0,1-.3,1.77.609.609,0,0,1-.437.243C19.912,7.986,19.873,7.987,19.837,7.987Z" transform="translate(0 2)" fill="#232e48"/>
  </g>
</svg>
