<svg id="Icon_Nearby" data-name="Icon/Nearby" xmlns="http://www.w3.org/2000/svg" width="24" height="24" viewBox="0 0 24 24">
  <path id="Icon-Nearby" d="M13.125,24h-2.25V22.232a9.98,9.98,0,0,1-6.161-2.946,9.981,9.981,0,0,1-2.947-6.161H0v-2.25H1.768a9.982,9.982,0,0,1,2.947-6.16,9.981,9.981,0,0,1,6.161-2.947V0h2.25V1.768a9.982,9.982,0,0,1,6.161,2.947,9.979,9.979,0,0,1,2.946,6.16H24v2.25H22.232a9.98,9.98,0,0,1-2.946,6.161,9.979,9.979,0,0,1-6.161,2.946V24ZM12,4.018A7.726,7.726,0,0,0,6.349,6.349,7.726,7.726,0,0,0,4.018,12,7.868,7.868,0,0,0,12,19.982a7.729,7.729,0,0,0,5.652-2.33A7.729,7.729,0,0,0,19.982,12a7.728,7.728,0,0,0-2.33-5.651A7.727,7.727,0,0,0,12,4.018Zm0,12.268A4.3,4.3,0,0,1,7.714,12,4.1,4.1,0,0,1,8.946,9,4.193,4.193,0,0,1,12,7.714,4.3,4.3,0,0,1,16.286,12,4.3,4.3,0,0,1,12,16.285Z" fill="#232e48"/>
</svg>
