<svg id="Icon_Undo" data-name="Icon/Undo" xmlns="http://www.w3.org/2000/svg" xmlns:xlink="http://www.w3.org/1999/xlink" width="24" height="24" viewBox="0 0 24 24">
  <defs>
    <clipPath id="clip-path">
      <path id="Clip_206" data-name="Clip 206" d="M4.087,6.464H0L4,11.31,8,6.464h-2.2a8.727,8.727,0,0,1,7.8-4.85h0A8.843,8.843,0,0,1,22.4,10.5h0a8.839,8.839,0,0,1-8.8,8.885h0a8.664,8.664,0,0,1-5.037-1.612H6.117A10.322,10.322,0,0,0,13.6,21h0A10.45,10.45,0,0,0,24,10.5h0A10.45,10.45,0,0,0,13.6,0h0A10.3,10.3,0,0,0,4.087,6.464Z" transform="translate(0 2)" fill="#232e48"/>
    </clipPath>
  </defs>
  <g id="Group_3" data-name="Group 3">
    <path id="Clip_206-2" data-name="Clip 206" d="M4.087,6.464H0L4,11.31,8,6.464h-2.2a8.727,8.727,0,0,1,7.8-4.85h0A8.843,8.843,0,0,1,22.4,10.5h0a8.839,8.839,0,0,1-8.8,8.885h0a8.664,8.664,0,0,1-5.037-1.612H6.117A10.322,10.322,0,0,0,13.6,21h0A10.45,10.45,0,0,0,24,10.5h0A10.45,10.45,0,0,0,13.6,0h0A10.3,10.3,0,0,0,4.087,6.464Z" transform="translate(0 2)" fill="#232e48"/>
  </g>
</svg>
