<svg id="Icon_Social_Line" data-name="Icon/Social/Line" xmlns="http://www.w3.org/2000/svg" width="24" height="24" viewBox="0 0 24 24">
  <g id="line-messenger">
    <path id="Path" d="M11.733,0c6.48,0,11.733,4.206,11.733,9.4a8.029,8.029,0,0,1-1.752,4.94,2.431,2.431,0,0,1-.217.272l-.007.007a10.172,10.172,0,0,1-1.276,1.273c-3.245,3-8.585,6.569-9.29,6.019-.613-.479,1.009-2.821-.862-3.211-.131-.015-.261-.031-.39-.049h0C4.174,17.864,0,14.02,0,9.4,0,4.206,5.253,0,11.733,0Z" transform="translate(0.226 1.297)" fill="#3ace01"/>
    <path id="Shape" d="M14.663,5.773H12.3a.613.613,0,0,1-.612-.612V.623A.613.613,0,0,1,12.3.011h2.366a.613.613,0,0,1,.612.612V.674a.613.613,0,0,1-.612.612h-1.7v.968h1.7a.613.613,0,0,1,.612.612v.051a.611.611,0,0,1-.61.611H12.959V4.5h1.7a.613.613,0,0,1,.612.612v.051A.613.613,0,0,1,14.663,5.773Zm-4.374-.011h-.05a.6.6,0,0,1-.232-.047.5.5,0,0,1-.238-.175.6.6,0,0,1-.045-.061L7.5,2.436V5.151a.613.613,0,0,1-.612.612H6.832a.613.613,0,0,1-.612-.612V.612A.613.613,0,0,1,6.832,0h.051a.613.613,0,0,1,.531.31L9.626,3.276V.612A.613.613,0,0,1,10.238,0h.05A.613.613,0,0,1,10.9.612V5.151a.614.614,0,0,1-.176.429.437.437,0,0,1-.149.111A.613.613,0,0,1,10.289,5.763Zm-5.542,0H4.7a.613.613,0,0,1-.612-.612V.612A.613.613,0,0,1,4.7,0h.05a.613.613,0,0,1,.612.612V5.151A.613.613,0,0,1,4.747,5.763Zm-1.769,0H.612A.613.613,0,0,1,0,5.15V.612A.613.613,0,0,1,.612,0H.663a.612.612,0,0,1,.611.612V4.487h1.7A.613.613,0,0,1,3.59,5.1v.051A.613.613,0,0,1,2.978,5.763Z" transform="translate(4.54 7.927)" fill="#fff"/>
  </g>
</svg>
