<svg id="Icon_Print" data-name="Icon/Print" xmlns="http://www.w3.org/2000/svg" width="24" height="24" viewBox="0 0 24 24">
  <path id="_" data-name="" d="M19.5,24H4.5V19.5H1.664a1.607,1.607,0,0,1-1.172-.492A1.634,1.634,0,0,1,0,17.813V7.641A1.608,1.608,0,0,1,.492,6.468a1.607,1.607,0,0,1,1.172-.491H4.5V0h15V5.977h2.836A1.68,1.68,0,0,1,24,7.641V17.813a1.637,1.637,0,0,1-.492,1.2,1.61,1.61,0,0,1-1.172.492H19.5V24ZM6,14.226V22.5H18V14.226Zm-1.5-1.5h15V18h2.836a.146.146,0,0,0,.117-.059.2.2,0,0,0,.047-.129V7.641a.158.158,0,0,0-.047-.118.162.162,0,0,0-.117-.047H1.664a.16.16,0,0,0-.164.165V17.813a.16.16,0,0,0,.164.164H4.5V12.728ZM6,1.477v4.5H18v-4.5Zm13.5,9H18.75a.742.742,0,0,1-.527-.212A.712.712,0,0,1,18,9.726a.759.759,0,0,1,.75-.75H19.5a.759.759,0,0,1,.75.75.712.712,0,0,1-.222.539A.742.742,0,0,1,19.5,10.477Z" fill="#232e48"/>
</svg>
