<svg id="Icon_Front_Desk" data-name="Icon/Front Desk" xmlns="http://www.w3.org/2000/svg" xmlns:xlink="http://www.w3.org/1999/xlink" width="24" height="24" viewBox="0 0 24 24">
  <defs>
    <clipPath id="clip-path">
      <path id="Clip_198" data-name="Clip 198" d="M8,23a3,3,0,0,1-3-3V18.666L2.35,18.224a1.978,1.978,0,0,1-1.638-1.6A40.116,40.116,0,0,1,0,9.5,40.1,40.1,0,0,1,.712,2.373,1.987,1.987,0,0,1,2.35.774L5.837.194A.856.856,0,0,1,6,.181a1,1,0,0,1,1,1V4A1,1,0,0,1,6,5H4.735a1,1,0,0,0-.955.706A16.569,16.569,0,0,0,3,9.5a16.88,16.88,0,0,0,.779,3.791A1,1,0,0,0,4.735,14H6a1,1,0,0,1,1,1v2.823a1,1,0,0,1-1,1L6,20a2,2,0,0,0,4,0V18.911A1.5,1.5,0,0,1,9,17.5V1.5A1.5,1.5,0,0,1,10.5,0h12A1.5,1.5,0,0,1,24,1.5v16A1.5,1.5,0,0,1,22.5,19H11v1A3,3,0,0,1,8,23ZM10.5,1a.5.5,0,0,0-.5.5v16a.5.5,0,0,0,.5.5h12a.5.5,0,0,0,.5-.5V1.5a.5.5,0,0,0-.5-.5ZM6,1.183l-3.484.58a.985.985,0,0,0-.818.8A39.3,39.3,0,0,0,1,9.5a39.266,39.266,0,0,0,.7,6.942.985.985,0,0,0,.818.8L6,17.823V15H4.735A1.986,1.986,0,0,1,2.822,13.58,16.841,16.841,0,0,1,2,9.5a16.818,16.818,0,0,1,.822-4.079A1.987,1.987,0,0,1,4.735,4H6ZM19.5,16a.5.5,0,1,1,.5-.5A.5.5,0,0,1,19.5,16Zm-3,0a.5.5,0,1,1,.5-.5A.5.5,0,0,1,16.5,16Zm-3,0a.5.5,0,1,1,.5-.5A.5.5,0,0,1,13.5,16Zm6-3a.5.5,0,0,1-.5-.5.5.5,0,1,1,.5.5Zm-3,0a.5.5,0,1,1,.5-.5A.5.5,0,0,1,16.5,13Zm-3,0a.5.5,0,1,1,.5-.5A.5.5,0,0,1,13.5,13Zm6-3a.5.5,0,1,1,.5-.5A.5.5,0,0,1,19.5,10Zm-3,0a.5.5,0,1,1,.5-.5A.5.5,0,0,1,16.5,10Zm-3,0a.5.5,0,1,1,.5-.5A.5.5,0,0,1,13.5,10Zm6-3h-6A1.5,1.5,0,0,1,12,5.5v-1A1.5,1.5,0,0,1,13.5,3h6A1.5,1.5,0,0,1,21,4.5v1A1.5,1.5,0,0,1,19.5,7Zm-6-3a.5.5,0,0,0-.5.5v1a.5.5,0,0,0,.5.5h6a.5.5,0,0,0,.5-.5v-1a.5.5,0,0,0-.5-.5Z" transform="translate(0 1)" fill="#232e48"/>
    </clipPath>
  </defs>
  <g id="Group_21" data-name="Group 21">
    <path id="Clip_198-2" data-name="Clip 198" d="M8,23a3,3,0,0,1-3-3V18.666L2.35,18.224a1.978,1.978,0,0,1-1.638-1.6A40.116,40.116,0,0,1,0,9.5,40.1,40.1,0,0,1,.712,2.373,1.987,1.987,0,0,1,2.35.774L5.837.194A.856.856,0,0,1,6,.181a1,1,0,0,1,1,1V4A1,1,0,0,1,6,5H4.735a1,1,0,0,0-.955.706A16.569,16.569,0,0,0,3,9.5a16.88,16.88,0,0,0,.779,3.791A1,1,0,0,0,4.735,14H6a1,1,0,0,1,1,1v2.823a1,1,0,0,1-1,1L6,20a2,2,0,0,0,4,0V18.911A1.5,1.5,0,0,1,9,17.5V1.5A1.5,1.5,0,0,1,10.5,0h12A1.5,1.5,0,0,1,24,1.5v16A1.5,1.5,0,0,1,22.5,19H11v1A3,3,0,0,1,8,23ZM10.5,1a.5.5,0,0,0-.5.5v16a.5.5,0,0,0,.5.5h12a.5.5,0,0,0,.5-.5V1.5a.5.5,0,0,0-.5-.5ZM6,1.183l-3.484.58a.985.985,0,0,0-.818.8A39.3,39.3,0,0,0,1,9.5a39.266,39.266,0,0,0,.7,6.942.985.985,0,0,0,.818.8L6,17.823V15H4.735A1.986,1.986,0,0,1,2.822,13.58,16.841,16.841,0,0,1,2,9.5a16.818,16.818,0,0,1,.822-4.079A1.987,1.987,0,0,1,4.735,4H6ZM19.5,16a.5.5,0,1,1,.5-.5A.5.5,0,0,1,19.5,16Zm-3,0a.5.5,0,1,1,.5-.5A.5.5,0,0,1,16.5,16Zm-3,0a.5.5,0,1,1,.5-.5A.5.5,0,0,1,13.5,16Zm6-3a.5.5,0,0,1-.5-.5.5.5,0,1,1,.5.5Zm-3,0a.5.5,0,1,1,.5-.5A.5.5,0,0,1,16.5,13Zm-3,0a.5.5,0,1,1,.5-.5A.5.5,0,0,1,13.5,13Zm6-3a.5.5,0,1,1,.5-.5A.5.5,0,0,1,19.5,10Zm-3,0a.5.5,0,1,1,.5-.5A.5.5,0,0,1,16.5,10Zm-3,0a.5.5,0,1,1,.5-.5A.5.5,0,0,1,13.5,10Zm6-3h-6A1.5,1.5,0,0,1,12,5.5v-1A1.5,1.5,0,0,1,13.5,3h6A1.5,1.5,0,0,1,21,4.5v1A1.5,1.5,0,0,1,19.5,7Zm-6-3a.5.5,0,0,0-.5.5v1a.5.5,0,0,0,.5.5h6a.5.5,0,0,0,.5-.5v-1a.5.5,0,0,0-.5-.5Z" transform="translate(0 1)" fill="#232e48"/>
  </g>
</svg>
