<svg id="Icon_Delete" data-name="Icon/Delete" xmlns="http://www.w3.org/2000/svg" width="24" height="24" viewBox="0 0 24 24">
  <path id="_" data-name="î”" d="M14.034,24H4.966a1.465,1.465,0,0,1-1.036-.421,1.633,1.633,0,0,1-.513-1.03L1.732,5.24h-1a.7.7,0,0,1-.513-.222.75.75,0,0,1,0-1.053.7.7,0,0,1,.513-.221H5.855V1.707a1.643,1.643,0,0,1,.5-1.216A1.646,1.646,0,0,1,7.541,0h3.918a1.643,1.643,0,0,1,1.185.491,1.643,1.643,0,0,1,.5,1.216V3.743h5.126a.7.7,0,0,1,.513.221.75.75,0,0,1,0,1.053.7.7,0,0,1-.513.222h-1L15.56,22.55a1.539,1.539,0,0,1-.49,1.03A1.466,1.466,0,0,1,14.034,24ZM3.212,5.24h0L4.875,22.409a.1.1,0,0,0,.034.058.092.092,0,0,0,.057.035h9.067a.1.1,0,0,0,.057-.023.079.079,0,0,0,.034-.07L15.788,5.24H3.212ZM7.541,1.473a.219.219,0,0,0-.16.07.23.23,0,0,0-.068.164V3.743h4.375V1.707a.23.23,0,0,0-.068-.164.219.219,0,0,0-.16-.07Z" transform="translate(2)" fill="#9196a3"/>
</svg>
