<svg id="Icon_Currency-USD" data-name="Icon/Currency-USD" xmlns="http://www.w3.org/2000/svg" width="24" height="24" viewBox="0 0 24 24">
  <path id="_" data-name="" d="M12,15.871a5.36,5.36,0,0,1-4.609,5.357v2.344A.415.415,0,0,1,6.979,24H5.242a.423.423,0,0,1-.412-.429V21.228a8.062,8.062,0,0,1-4.724-2.4.458.458,0,0,1-.026-.549l1.326-1.808a.415.415,0,0,1,.3-.161.343.343,0,0,1,.309.121,6.65,6.65,0,0,0,4.107,1.808,2.362,2.362,0,0,0,2.626-2.21c0-1.286-1.519-1.915-3.257-2.638-2.317-.951-5.2-2.156-5.2-5.518A5.273,5.273,0,0,1,4.83,2.839V.429A.423.423,0,0,1,5.242,0H6.979a.415.415,0,0,1,.412.429V2.786a6.874,6.874,0,0,1,4.055,1.835.442.442,0,0,1,.064.509L10.468,7.085a.381.381,0,0,1-.3.214.413.413,0,0,1-.348-.094,5.815,5.815,0,0,0-3.5-1.446c-1.635,0-2.768.844-2.768,2.063,0,1.42,1.571,2.049,3.4,2.786C9.322,11.558,12,12.643,12,15.871Z" transform="translate(6)" fill="#232e48"/>
</svg>
