<svg xmlns="http://www.w3.org/2000/svg" width="26.569" height="24" viewBox="0 0 26.569 24">
  <g id="Icon_Social_Twitter" data-name="Icon/Social/Twitter" transform="translate(2.148)">
    <path id="Stroke_146" data-name="Stroke 146" d="M24,2.248a10.065,10.065,0,0,1-2.827.758A4.863,4.863,0,0,0,23.341.35,9.99,9.99,0,0,1,20.2,1.514,4.977,4.977,0,0,0,16.616,0,4.863,4.863,0,0,0,11.7,4.8a4.9,4.9,0,0,0,.125,1.092A14.1,14.1,0,0,1,1.67.879,4.664,4.664,0,0,0,1,3.292a4.761,4.761,0,0,0,2.19,3.99,4.956,4.956,0,0,1-2.226-.6V6.74a4.843,4.843,0,0,0,3.946,4.71,5.194,5.194,0,0,1-1.294.163,5.081,5.081,0,0,1-.931-.086,4.93,4.93,0,0,0,4.6,3.335,10.066,10.066,0,0,1-6.117,2.049A11.071,11.071,0,0,1,0,16.847,14.2,14.2,0,0,0,7.55,19a13.723,13.723,0,0,0,14-13.645l-.016-.622A9.739,9.739,0,0,0,24,2.248" transform="translate(0 2)" fill="none" stroke="#232e48" stroke-miterlimit="10" stroke-width="1.02"/>
  </g>
</svg>
