<svg id="Icon_Arrow" data-name="Icon/Arrow" xmlns="http://www.w3.org/2000/svg" width="24" height="24" viewBox="0 0 24 24">
  <path id="Clip_839" data-name="Clip 839" d="M-13.1,1.519-20.96,9.088h20.1A.883.883,0,0,1,0,10a.883.883,0,0,1-.856.908h-20.1l7.859,7.575a.923.923,0,0,1,0,1.252.8.8,0,0,1-1.186,0l-9.387-9.051c-.014-.011-.029-.005-.04-.015s-.034-.011-.045-.022-.005-.031-.015-.047a.912.912,0,0,1-.22-.558c0-.011-.005-.016-.005-.031a.045.045,0,0,1,0-.027c0-.016.01-.033.01-.047a.878.878,0,0,1,.18-.463c.029-.036.019-.089.05-.122s.065-.02.095-.047a.178.178,0,0,0,.036-.036L-14.286.259A.824.824,0,0,1-13.695,0,.832.832,0,0,1-13.1.259.933.933,0,0,1-13.1,1.519Z" transform="translate(24 2)" fill="#232e48"/>
</svg>
