<svg id="Icon_Profile" data-name="Icon/Profile" xmlns="http://www.w3.org/2000/svg" xmlns:xlink="http://www.w3.org/1999/xlink" width="24" height="24" viewBox="0 0 24 24">
  <defs>
    <clipPath id="clip-path">
      <path id="Clip_88" data-name="Clip 88" d="M21.339,24H.663c-1.131-1.77-.694-5.388.465-6.6.552-.575,4.8-1.689,6.6-2.141A9.943,9.943,0,0,1,4.395,7.654,9.194,9.194,0,0,1,5.672,2.241C6.735.733,8.477,0,11,0s4.264.733,5.326,2.241A9.2,9.2,0,0,1,17.6,7.654a9.968,9.968,0,0,1-3.312,7.592c2.247.576,6.093,1.623,6.6,2.155,1.146,1.213,1.573,4.831.451,6.6ZM11,1.494c-1.989,0-3.353.593-4.168,1.812a7.784,7.784,0,0,0-.964,4.378c0,2.679,1.207,5.39,2.934,6.593V16.67a47.343,47.343,0,0,0-6.73,2,5.877,5.877,0,0,0-.6,3.836H20.533a5.975,5.975,0,0,0-.59-3.836A49.9,49.9,0,0,0,13.2,16.649V14.273c1.725-1.2,2.929-3.91,2.929-6.589C16.127,4.623,15.518,1.494,11,1.494Z" transform="translate(1)" fill="#232e48"/>
    </clipPath>
  </defs>
  <g id="Group_9" data-name="Group 9">
    <path id="Clip_88-2" data-name="Clip 88" d="M21.339,24H.663c-1.131-1.77-.694-5.388.465-6.6.552-.575,4.8-1.689,6.6-2.141A9.943,9.943,0,0,1,4.395,7.654,9.194,9.194,0,0,1,5.672,2.241C6.735.733,8.477,0,11,0s4.264.733,5.326,2.241A9.2,9.2,0,0,1,17.6,7.654a9.968,9.968,0,0,1-3.312,7.592c2.247.576,6.093,1.623,6.6,2.155,1.146,1.213,1.573,4.831.451,6.6ZM11,1.494c-1.989,0-3.353.593-4.168,1.812a7.784,7.784,0,0,0-.964,4.378c0,2.679,1.207,5.39,2.934,6.593V16.67a47.343,47.343,0,0,0-6.73,2,5.877,5.877,0,0,0-.6,3.836H20.533a5.975,5.975,0,0,0-.59-3.836A49.9,49.9,0,0,0,13.2,16.649V14.273c1.725-1.2,2.929-3.91,2.929-6.589C16.127,4.623,15.518,1.494,11,1.494Z" transform="translate(1)" fill="#232e48"/>
  </g>
</svg>
