<svg id="Icon_Amenity_Wifi" data-name="Icon/Amenity/Wifi" xmlns="http://www.w3.org/2000/svg" xmlns:xlink="http://www.w3.org/1999/xlink" width="24" height="24" viewBox="0 0 24 24">
  <defs>
    <clipPath id="clip-path">
      <path id="Clip_190" data-name="Clip 190" d="M11.956,16h0L9.234,13.251a8.482,8.482,0,0,1,2.725-.462,8.314,8.314,0,0,1,2.75.473L11.956,16Zm5.952-5.928h0a12.3,12.3,0,0,0-11.865-.039L4.528,8.507a14.226,14.226,0,0,1,14.921.034l-1.541,1.53Zm4.586-4.563h0A18.212,18.212,0,0,0,1.5,5.452L0,3.941a20.106,20.106,0,0,1,24,.066l-1.507,1.5Z" transform="translate(0 4)" fill="#232e48"/>
    </clipPath>
  </defs>
  <g id="Group_28" data-name="Group 28">
    <path id="Clip_190-2" data-name="Clip 190" d="M11.956,16h0L9.234,13.251a8.482,8.482,0,0,1,2.725-.462,8.314,8.314,0,0,1,2.75.473L11.956,16Zm5.952-5.928h0a12.3,12.3,0,0,0-11.865-.039L4.528,8.507a14.226,14.226,0,0,1,14.921.034l-1.541,1.53Zm4.586-4.563h0A18.212,18.212,0,0,0,1.5,5.452L0,3.941a20.106,20.106,0,0,1,24,.066l-1.507,1.5Z" transform="translate(0 4)" fill="#232e48"/>
  </g>
</svg>
