<svg id="Icon_Bed" data-name="Icon/Bed" xmlns="http://www.w3.org/2000/svg" xmlns:xlink="http://www.w3.org/1999/xlink" width="24" height="24.001" viewBox="0 0 24 24.001">
  <defs>
    <clipPath id="clip-path">
      <path id="Clip_114" data-name="Clip 114" d="M3,24H1.5V22.5H0v-6H.333L3,4.5v-3A1.5,1.5,0,0,1,4.5,0h15A1.5,1.5,0,0,1,21,1.5v3l2.664,12H24v6H22.5V24H21V22.5H3V24ZM1.5,18v3h21V18Zm1.365-6.281h0L1.5,16.5h21l-1.365-4.78H2.862ZM4.5,6h0L3.215,10.5H20.781L19.5,6H17.563V6.75a.751.751,0,0,1-.752.748h-3a.749.749,0,0,1-.749-.748V6H10.914V6.75a.751.751,0,0,1-.752.748h-3a.749.749,0,0,1-.749-.748V6H4.5ZM14.561,4.5V6h1.5V4.5Zm-6.647,0V6h1.5V4.5Zm5.9-1.5h3a.751.751,0,0,1,.752.747V4.5h1.184a.753.753,0,0,0,.752-.752V2.249a.753.753,0,0,0-.752-.752H5.251a.753.753,0,0,0-.752.752V3.744a.753.753,0,0,0,.752.752H6.413V3.744A.749.749,0,0,1,7.162,3h3a.751.751,0,0,1,.752.747V4.5H13.06V3.744A.751.751,0,0,1,13.812,3Z" fill="#232e48"/>
    </clipPath>
  </defs>
  <g id="Group_27" data-name="Group 27">
    <path id="Clip_114-2" data-name="Clip 114" d="M3,24H1.5V22.5H0v-6H.333L3,4.5v-3A1.5,1.5,0,0,1,4.5,0h15A1.5,1.5,0,0,1,21,1.5v3l2.664,12H24v6H22.5V24H21V22.5H3V24ZM1.5,18v3h21V18Zm1.365-6.281h0L1.5,16.5h21l-1.365-4.78H2.862ZM4.5,6h0L3.215,10.5H20.781L19.5,6H17.563V6.75a.751.751,0,0,1-.752.748h-3a.749.749,0,0,1-.749-.748V6H10.914V6.75a.751.751,0,0,1-.752.748h-3a.749.749,0,0,1-.749-.748V6H4.5ZM14.561,4.5V6h1.5V4.5Zm-6.647,0V6h1.5V4.5Zm5.9-1.5h3a.751.751,0,0,1,.752.747V4.5h1.184a.753.753,0,0,0,.752-.752V2.249a.753.753,0,0,0-.752-.752H5.251a.753.753,0,0,0-.752.752V3.744a.753.753,0,0,0,.752.752H6.413V3.744A.749.749,0,0,1,7.162,3h3a.751.751,0,0,1,.752.747V4.5H13.06V3.744A.751.751,0,0,1,13.812,3Z" fill="#232e48"/>
  </g>
</svg>
