<svg xmlns="http://www.w3.org/2000/svg" width="24.001" height="24" viewBox="0 0 24.001 24">
  <g id="Icon_Email" data-name="Icon/Email" transform="translate(0)">
    <path id="_" data-name="" d="M22.125,16H2.625a2.554,2.554,0,0,1-1.781-.818A2.412,2.412,0,0,1,0,13.454V1.727a.2.2,0,0,1,.023-.091.508.508,0,0,1,0-.307.835.835,0,0,1,.164-.284A.316.316,0,0,0,.234.988.183.183,0,0,1,.305.932a2.188,2.188,0,0,1,1-.693A3.8,3.8,0,0,1,2.625,0h19.5a2.14,2.14,0,0,1,1.207.307,1.453,1.453,0,0,1,.6.921.576.576,0,0,1,.059.193.713.713,0,0,1-.012.216A.2.2,0,0,1,24,1.727V13.454a3.441,3.441,0,0,1-.469,1.728A1.527,1.527,0,0,1,22.125,16ZM1.5,3.046V13.454a1.09,1.09,0,0,0,.41.694,1.143,1.143,0,0,0,.716.4h19.5c.2,0,.317-.134.34-.4s.035-.5.035-.694V3.046L12.492,10.8a.92.92,0,0,1-.234.136.747.747,0,0,1-.516,0,.934.934,0,0,1-.235-.136Zm.773-1.591a3.3,3.3,0,0,0-.375.022L12,9.3,22.125,1.454Z" transform="translate(0 4)" fill="#232e48"/>
  </g>
</svg>
