<svg id="Icon_Newsletter" data-name="Icon/Newsletter" xmlns="http://www.w3.org/2000/svg" width="24" height="24.001" viewBox="0 0 24 24.001">
  <path id="Stroke_77" data-name="Stroke 77" d="M1.576,24H0V0H21V24H19.352l-2.94-3-2.885,3-3.094-3L7.451,24l-3.1-3L1.576,24ZM16.4,18.848h0l1.08,1.1L19.5,22.01V1.5H1.5V21.872l1.747-1.889,1.038-1.128L5.39,19.922l2.04,1.973,1.939-1.951,1.046-1.049,1.063,1.029,2.012,1.954,1.84-1.915L16.4,18.849ZM16.5,15H4.5V13.5h12V15Zm0-3H4.5V10.5h12V12ZM11.676,6H4.5V4.5h7.175V6Z" transform="translate(2)" fill="#232e48"/>
</svg>
