<svg id="Icon_Person" data-name="Icon/Person" xmlns="http://www.w3.org/2000/svg" width="24" height="24" viewBox="0 0 24 24">
  <path id="Icon_Person-2" data-name="Icon/Person" d="M19.447,24a.552.552,0,0,1-.559-.543V21.817A8.817,8.817,0,0,0,10,13.092a8.819,8.819,0,0,0-8.89,8.725v1.641A.552.552,0,0,1,.553,24,.548.548,0,0,1,0,23.458V21.817a9.6,9.6,0,0,1,2.008-5.892,10.086,10.086,0,0,1,5.081-3.5,6.683,6.683,0,0,1-2.712-2.371A6.412,6.412,0,0,1,3.332,6.547,6.617,6.617,0,0,1,10,0a6.614,6.614,0,0,1,6.665,6.547,6.5,6.5,0,0,1-3.757,5.882,10.087,10.087,0,0,1,5.081,3.5A9.6,9.6,0,0,1,20,21.817v1.641A.548.548,0,0,1,19.447,24ZM10,1.091A5.514,5.514,0,0,0,4.443,6.547a5.558,5.558,0,0,0,11.113,0A5.512,5.512,0,0,0,10,1.091Z" transform="translate(2)" fill="#232e48"/>
</svg>
