<svg xmlns="http://www.w3.org/2000/svg" xmlns:xlink="http://www.w3.org/1999/xlink" width="24" height="29" viewBox="0 0 24 29">
  <defs>
    <clipPath id="clip-path">
      <path id="Clip_29" data-name="Clip 29" d="M12,29a12.037,12.037,0,0,1-8.486-3.448,11.629,11.629,0,0,1,0-16.659A12.034,12.034,0,0,1,12,5.442,11.906,11.906,0,0,1,24,17.223a11.589,11.589,0,0,1-3.516,8.328A12.039,12.039,0,0,1,12,29ZM12,7.249A10.075,10.075,0,0,0,1.85,17.223,10.073,10.073,0,0,0,12,27.194a10.073,10.073,0,0,0,10.151-9.97A10.075,10.075,0,0,0,12,7.249Zm0,18.124a.912.912,0,0,1-.922-.9V22.654a.923.923,0,0,1,1.845,0v1.819A.913.913,0,0,1,12,25.373Zm7.385-7.249H17.536a.9.9,0,1,1,0-1.806h1.849a.9.9,0,1,1,0,1.806Zm-12.923,0H4.613a.9.9,0,1,1,0-1.806H6.461a.9.9,0,1,1,0,1.806ZM12,12.7a.921.921,0,0,1-.922-.918v-1.8a.923.923,0,0,1,1.845,0v1.8A.922.922,0,0,1,12,12.7Zm0-8.167a.916.916,0,0,1-.922-.907V1.8H8.306A.912.912,0,0,1,7.383.9.914.914,0,0,1,8.306,0h7.383a.917.917,0,0,1,.928.9.914.914,0,0,1-.928.9H12.923V3.622A.916.916,0,0,1,12,4.529Z" transform="translate(0 -2)" fill="#232e48"/>
    </clipPath>
  </defs>
  <g id="Icon_Timer" data-name="Icon/Timer" transform="translate(0 2)">
    <g id="Group_4" data-name="Group 4">
      <path id="Clip_29-2" data-name="Clip 29" d="M12,29a12.037,12.037,0,0,1-8.486-3.448,11.629,11.629,0,0,1,0-16.659A12.034,12.034,0,0,1,12,5.442,11.906,11.906,0,0,1,24,17.223a11.589,11.589,0,0,1-3.516,8.328A12.039,12.039,0,0,1,12,29ZM12,7.249A10.075,10.075,0,0,0,1.85,17.223,10.073,10.073,0,0,0,12,27.194a10.073,10.073,0,0,0,10.151-9.97A10.075,10.075,0,0,0,12,7.249Zm0,18.124a.912.912,0,0,1-.922-.9V22.654a.923.923,0,0,1,1.845,0v1.819A.913.913,0,0,1,12,25.373Zm7.385-7.249H17.536a.9.9,0,1,1,0-1.806h1.849a.9.9,0,1,1,0,1.806Zm-12.923,0H4.613a.9.9,0,1,1,0-1.806H6.461a.9.9,0,1,1,0,1.806ZM12,12.7a.921.921,0,0,1-.922-.918v-1.8a.923.923,0,0,1,1.845,0v1.8A.922.922,0,0,1,12,12.7Zm0-8.167a.916.916,0,0,1-.922-.907V1.8H8.306A.912.912,0,0,1,7.383.9.914.914,0,0,1,8.306,0h7.383a.917.917,0,0,1,.928.9.914.914,0,0,1-.928.9H12.923V3.622A.916.916,0,0,1,12,4.529Z" transform="translate(0 -2)" fill="#232e48"/>
    </g>
  </g>
</svg>
