<svg id="Icon_Currency-YEN" data-name="Icon/Currency-YEN" xmlns="http://www.w3.org/2000/svg" width="24" height="24" viewBox="0 0 24 24">
  <path id="_" data-name="" d="M9.983,24H7.135a.531.531,0,0,1-.53-.545V17.83H1.834a.531.531,0,0,1-.53-.545V15.528a.531.531,0,0,1,.53-.545H6.6V13.534H1.834a.531.531,0,0,1-.53-.545V11.216a.542.542,0,0,1,.53-.545H5.379L.062.818a.63.63,0,0,1,0-.545A.546.546,0,0,1,.526,0H3.739a.551.551,0,0,1,.48.307L7.78,7.551c.4.8.663,1.483.928,2.131.282-.733.646-1.449.961-2.2L12.832.324A.521.521,0,0,1,13.313,0h3.164a.52.52,0,0,1,.447.273A.544.544,0,0,1,16.94.8L11.756,10.67h3.561a.542.542,0,0,1,.53.545v1.773a.531.531,0,0,1-.53.545h-4.8v1.449h4.8a.531.531,0,0,1,.53.545v1.756a.531.531,0,0,1-.53.545h-4.8v5.625A.542.542,0,0,1,9.983,24Z" transform="translate(3)" fill="#232e48"/>
</svg>
