<svg id="Icon_Languages" data-name="Icon/Languages" xmlns="http://www.w3.org/2000/svg" width="24" height="24" viewBox="0 0 24 24">
  <path id="_" data-name="" d="M12.327,24H12a11.648,11.648,0,0,1-4.667-.95A12.117,12.117,0,0,1,.948,16.664,11.627,11.627,0,0,1,0,12,11.624,11.624,0,0,1,.948,7.336,12.109,12.109,0,0,1,7.333.95,11.648,11.648,0,0,1,12,0h.328a1.718,1.718,0,0,1,.2.012,1.744,1.744,0,0,0,.2.012,11.634,11.634,0,0,1,4.4,1.137,12.4,12.4,0,0,1,3.591,2.6,12.021,12.021,0,0,1,2.409,3.726,12.037,12.037,0,0,1,0,9.023,12.016,12.016,0,0,1-2.409,3.727,12.417,12.417,0,0,1-3.591,2.6,11.667,11.667,0,0,1-4.4,1.137,1.744,1.744,0,0,0-.2.012A1.939,1.939,0,0,1,12.327,24Zm.4-7.571v5.977a3.443,3.443,0,0,0,1.229-.691,6.327,6.327,0,0,0,1.111-1.255,9.541,9.541,0,0,0,.924-1.734,14.628,14.628,0,0,0,.69-2.133c-.536-.046-1.147-.082-1.813-.105C14.24,16.466,13.54,16.447,12.725,16.43Zm-1.5,0c-.813.017-1.51.036-2.129.059-.652.023-1.266.059-1.824.105a13.527,13.527,0,0,0,.7,2.1,10.173,10.173,0,0,0,.936,1.723,6.526,6.526,0,0,0,1.1,1.255,3.645,3.645,0,0,0,1.217.715Zm-5.4.282c-.728.078-1.342.16-1.825.246-.43.077-.826.146-1.146.2a10.565,10.565,0,0,0,1.064,1.535A10.9,10.9,0,0,0,5.216,20a11.077,11.077,0,0,0,1.508,1.077,9.084,9.084,0,0,0,1.7.786,10.445,10.445,0,0,1-1.509-2.25,14.75,14.75,0,0,1-1.087-2.906Zm12.4.023a15.761,15.761,0,0,1-.854,2.719,11.966,11.966,0,0,1-1.181,2.179,10.681,10.681,0,0,0,2.807-1.8,10.344,10.344,0,0,0,2.105-2.6c-.224-.06-.569-.134-1.053-.223S18.961,16.827,18.222,16.735ZM21.708,7.97h0l.28.773c-.048.016-.364.1-.877.234a21.491,21.491,0,0,1-2.538.422c.047.419.086.849.117,1.277s.047.881.047,1.324c0,.56-.024,1.12-.07,1.664s-.1,1.071-.164,1.594c.9.11,1.628.225,2.152.34s.9.206,1.123.269A10.545,10.545,0,0,0,22.5,12a10.385,10.385,0,0,0-.211-2.1A10.978,10.978,0,0,0,21.708,7.97Zm-19.72.867a11.324,11.324,0,0,0-.363,1.546A10.222,10.222,0,0,0,1.5,12a10.8,10.8,0,0,0,.176,1.958A9.4,9.4,0,0,0,2.2,15.773c.286-.057.713-.138,1.17-.222.546-.1,1.262-.2,2.128-.293-.094-.517-.164-1.054-.211-1.594s-.07-1.1-.07-1.664c0-.435.012-.877.035-1.312s.066-.859.129-1.265c-1.012-.11-1.8-.225-2.351-.34s-.9-.2-1.041-.246Zm15.088.7c-.59.062-1.255.109-1.976.14s-1.514.047-2.374.047v5.2c.836.016,1.612.039,2.3.07s1.347.069,1.953.117c.076-.489.14-1,.187-1.524s.07-1.05.07-1.594c0-.423-.016-.841-.047-1.242s-.069-.8-.117-1.219ZM6.854,9.563c-.046.381-.085.783-.117,1.2S6.69,11.588,6.69,12c0,.544.024,1.081.07,1.594s.109,1.016.187,1.524c.633-.049,1.3-.088,1.977-.117.706-.031,1.481-.055,2.3-.07v-5.2c-.869,0-1.668-.016-2.374-.047C8.123,9.648,7.45,9.608,6.854,9.563Zm5.872-7.969V8.25c.793-.016,1.545-.039,2.234-.07.666-.031,1.3-.071,1.883-.118a17.421,17.421,0,0,0-.689-2.355A10.445,10.445,0,0,0,15.2,3.774a6.708,6.708,0,0,0-1.169-1.407A3.6,3.6,0,0,0,12.725,1.594Zm-1.5.023h0a3.525,3.525,0,0,0-1.31.785A6.8,6.8,0,0,0,8.761,3.809,11.064,11.064,0,0,0,7.813,5.73a16.709,16.709,0,0,0-.7,2.332c.571.046,1.209.086,1.894.118s1.432.054,2.223.07V1.617Zm-2.807.516a10.128,10.128,0,0,0-1.849.878A10.729,10.729,0,0,0,4.959,4.218,11.353,11.353,0,0,0,3.591,5.707,10.037,10.037,0,0,0,2.526,7.43,10.8,10.8,0,0,0,3.6,7.664c.511.093,1.2.187,2.058.281A14.547,14.547,0,0,1,6.783,4.664,11.878,11.878,0,0,1,8.421,2.133Zm7.766.234h0a11.859,11.859,0,0,1,1.286,2.45,17.558,17.558,0,0,1,.889,3.105,20.183,20.183,0,0,0,2.152-.34c.516-.121.806-.192.913-.222a10.415,10.415,0,0,0-2.175-2.953,10.669,10.669,0,0,0-3.065-2.039Z" fill="#232e48"/>
</svg>
