<svg id="Icon_Free" data-name="Icon/Free" xmlns="http://www.w3.org/2000/svg" xmlns:xlink="http://www.w3.org/1999/xlink" width="24" height="24" viewBox="0 0 24 24">
  <defs>
    <clipPath id="clip-path">
      <path id="Clip_92" data-name="Clip 92" d="M12,24A12,12,0,0,1,3.513,3.513,12,12,0,1,1,20.485,20.485,11.922,11.922,0,0,1,12,24ZM12,1.6A10.4,10.4,0,1,0,22.4,12,10.412,10.412,0,0,0,12,1.6ZM9.637,16.38a.748.748,0,0,1-.518-.2.037.037,0,0,1-.011-.021.027.027,0,0,0-.006-.014s-.007-.005-.012-.006a.026.026,0,0,1-.014-.006L6.1,13.3a.726.726,0,0,1,0-1.068.826.826,0,0,1,1.127,0l2.5,2.376,7.15-6.783a.754.754,0,0,1,1.036,0,.671.671,0,0,1,.216.489.681.681,0,0,1-.216.5l-7.762,7.367A.743.743,0,0,1,9.637,16.38Z" fill="#232e48"/>
    </clipPath>
  </defs>
  <g id="Group_22" data-name="Group 22">
    <path id="Clip_92-2" data-name="Clip 92" d="M12,24A12,12,0,0,1,3.513,3.513,12,12,0,1,1,20.485,20.485,11.922,11.922,0,0,1,12,24ZM12,1.6A10.4,10.4,0,1,0,22.4,12,10.412,10.412,0,0,0,12,1.6ZM9.637,16.38a.748.748,0,0,1-.518-.2.037.037,0,0,1-.011-.021.027.027,0,0,0-.006-.014s-.007-.005-.012-.006a.026.026,0,0,1-.014-.006L6.1,13.3a.726.726,0,0,1,0-1.068.826.826,0,0,1,1.127,0l2.5,2.376,7.15-6.783a.754.754,0,0,1,1.036,0,.671.671,0,0,1,.216.489.681.681,0,0,1-.216.5l-7.762,7.367A.743.743,0,0,1,9.637,16.38Z" fill="#232e48"/>
  </g>
</svg>
