<svg xmlns="http://www.w3.org/2000/svg" width="24" height="24" viewBox="0 0 24 24">
  <g id="Icon_Filter" data-name="Icon/Filter" transform="translate(0)">
    <path id="_" data-name="î¬" d="M21,24a.761.761,0,0,1-.75-.751V10.406a3.045,3.045,0,0,1-1.606-1.054A2.876,2.876,0,0,1,18,7.5a2.871,2.871,0,0,1,.644-1.851A3.051,3.051,0,0,1,20.25,4.594V.75a.724.724,0,0,1,.222-.527.737.737,0,0,1,1.055,0A.724.724,0,0,1,21.75.75V4.594a2.994,2.994,0,0,1,1.617,1.055A2.906,2.906,0,0,1,24,7.5a2.911,2.911,0,0,1-.633,1.852,2.986,2.986,0,0,1-1.617,1.054V23.25A.762.762,0,0,1,21,24ZM21,6a1.441,1.441,0,0,0-1.066.445,1.5,1.5,0,0,0,0,2.11,1.5,1.5,0,0,0,2.133,0,1.5,1.5,0,0,0,0-2.11A1.438,1.438,0,0,0,21,6ZM12,24a.761.761,0,0,1-.75-.751V19.406a3.045,3.045,0,0,1-1.606-1.054,2.983,2.983,0,0,1,0-3.7,3.051,3.051,0,0,1,1.606-1.055V.75a.724.724,0,0,1,.222-.527.737.737,0,0,1,1.055,0A.724.724,0,0,1,12.75.75V13.594a2.994,2.994,0,0,1,1.617,1.055,3.026,3.026,0,0,1,0,3.7,2.986,2.986,0,0,1-1.617,1.054V23.25A.762.762,0,0,1,12,24Zm0-9a1.441,1.441,0,0,0-1.066.445,1.5,1.5,0,0,0,0,2.11,1.5,1.5,0,0,0,2.133,0,1.5,1.5,0,0,0,0-2.11A1.438,1.438,0,0,0,12,15ZM3,24a.761.761,0,0,1-.75-.751V14.906A3.045,3.045,0,0,1,.644,13.852a2.983,2.983,0,0,1,0-3.7A3.051,3.051,0,0,1,2.25,9.094V.75A.724.724,0,0,1,2.472.222a.737.737,0,0,1,1.055,0A.724.724,0,0,1,3.75.75V9.094a2.994,2.994,0,0,1,1.617,1.055,3.026,3.026,0,0,1,0,3.7A2.986,2.986,0,0,1,3.75,14.906V23.25A.762.762,0,0,1,3,24ZM3,10.5a1.441,1.441,0,0,0-1.067.445,1.5,1.5,0,0,0,0,2.11A1.438,1.438,0,0,0,3,13.5a1.436,1.436,0,0,0,1.066-.446,1.5,1.5,0,0,0,0-2.11A1.438,1.438,0,0,0,3,10.5Z" transform="translate(24) rotate(90)" fill="#232e48"/>
  </g>
</svg>
