<svg xmlns="http://www.w3.org/2000/svg" xmlns:xlink="http://www.w3.org/1999/xlink" width="24" height="24" viewBox="0 0 24 24">
  <defs>
    <clipPath id="clip-path">
      <path id="Clip_80" data-name="Clip 80" d="M-4.343,24c1.45,0,3.944-3.481,3.968-3.516A2.061,2.061,0,0,0,0,19.306a1.487,1.487,0,0,0-.551-1.221c-.39-.283-4.4-2.953-4.835-3.225a1.422,1.422,0,0,0-.767-.2,2.546,2.546,0,0,0-1.173.323c-.383.2-1.536.851-2.13,1.193a29.056,29.056,0,0,1-3.559-3.126A28.227,28.227,0,0,1-16.152,9.5c.326-.567,1-1.743,1.2-2.126A2.6,2.6,0,0,0-14.636,6.2a1.432,1.432,0,0,0-.2-.758C-15.15,4.93-17.818.929-18.068.574A1.487,1.487,0,0,0-19.289,0a2.084,2.084,0,0,0-1.189.394C-20.513.418-24,2.942-24,4.375v.031c.132,4.1,4.108,8.893,7.42,12.194S-8.455,23.868-4.37,24Zm-1.8-7.848c.658.426,4.088,2.683,4.687,3.092a.248.248,0,0,1,0,.062.6.6,0,0,1-.1.328A10.648,10.648,0,0,1-4.395,22.5c-2.8-.131-6.754-2.6-11.125-6.956s-6.844-8.3-6.976-11.107a10.936,10.936,0,0,1,2.89-2.824.56.56,0,0,1,.317-.118.246.246,0,0,1,.037,0c.4.573,2.737,4.091,3.111,4.686V6.2a1.018,1.018,0,0,1-.143.472c-.172.332-.742,1.338-1.172,2.08l-.472.827.546.777a30.476,30.476,0,0,0,3.3,3.754A30.154,30.154,0,0,0-10.319,17.4l.777.544.83-.469C-7.533,16.8-6.87,16.428-6.627,16.3a1.1,1.1,0,0,1,.48-.153h0Z" transform="translate(24)" fill="#232e48"/>
    </clipPath>
  </defs>
  <g id="Icon_Phone" data-name="Icon/Phone" transform="translate(0)">
    <g id="Group_11" data-name="Group 11">
      <path id="Clip_80-2" data-name="Clip 80" d="M-4.343,24c1.45,0,3.944-3.481,3.968-3.516A2.061,2.061,0,0,0,0,19.306a1.487,1.487,0,0,0-.551-1.221c-.39-.283-4.4-2.953-4.835-3.225a1.422,1.422,0,0,0-.767-.2,2.546,2.546,0,0,0-1.173.323c-.383.2-1.536.851-2.13,1.193a29.056,29.056,0,0,1-3.559-3.126A28.227,28.227,0,0,1-16.152,9.5c.326-.567,1-1.743,1.2-2.126A2.6,2.6,0,0,0-14.636,6.2a1.432,1.432,0,0,0-.2-.758C-15.15,4.93-17.818.929-18.068.574A1.487,1.487,0,0,0-19.289,0a2.084,2.084,0,0,0-1.189.394C-20.513.418-24,2.942-24,4.375v.031c.132,4.1,4.108,8.893,7.42,12.194S-8.455,23.868-4.37,24Zm-1.8-7.848c.658.426,4.088,2.683,4.687,3.092a.248.248,0,0,1,0,.062.6.6,0,0,1-.1.328A10.648,10.648,0,0,1-4.395,22.5c-2.8-.131-6.754-2.6-11.125-6.956s-6.844-8.3-6.976-11.107a10.936,10.936,0,0,1,2.89-2.824.56.56,0,0,1,.317-.118.246.246,0,0,1,.037,0c.4.573,2.737,4.091,3.111,4.686V6.2a1.018,1.018,0,0,1-.143.472c-.172.332-.742,1.338-1.172,2.08l-.472.827.546.777a30.476,30.476,0,0,0,3.3,3.754A30.154,30.154,0,0,0-10.319,17.4l.777.544.83-.469C-7.533,16.8-6.87,16.428-6.627,16.3a1.1,1.1,0,0,1,.48-.153h0Z" transform="translate(24)" fill="#232e48"/>
    </g>
  </g>
</svg>
