<svg id="Icon_Virtual_Tour" data-name="Icon/Virtual Tour" xmlns="http://www.w3.org/2000/svg" xmlns:xlink="http://www.w3.org/1999/xlink" width="24" height="24" viewBox="0 0 24 24">
  <defs>
    <clipPath id="clip-path">
      <path id="Clip_295" data-name="Clip 295" d="M12,14a14.452,14.452,0,0,1-8.486-3.193C1.335,9.153,0,7.4,0,7S1.335,4.847,3.515,3.193A14.455,14.455,0,0,1,12,0a14.472,14.472,0,0,1,8.484,3.171C22.6,4.767,24,6.532,24,7s-1.4,2.233-3.515,3.83A14.469,14.469,0,0,1,12,14ZM12,.932A13.1,13.1,0,0,0,4.665,3.519,15.121,15.121,0,0,0,1.03,7a15.089,15.089,0,0,0,3.635,3.483A13.1,13.1,0,0,0,12,13.069a13.289,13.289,0,0,0,7.279-2.545A13.962,13.962,0,0,0,22.988,7,13.976,13.976,0,0,0,19.28,3.476,13.294,13.294,0,0,0,12,.932Zm0,9.333A3.319,3.319,0,0,1,8.641,7a3.362,3.362,0,0,1,6.72,0A3.318,3.318,0,0,1,12,10.265Zm0-5.6A2.37,2.37,0,0,0,9.6,7a2.4,2.4,0,0,0,4.8,0A2.368,2.368,0,0,0,12,4.667Z" transform="translate(0 5)" fill="#232e48"/>
    </clipPath>
  </defs>
  <g id="Group_2" data-name="Group 2">
    <path id="Clip_295-2" data-name="Clip 295" d="M12,14a14.452,14.452,0,0,1-8.486-3.193C1.335,9.153,0,7.4,0,7S1.335,4.847,3.515,3.193A14.455,14.455,0,0,1,12,0a14.472,14.472,0,0,1,8.484,3.171C22.6,4.767,24,6.532,24,7s-1.4,2.233-3.515,3.83A14.469,14.469,0,0,1,12,14ZM12,.932A13.1,13.1,0,0,0,4.665,3.519,15.121,15.121,0,0,0,1.03,7a15.089,15.089,0,0,0,3.635,3.483A13.1,13.1,0,0,0,12,13.069a13.289,13.289,0,0,0,7.279-2.545A13.962,13.962,0,0,0,22.988,7,13.976,13.976,0,0,0,19.28,3.476,13.294,13.294,0,0,0,12,.932Zm0,9.333A3.319,3.319,0,0,1,8.641,7a3.362,3.362,0,0,1,6.72,0A3.318,3.318,0,0,1,12,10.265Zm0-5.6A2.37,2.37,0,0,0,9.6,7a2.4,2.4,0,0,0,4.8,0A2.368,2.368,0,0,0,12,4.667Z" transform="translate(0 5)" fill="#232e48"/>
  </g>
</svg>
