<svg id="Icon_Amenity_Safety_Box" data-name="Icon/Amenity/Safety Box" xmlns="http://www.w3.org/2000/svg" xmlns:xlink="http://www.w3.org/1999/xlink" width="24" height="24" viewBox="0 0 24 24">
  <defs>
    <clipPath id="clip-path">
      <path id="Clip_271" data-name="Clip 271" d="M17.326,24H1.675A1.627,1.627,0,0,1,0,22.431V9.862a1.627,1.627,0,0,1,1.675-1.57H3.353V5.759A5.969,5.969,0,0,1,9.5,0a5.97,5.97,0,0,1,6.149,5.759V8.293h1.679A1.626,1.626,0,0,1,19,9.862V22.431A1.626,1.626,0,0,1,17.326,24ZM1.675,9.337a.542.542,0,0,0-.556.526V22.431a.541.541,0,0,0,.556.522H17.326a.54.54,0,0,0,.555-.522V9.862a.542.542,0,0,0-.555-.526ZM9.5,1.048A4.883,4.883,0,0,0,4.471,5.759V8.293H14.53V5.759A4.885,4.885,0,0,0,9.5,1.048Zm2.235,18.763H7.263a.566.566,0,0,1-.466-.236.488.488,0,0,1-.061-.452l.943-2.052A2.5,2.5,0,0,1,6.831,14.3a2.693,2.693,0,0,1,1.9-1.727,3.174,3.174,0,0,1,.768-.1,2.715,2.715,0,0,1,2.8,2.621,2.547,2.547,0,0,1-.974,1.972l.945,2.052a.489.489,0,0,1-.062.451A.571.571,0,0,1,11.733,19.811ZM9.5,13.527a2.11,2.11,0,0,0-.476.059A1.611,1.611,0,0,0,7.9,14.6a1.51,1.51,0,0,0,.509,1.673l.568.462-.938,2.023h2.919l-.938-2.023.569-.462a1.507,1.507,0,0,0,.587-1.177A1.63,1.63,0,0,0,9.5,13.527Z" transform="translate(2)" fill="#232e48"/>
    </clipPath>
  </defs>
  <g id="Group_30" data-name="Group 30">
    <path id="Clip_271-2" data-name="Clip 271" d="M17.326,24H1.675A1.627,1.627,0,0,1,0,22.431V9.862a1.627,1.627,0,0,1,1.675-1.57H3.353V5.759A5.969,5.969,0,0,1,9.5,0a5.97,5.97,0,0,1,6.149,5.759V8.293h1.679A1.626,1.626,0,0,1,19,9.862V22.431A1.626,1.626,0,0,1,17.326,24ZM1.675,9.337a.542.542,0,0,0-.556.526V22.431a.541.541,0,0,0,.556.522H17.326a.54.54,0,0,0,.555-.522V9.862a.542.542,0,0,0-.555-.526ZM9.5,1.048A4.883,4.883,0,0,0,4.471,5.759V8.293H14.53V5.759A4.885,4.885,0,0,0,9.5,1.048Zm2.235,18.763H7.263a.566.566,0,0,1-.466-.236.488.488,0,0,1-.061-.452l.943-2.052A2.5,2.5,0,0,1,6.831,14.3a2.693,2.693,0,0,1,1.9-1.727,3.174,3.174,0,0,1,.768-.1,2.715,2.715,0,0,1,2.8,2.621,2.547,2.547,0,0,1-.974,1.972l.945,2.052a.489.489,0,0,1-.062.451A.571.571,0,0,1,11.733,19.811ZM9.5,13.527a2.11,2.11,0,0,0-.476.059A1.611,1.611,0,0,0,7.9,14.6a1.51,1.51,0,0,0,.509,1.673l.568.462-.938,2.023h2.919l-.938-2.023.569-.462a1.507,1.507,0,0,0,.587-1.177A1.63,1.63,0,0,0,9.5,13.527Z" transform="translate(2)" fill="#232e48"/>
  </g>
</svg>
