<svg id="Icon_Map_Pin" data-name="Icon/Map Pin" xmlns="http://www.w3.org/2000/svg" xmlns:xlink="http://www.w3.org/1999/xlink" width="24" height="24" viewBox="0 0 24 24">
  <defs>
    <clipPath id="clip-path">
      <path id="Clip_33" data-name="Clip 33" d="M8.5,24h0c-.087-.1-2.167-2.57-4.249-5.636C2.311,15.507,0,11.564,0,8.993A8.767,8.767,0,0,1,8.5,0,8.767,8.767,0,0,1,17,8.993c0,2.571-2.311,6.515-4.25,9.37C10.667,21.431,8.588,23.9,8.5,24Zm0-22.5A7.3,7.3,0,0,0,1.418,8.993c0,4.094,7.011,12.67,7.082,12.757.015-.019,1.8-2.206,3.568-4.876,1.6-2.427,3.515-5.764,3.515-7.881A7.3,7.3,0,0,0,8.5,1.5Zm0,12a4.391,4.391,0,0,1-4.25-4.51A4.384,4.384,0,0,1,8.5,4.5a4.384,4.384,0,0,1,4.251,4.5A4.391,4.391,0,0,1,8.5,13.5ZM8.5,6A2.919,2.919,0,0,0,5.667,8.993,2.926,2.926,0,0,0,8.5,12a2.926,2.926,0,0,0,2.832-3.005A2.919,2.919,0,0,0,8.5,6Z" transform="translate(4)" fill="#232e48"/>
    </clipPath>
  </defs>
  <g id="Group_16" data-name="Group 16">
    <path id="Clip_33-2" data-name="Clip 33" d="M8.5,24h0c-.087-.1-2.167-2.57-4.249-5.636C2.311,15.507,0,11.564,0,8.993A8.767,8.767,0,0,1,8.5,0,8.767,8.767,0,0,1,17,8.993c0,2.571-2.311,6.515-4.25,9.37C10.667,21.431,8.588,23.9,8.5,24Zm0-22.5A7.3,7.3,0,0,0,1.418,8.993c0,4.094,7.011,12.67,7.082,12.757.015-.019,1.8-2.206,3.568-4.876,1.6-2.427,3.515-5.764,3.515-7.881A7.3,7.3,0,0,0,8.5,1.5Zm0,12a4.391,4.391,0,0,1-4.25-4.51A4.384,4.384,0,0,1,8.5,4.5a4.384,4.384,0,0,1,4.251,4.5A4.391,4.391,0,0,1,8.5,13.5ZM8.5,6A2.919,2.919,0,0,0,5.667,8.993,2.926,2.926,0,0,0,8.5,12a2.926,2.926,0,0,0,2.832-3.005A2.919,2.919,0,0,0,8.5,6Z" transform="translate(4)" fill="#232e48"/>
  </g>
</svg>
