<svg id="Icon_Menu" data-name="Icon/Menu" xmlns="http://www.w3.org/2000/svg" xmlns:xlink="http://www.w3.org/1999/xlink" width="24" height="24" viewBox="0 0 24 24">
  <defs>
    <clipPath id="clip-path">
      <path id="Clip_21" data-name="Clip 21" d="M22.8,17H1.2A1.1,1.1,0,0,1,0,16.06a1.1,1.1,0,0,1,1.2-.944H22.8a1.1,1.1,0,0,1,1.2.944A1.1,1.1,0,0,1,22.8,17Zm0-7.559H1.2A1.1,1.1,0,0,1,0,8.5a1.1,1.1,0,0,1,1.2-.941H22.8A1.1,1.1,0,0,1,24,8.5,1.1,1.1,0,0,1,22.8,9.441Zm0-7.56H1.2A1.1,1.1,0,0,1,0,.941,1.1,1.1,0,0,1,1.2,0H22.8A1.1,1.1,0,0,1,24,.941,1.1,1.1,0,0,1,22.8,1.881Z" transform="translate(0 3)" fill="#232e48"/>
    </clipPath>
  </defs>
  <g id="Group_15" data-name="Group 15">
    <path id="Clip_21-2" data-name="Clip 21" d="M22.8,17H1.2A1.1,1.1,0,0,1,0,16.06a1.1,1.1,0,0,1,1.2-.944H22.8a1.1,1.1,0,0,1,1.2.944A1.1,1.1,0,0,1,22.8,17Zm0-7.559H1.2A1.1,1.1,0,0,1,0,8.5a1.1,1.1,0,0,1,1.2-.941H22.8A1.1,1.1,0,0,1,24,8.5,1.1,1.1,0,0,1,22.8,9.441Zm0-7.56H1.2A1.1,1.1,0,0,1,0,.941,1.1,1.1,0,0,1,1.2,0H22.8A1.1,1.1,0,0,1,24,.941,1.1,1.1,0,0,1,22.8,1.881Z" transform="translate(0 3)" fill="#232e48"/>
  </g>
</svg>
